<?xml version="1.0" encoding="utf-8" standalone="no"?>
<!DOCTYPE svg PUBLIC "-//W3C//DTD SVG 1.1//EN"
  "http://www.w3.org/Graphics/SVG/1.1/DTD/svg11.dtd">
<!-- Created with matplotlib (https://matplotlib.org/) -->
<svg height="216pt" version="1.1" viewBox="0 0 432 216" width="432pt" xmlns="http://www.w3.org/2000/svg" xmlns:xlink="http://www.w3.org/1999/xlink">
 <defs>
  <style type="text/css">
*{stroke-linecap:butt;stroke-linejoin:round;}
  </style>
 </defs>
 <g id="figure_1">
  <g id="patch_1">
   <path d="M 0 216 
L 432 216 
L 432 0 
L 0 0 
z
" style="fill:#ffffff;"/>
  </g>
  <g id="axes_1">
   <g id="patch_2">
    <path d="M 53.675 171.2 
L 421.2 171.2 
L 421.2 10.8 
L 53.675 10.8 
z
" style="fill:#ffffff;"/>
   </g>
   <g id="patch_3">
    <path clip-path="url(#pebdc97b002)" d="M 55.151004 171.2 
L 59.726616 171.2 
L 59.726616 72.912835 
L 55.151004 72.912835 
z
" style="fill:#2708a0;"/>
   </g>
   <g id="patch_4">
    <path clip-path="url(#pebdc97b002)" d="M 59.726616 171.2 
L 64.302229 171.2 
L 64.302229 100.828716 
L 59.726616 100.828716 
z
" style="fill:#2708a0;"/>
   </g>
   <g id="patch_5">
    <path clip-path="url(#pebdc97b002)" d="M 64.302229 171.2 
L 68.877841 171.2 
L 68.877841 98.502393 
L 64.302229 98.502393 
z
" style="fill:#2708a0;"/>
   </g>
   <g id="patch_6">
    <path clip-path="url(#pebdc97b002)" d="M 68.877841 171.2 
L 73.453454 171.2 
L 73.453454 94.819048 
L 68.877841 94.819048 
z
" style="fill:#2708a0;"/>
   </g>
   <g id="patch_7">
    <path clip-path="url(#pebdc97b002)" d="M 73.453454 171.2 
L 78.029066 171.2 
L 78.029066 101.991878 
L 73.453454 101.991878 
z
" style="fill:#2708a0;"/>
   </g>
   <g id="patch_8">
    <path clip-path="url(#pebdc97b002)" d="M 78.029066 171.2 
L 82.604679 171.2 
L 82.604679 101.410297 
L 78.029066 101.410297 
z
" style="fill:#2708a0;"/>
   </g>
   <g id="patch_9">
    <path clip-path="url(#pebdc97b002)" d="M 82.604679 171.2 
L 87.180291 171.2 
L 87.180291 92.492724 
L 82.604679 92.492724 
z
" style="fill:#2708a0;"/>
   </g>
   <g id="patch_10">
    <path clip-path="url(#pebdc97b002)" d="M 87.180291 171.2 
L 91.755904 171.2 
L 91.755904 84.932173 
L 87.180291 84.932173 
z
" style="fill:#2708a0;"/>
   </g>
   <g id="patch_11">
    <path clip-path="url(#pebdc97b002)" d="M 91.755904 171.2 
L 96.331516 171.2 
L 96.331516 76.20846 
L 91.755904 76.20846 
z
" style="fill:#2708a0;"/>
   </g>
   <g id="patch_12">
    <path clip-path="url(#pebdc97b002)" d="M 96.331516 171.2 
L 100.907129 171.2 
L 100.907129 63.607542 
L 96.331516 63.607542 
z
" style="fill:#2708a0;"/>
   </g>
   <g id="patch_13">
    <path clip-path="url(#pebdc97b002)" d="M 100.907129 171.2 
L 105.482741 171.2 
L 105.482741 18.438095 
L 100.907129 18.438095 
z
" style="fill:#2708a0;"/>
   </g>
   <g id="patch_14">
    <path clip-path="url(#pebdc97b002)" d="M 105.482741 171.2 
L 110.058353 171.2 
L 110.058353 81.248828 
L 105.482741 81.248828 
z
" style="fill:#2708a0;"/>
   </g>
   <g id="patch_15">
    <path clip-path="url(#pebdc97b002)" d="M 110.058353 171.2 
L 114.633966 171.2 
L 114.633966 83.962872 
L 110.058353 83.962872 
z
" style="fill:#2708a0;"/>
   </g>
   <g id="patch_16">
    <path clip-path="url(#pebdc97b002)" d="M 114.633966 171.2 
L 119.209578 171.2 
L 119.209578 83.187431 
L 114.633966 83.187431 
z
" style="fill:#2708a0;"/>
   </g>
   <g id="patch_17">
    <path clip-path="url(#pebdc97b002)" d="M 119.209578 171.2 
L 123.785191 171.2 
L 123.785191 94.043606 
L 119.209578 94.043606 
z
" style="fill:#2708a0;"/>
   </g>
   <g id="patch_18">
    <path clip-path="url(#pebdc97b002)" d="M 123.785191 171.2 
L 128.360803 171.2 
L 128.360803 88.227798 
L 123.785191 88.227798 
z
" style="fill:#2708a0;"/>
   </g>
   <g id="patch_19">
    <path clip-path="url(#pebdc97b002)" d="M 128.360803 171.2 
L 132.936416 171.2 
L 132.936416 91.717283 
L 128.360803 91.717283 
z
" style="fill:#2708a0;"/>
   </g>
   <g id="patch_20">
    <path clip-path="url(#pebdc97b002)" d="M 132.936416 171.2 
L 137.512028 171.2 
L 137.512028 81.442688 
L 132.936416 81.442688 
z
" style="fill:#2708a0;"/>
   </g>
   <g id="patch_21">
    <path clip-path="url(#pebdc97b002)" d="M 137.512028 171.2 
L 142.087641 171.2 
L 142.087641 80.473387 
L 137.512028 80.473387 
z
" style="fill:#2708a0;"/>
   </g>
   <g id="patch_22">
    <path clip-path="url(#pebdc97b002)" d="M 142.087641 171.2 
L 146.663253 171.2 
L 146.663253 64.964564 
L 142.087641 64.964564 
z
" style="fill:#2708a0;"/>
   </g>
   <g id="patch_23">
    <path clip-path="url(#pebdc97b002)" d="M 146.663253 171.2 
L 151.238865 171.2 
L 151.238865 23.478463 
L 146.663253 23.478463 
z
" style="fill:#2708a0;"/>
   </g>
   <g id="patch_24">
    <path clip-path="url(#pebdc97b002)" d="M 151.238865 171.2 
L 155.814478 171.2 
L 155.814478 79.116365 
L 151.238865 79.116365 
z
" style="fill:#2708a0;"/>
   </g>
   <g id="patch_25">
    <path clip-path="url(#pebdc97b002)" d="M 155.814478 171.2 
L 160.39009 171.2 
L 160.39009 93.849746 
L 155.814478 93.849746 
z
" style="fill:#2708a0;"/>
   </g>
   <g id="patch_26">
    <path clip-path="url(#pebdc97b002)" d="M 160.39009 171.2 
L 164.965703 171.2 
L 164.965703 100.634856 
L 160.39009 100.634856 
z
" style="fill:#2708a0;"/>
   </g>
   <g id="patch_27">
    <path clip-path="url(#pebdc97b002)" d="M 164.965703 171.2 
L 169.541315 171.2 
L 169.541315 101.798018 
L 164.965703 101.798018 
z
" style="fill:#2708a0;"/>
   </g>
   <g id="patch_28">
    <path clip-path="url(#pebdc97b002)" d="M 169.541315 171.2 
L 174.116928 171.2 
L 174.116928 109.164709 
L 169.541315 109.164709 
z
" style="fill:#2708a0;"/>
   </g>
   <g id="patch_29">
    <path clip-path="url(#pebdc97b002)" d="M 174.116928 171.2 
L 178.69254 171.2 
L 178.69254 109.358569 
L 174.116928 109.358569 
z
" style="fill:#2708a0;"/>
   </g>
   <g id="patch_30">
    <path clip-path="url(#pebdc97b002)" d="M 178.69254 171.2 
L 183.268153 171.2 
L 183.268153 118.082282 
L 178.69254 118.082282 
z
" style="fill:#2708a0;"/>
   </g>
   <g id="patch_31">
    <path clip-path="url(#pebdc97b002)" d="M 183.268153 171.2 
L 187.843765 171.2 
L 187.843765 118.276142 
L 183.268153 118.276142 
z
" style="fill:#2708a0;"/>
   </g>
   <g id="patch_32">
    <path clip-path="url(#pebdc97b002)" d="M 187.843765 171.2 
L 192.419378 171.2 
L 192.419378 115.368238 
L 187.843765 115.368238 
z
" style="fill:#2708a0;"/>
   </g>
   <g id="patch_33">
    <path clip-path="url(#pebdc97b002)" d="M 192.419378 171.2 
L 196.99499 171.2 
L 196.99499 94.043606 
L 192.419378 94.043606 
z
" style="fill:#2708a0;"/>
   </g>
   <g id="patch_34">
    <path clip-path="url(#pebdc97b002)" d="M 196.99499 171.2 
L 201.570602 171.2 
L 201.570602 125.448973 
L 196.99499 125.448973 
z
" style="fill:#2708a0;"/>
   </g>
   <g id="patch_35">
    <path clip-path="url(#pebdc97b002)" d="M 201.570602 171.2 
L 206.146215 171.2 
L 206.146215 124.673532 
L 201.570602 124.673532 
z
" style="fill:#2708a0;"/>
   </g>
   <g id="patch_36">
    <path clip-path="url(#pebdc97b002)" d="M 206.146215 171.2 
L 210.721827 171.2 
L 210.721827 132.621803 
L 206.146215 132.621803 
z
" style="fill:#2708a0;"/>
   </g>
   <g id="patch_37">
    <path clip-path="url(#pebdc97b002)" d="M 210.721827 171.2 
L 215.29744 171.2 
L 215.29744 134.172686 
L 210.721827 134.172686 
z
" style="fill:#2708a0;"/>
   </g>
   <g id="patch_38">
    <path clip-path="url(#pebdc97b002)" d="M 215.29744 171.2 
L 219.873052 171.2 
L 219.873052 133.591105 
L 215.29744 133.591105 
z
" style="fill:#2708a0;"/>
   </g>
   <g id="patch_39">
    <path clip-path="url(#pebdc97b002)" d="M 219.873052 171.2 
L 224.448665 171.2 
L 224.448665 131.458642 
L 219.873052 131.458642 
z
" style="fill:#2708a0;"/>
   </g>
   <g id="patch_40">
    <path clip-path="url(#pebdc97b002)" d="M 224.448665 171.2 
L 229.024277 171.2 
L 229.024277 139.213053 
L 224.448665 139.213053 
z
" style="fill:#2708a0;"/>
   </g>
   <g id="patch_41">
    <path clip-path="url(#pebdc97b002)" d="M 229.024277 171.2 
L 233.59989 171.2 
L 233.59989 141.733237 
L 229.024277 141.733237 
z
" style="fill:#2708a0;"/>
   </g>
   <g id="patch_42">
    <path clip-path="url(#pebdc97b002)" d="M 233.59989 171.2 
L 238.175502 171.2 
L 238.175502 134.366546 
L 233.59989 134.366546 
z
" style="fill:#2708a0;"/>
   </g>
   <g id="patch_43">
    <path clip-path="url(#pebdc97b002)" d="M 238.175502 171.2 
L 242.751114 171.2 
L 242.751114 116.5314 
L 238.175502 116.5314 
z
" style="fill:#2708a0;"/>
   </g>
   <g id="patch_44">
    <path clip-path="url(#pebdc97b002)" d="M 242.751114 171.2 
L 247.326727 171.2 
L 247.326727 139.794634 
L 242.751114 139.794634 
z
" style="fill:#2708a0;"/>
   </g>
   <g id="patch_45">
    <path clip-path="url(#pebdc97b002)" d="M 247.326727 171.2 
L 251.902339 171.2 
L 251.902339 146.385883 
L 247.326727 146.385883 
z
" style="fill:#2708a0;"/>
   </g>
   <g id="patch_46">
    <path clip-path="url(#pebdc97b002)" d="M 251.902339 171.2 
L 256.477952 171.2 
L 256.477952 143.284119 
L 251.902339 143.284119 
z
" style="fill:#2708a0;"/>
   </g>
   <g id="patch_47">
    <path clip-path="url(#pebdc97b002)" d="M 256.477952 171.2 
L 261.053564 171.2 
L 261.053564 148.518347 
L 256.477952 148.518347 
z
" style="fill:#2708a0;"/>
   </g>
   <g id="patch_48">
    <path clip-path="url(#pebdc97b002)" d="M 261.053564 171.2 
L 265.629177 171.2 
L 265.629177 149.099927 
L 261.053564 149.099927 
z
" style="fill:#2708a0;"/>
   </g>
   <g id="patch_49">
    <path clip-path="url(#pebdc97b002)" d="M 265.629177 171.2 
L 270.204789 171.2 
L 270.204789 146.385883 
L 265.629177 146.385883 
z
" style="fill:#2708a0;"/>
   </g>
   <g id="patch_50">
    <path clip-path="url(#pebdc97b002)" d="M 270.204789 171.2 
L 274.780402 171.2 
L 274.780402 150.263089 
L 270.204789 150.263089 
z
" style="fill:#2708a0;"/>
   </g>
   <g id="patch_51">
    <path clip-path="url(#pebdc97b002)" d="M 274.780402 171.2 
L 279.356014 171.2 
L 279.356014 146.967464 
L 274.780402 146.967464 
z
" style="fill:#2708a0;"/>
   </g>
   <g id="patch_52">
    <path clip-path="url(#pebdc97b002)" d="M 279.356014 171.2 
L 283.931627 171.2 
L 283.931627 150.069229 
L 279.356014 150.069229 
z
" style="fill:#2708a0;"/>
   </g>
   <g id="patch_53">
    <path clip-path="url(#pebdc97b002)" d="M 283.931627 171.2 
L 288.507239 171.2 
L 288.507239 138.825332 
L 283.931627 138.825332 
z
" style="fill:#2708a0;"/>
   </g>
   <g id="patch_54">
    <path clip-path="url(#pebdc97b002)" d="M 288.507239 171.2 
L 293.082851 171.2 
L 293.082851 148.712207 
L 288.507239 148.712207 
z
" style="fill:#2708a0;"/>
   </g>
   <g id="patch_55">
    <path clip-path="url(#pebdc97b002)" d="M 293.082851 171.2 
L 297.658464 171.2 
L 297.658464 155.691177 
L 293.082851 155.691177 
z
" style="fill:#2708a0;"/>
   </g>
   <g id="patch_56">
    <path clip-path="url(#pebdc97b002)" d="M 297.658464 171.2 
L 302.234076 171.2 
L 302.234076 153.946435 
L 297.658464 153.946435 
z
" style="fill:#2708a0;"/>
   </g>
   <g id="patch_57">
    <path clip-path="url(#pebdc97b002)" d="M 302.234076 171.2 
L 306.809689 171.2 
L 306.809689 155.497317 
L 302.234076 155.497317 
z
" style="fill:#2708a0;"/>
   </g>
   <g id="patch_58">
    <path clip-path="url(#pebdc97b002)" d="M 306.809689 171.2 
L 311.385301 171.2 
L 311.385301 153.946435 
L 306.809689 153.946435 
z
" style="fill:#2708a0;"/>
   </g>
   <g id="patch_59">
    <path clip-path="url(#pebdc97b002)" d="M 311.385301 171.2 
L 315.960914 171.2 
L 315.960914 151.620111 
L 311.385301 151.620111 
z
" style="fill:#2708a0;"/>
   </g>
   <g id="patch_60">
    <path clip-path="url(#pebdc97b002)" d="M 315.960914 171.2 
L 320.536526 171.2 
L 320.536526 157.242059 
L 315.960914 157.242059 
z
" style="fill:#2708a0;"/>
   </g>
   <g id="patch_61">
    <path clip-path="url(#pebdc97b002)" d="M 320.536526 171.2 
L 325.112139 171.2 
L 325.112139 158.599081 
L 320.536526 158.599081 
z
" style="fill:#2708a0;"/>
   </g>
   <g id="patch_62">
    <path clip-path="url(#pebdc97b002)" d="M 325.112139 171.2 
L 329.687751 171.2 
L 329.687751 158.211361 
L 325.112139 158.211361 
z
" style="fill:#2708a0;"/>
   </g>
   <g id="patch_63">
    <path clip-path="url(#pebdc97b002)" d="M 329.687751 171.2 
L 334.263363 171.2 
L 334.263363 152.977133 
L 329.687751 152.977133 
z
" style="fill:#2708a0;"/>
   </g>
   <g id="patch_64">
    <path clip-path="url(#pebdc97b002)" d="M 334.263363 171.2 
L 338.838976 171.2 
L 338.838976 156.272758 
L 334.263363 156.272758 
z
" style="fill:#2708a0;"/>
   </g>
   <g id="patch_65">
    <path clip-path="url(#pebdc97b002)" d="M 338.838976 171.2 
L 343.414588 171.2 
L 343.414588 157.62978 
L 338.838976 157.62978 
z
" style="fill:#2708a0;"/>
   </g>
   <g id="patch_66">
    <path clip-path="url(#pebdc97b002)" d="M 343.414588 171.2 
L 347.990201 171.2 
L 347.990201 156.078898 
L 343.414588 156.078898 
z
" style="fill:#2708a0;"/>
   </g>
   <g id="patch_67">
    <path clip-path="url(#pebdc97b002)" d="M 347.990201 171.2 
L 352.565813 171.2 
L 352.565813 159.762243 
L 347.990201 159.762243 
z
" style="fill:#2708a0;"/>
   </g>
   <g id="patch_68">
    <path clip-path="url(#pebdc97b002)" d="M 352.565813 171.2 
L 357.141426 171.2 
L 357.141426 161.119265 
L 352.565813 161.119265 
z
" style="fill:#2708a0;"/>
   </g>
   <g id="patch_69">
    <path clip-path="url(#pebdc97b002)" d="M 357.141426 171.2 
L 361.717038 171.2 
L 361.717038 159.568383 
L 357.141426 159.568383 
z
" style="fill:#2708a0;"/>
   </g>
   <g id="patch_70">
    <path clip-path="url(#pebdc97b002)" d="M 361.717038 171.2 
L 366.292651 171.2 
L 366.292651 160.925405 
L 361.717038 160.925405 
z
" style="fill:#2708a0;"/>
   </g>
   <g id="patch_71">
    <path clip-path="url(#pebdc97b002)" d="M 366.292651 171.2 
L 370.868263 171.2 
L 370.868263 162.282427 
L 366.292651 162.282427 
z
" style="fill:#2708a0;"/>
   </g>
   <g id="patch_72">
    <path clip-path="url(#pebdc97b002)" d="M 370.868263 171.2 
L 375.443876 171.2 
L 375.443876 161.119265 
L 370.868263 161.119265 
z
" style="fill:#2708a0;"/>
   </g>
   <g id="patch_73">
    <path clip-path="url(#pebdc97b002)" d="M 375.443876 171.2 
L 380.019488 171.2 
L 380.019488 160.149964 
L 375.443876 160.149964 
z
" style="fill:#2708a0;"/>
   </g>
   <g id="patch_74">
    <path clip-path="url(#pebdc97b002)" d="M 380.019488 171.2 
L 384.5951 171.2 
L 384.5951 158.405221 
L 380.019488 158.405221 
z
" style="fill:#2708a0;"/>
   </g>
   <g id="patch_75">
    <path clip-path="url(#pebdc97b002)" d="M 384.5951 171.2 
L 389.170713 171.2 
L 389.170713 161.894706 
L 384.5951 161.894706 
z
" style="fill:#2708a0;"/>
   </g>
   <g id="patch_76">
    <path clip-path="url(#pebdc97b002)" d="M 389.170713 171.2 
L 393.746325 171.2 
L 393.746325 161.894706 
L 389.170713 161.894706 
z
" style="fill:#2708a0;"/>
   </g>
   <g id="patch_77">
    <path clip-path="url(#pebdc97b002)" d="M 393.746325 171.2 
L 398.321938 171.2 
L 398.321938 164.41489 
L 393.746325 164.41489 
z
" style="fill:#2708a0;"/>
   </g>
   <g id="patch_78">
    <path clip-path="url(#pebdc97b002)" d="M 398.321938 171.2 
L 402.89755 171.2 
L 402.89755 165.384191 
L 398.321938 165.384191 
z
" style="fill:#2708a0;"/>
   </g>
   <g id="patch_79">
    <path clip-path="url(#pebdc97b002)" d="M 402.89755 171.2 
L 407.473163 171.2 
L 407.473163 162.864008 
L 402.89755 162.864008 
z
" style="fill:#2708a0;"/>
   </g>
   <g id="patch_80">
    <path clip-path="url(#pebdc97b002)" d="M 407.473163 171.2 
L 412.048775 171.2 
L 412.048775 165.190331 
L 407.473163 165.190331 
z
" style="fill:#2708a0;"/>
   </g>
   <g id="patch_81">
    <path clip-path="url(#pebdc97b002)" d="M 412.048775 171.2 
L 416.624388 171.2 
L 416.624388 165.190331 
L 412.048775 165.190331 
z
" style="fill:#2708a0;"/>
   </g>
   <g id="patch_82">
    <path clip-path="url(#pebdc97b002)" d="M 416.624388 171.2 
L 421.2 171.2 
L 421.2 161.119265 
L 416.624388 161.119265 
z
" style="fill:#2708a0;"/>
   </g>
   <g id="matplotlib.axis_1">
    <g id="xtick_1">
     <g id="line2d_1">
      <defs>
       <path d="M 0 0 
L 0 3.5 
" id="m93bbc4046c" style="stroke:#000000;stroke-width:0.8;"/>
      </defs>
      <g>
       <use style="stroke:#000000;stroke-width:0.8;" x="53.675" xlink:href="#m93bbc4046c" y="171.2"/>
      </g>
     </g>
     <g id="text_1">
      <!-- 0 -->
      <defs>
       <path d="M 31.78125 66.40625 
Q 24.171875 66.40625 20.328125 58.90625 
Q 16.5 51.421875 16.5 36.375 
Q 16.5 21.390625 20.328125 13.890625 
Q 24.171875 6.390625 31.78125 6.390625 
Q 39.453125 6.390625 43.28125 13.890625 
Q 47.125 21.390625 47.125 36.375 
Q 47.125 51.421875 43.28125 58.90625 
Q 39.453125 66.40625 31.78125 66.40625 
z
M 31.78125 74.21875 
Q 44.046875 74.21875 50.515625 64.515625 
Q 56.984375 54.828125 56.984375 36.375 
Q 56.984375 17.96875 50.515625 8.265625 
Q 44.046875 -1.421875 31.78125 -1.421875 
Q 19.53125 -1.421875 13.0625 8.265625 
Q 6.59375 17.96875 6.59375 36.375 
Q 6.59375 54.828125 13.0625 64.515625 
Q 19.53125 74.21875 31.78125 74.21875 
z
" id="DejaVuSans-48"/>
      </defs>
      <g transform="translate(50.49375 185.798437)scale(0.1 -0.1)">
       <use xlink:href="#DejaVuSans-48"/>
      </g>
     </g>
    </g>
    <g id="xtick_2">
     <g id="line2d_2">
      <g>
       <use style="stroke:#000000;stroke-width:0.8;" x="100.907129" xlink:href="#m93bbc4046c" y="171.2"/>
      </g>
     </g>
     <g id="text_2">
      <!-- 32 -->
      <defs>
       <path d="M 40.578125 39.3125 
Q 47.65625 37.796875 51.625 33 
Q 55.609375 28.21875 55.609375 21.1875 
Q 55.609375 10.40625 48.1875 4.484375 
Q 40.765625 -1.421875 27.09375 -1.421875 
Q 22.515625 -1.421875 17.65625 -0.515625 
Q 12.796875 0.390625 7.625 2.203125 
L 7.625 11.71875 
Q 11.71875 9.328125 16.59375 8.109375 
Q 21.484375 6.890625 26.8125 6.890625 
Q 36.078125 6.890625 40.9375 10.546875 
Q 45.796875 14.203125 45.796875 21.1875 
Q 45.796875 27.640625 41.28125 31.265625 
Q 36.765625 34.90625 28.71875 34.90625 
L 20.21875 34.90625 
L 20.21875 43.015625 
L 29.109375 43.015625 
Q 36.375 43.015625 40.234375 45.921875 
Q 44.09375 48.828125 44.09375 54.296875 
Q 44.09375 59.90625 40.109375 62.90625 
Q 36.140625 65.921875 28.71875 65.921875 
Q 24.65625 65.921875 20.015625 65.03125 
Q 15.375 64.15625 9.8125 62.3125 
L 9.8125 71.09375 
Q 15.4375 72.65625 20.34375 73.4375 
Q 25.25 74.21875 29.59375 74.21875 
Q 40.828125 74.21875 47.359375 69.109375 
Q 53.90625 64.015625 53.90625 55.328125 
Q 53.90625 49.265625 50.4375 45.09375 
Q 46.96875 40.921875 40.578125 39.3125 
z
" id="DejaVuSans-51"/>
       <path d="M 19.1875 8.296875 
L 53.609375 8.296875 
L 53.609375 0 
L 7.328125 0 
L 7.328125 8.296875 
Q 12.9375 14.109375 22.625 23.890625 
Q 32.328125 33.6875 34.8125 36.53125 
Q 39.546875 41.84375 41.421875 45.53125 
Q 43.3125 49.21875 43.3125 52.78125 
Q 43.3125 58.59375 39.234375 62.25 
Q 35.15625 65.921875 28.609375 65.921875 
Q 23.96875 65.921875 18.8125 64.3125 
Q 13.671875 62.703125 7.8125 59.421875 
L 7.8125 69.390625 
Q 13.765625 71.78125 18.9375 73 
Q 24.125 74.21875 28.421875 74.21875 
Q 39.75 74.21875 46.484375 68.546875 
Q 53.21875 62.890625 53.21875 53.421875 
Q 53.21875 48.921875 51.53125 44.890625 
Q 49.859375 40.875 45.40625 35.40625 
Q 44.1875 33.984375 37.640625 27.21875 
Q 31.109375 20.453125 19.1875 8.296875 
z
" id="DejaVuSans-50"/>
      </defs>
      <g transform="translate(94.544629 185.798437)scale(0.1 -0.1)">
       <use xlink:href="#DejaVuSans-51"/>
       <use x="63.623047" xlink:href="#DejaVuSans-50"/>
      </g>
     </g>
    </g>
    <g id="xtick_3">
     <g id="line2d_3">
      <g>
       <use style="stroke:#000000;stroke-width:0.8;" x="148.139257" xlink:href="#m93bbc4046c" y="171.2"/>
      </g>
     </g>
     <g id="text_3">
      <!-- 64 -->
      <defs>
       <path d="M 33.015625 40.375 
Q 26.375 40.375 22.484375 35.828125 
Q 18.609375 31.296875 18.609375 23.390625 
Q 18.609375 15.53125 22.484375 10.953125 
Q 26.375 6.390625 33.015625 6.390625 
Q 39.65625 6.390625 43.53125 10.953125 
Q 47.40625 15.53125 47.40625 23.390625 
Q 47.40625 31.296875 43.53125 35.828125 
Q 39.65625 40.375 33.015625 40.375 
z
M 52.59375 71.296875 
L 52.59375 62.3125 
Q 48.875 64.0625 45.09375 64.984375 
Q 41.3125 65.921875 37.59375 65.921875 
Q 27.828125 65.921875 22.671875 59.328125 
Q 17.53125 52.734375 16.796875 39.40625 
Q 19.671875 43.65625 24.015625 45.921875 
Q 28.375 48.1875 33.59375 48.1875 
Q 44.578125 48.1875 50.953125 41.515625 
Q 57.328125 34.859375 57.328125 23.390625 
Q 57.328125 12.15625 50.6875 5.359375 
Q 44.046875 -1.421875 33.015625 -1.421875 
Q 20.359375 -1.421875 13.671875 8.265625 
Q 6.984375 17.96875 6.984375 36.375 
Q 6.984375 53.65625 15.1875 63.9375 
Q 23.390625 74.21875 37.203125 74.21875 
Q 40.921875 74.21875 44.703125 73.484375 
Q 48.484375 72.75 52.59375 71.296875 
z
" id="DejaVuSans-54"/>
       <path d="M 37.796875 64.3125 
L 12.890625 25.390625 
L 37.796875 25.390625 
z
M 35.203125 72.90625 
L 47.609375 72.90625 
L 47.609375 25.390625 
L 58.015625 25.390625 
L 58.015625 17.1875 
L 47.609375 17.1875 
L 47.609375 0 
L 37.796875 0 
L 37.796875 17.1875 
L 4.890625 17.1875 
L 4.890625 26.703125 
z
" id="DejaVuSans-52"/>
      </defs>
      <g transform="translate(141.776757 185.798437)scale(0.1 -0.1)">
       <use xlink:href="#DejaVuSans-54"/>
       <use x="63.623047" xlink:href="#DejaVuSans-52"/>
      </g>
     </g>
    </g>
    <g id="xtick_4">
     <g id="line2d_4">
      <g>
       <use style="stroke:#000000;stroke-width:0.8;" x="195.371386" xlink:href="#m93bbc4046c" y="171.2"/>
      </g>
     </g>
     <g id="text_4">
      <!-- 96 -->
      <defs>
       <path d="M 10.984375 1.515625 
L 10.984375 10.5 
Q 14.703125 8.734375 18.5 7.8125 
Q 22.3125 6.890625 25.984375 6.890625 
Q 35.75 6.890625 40.890625 13.453125 
Q 46.046875 20.015625 46.78125 33.40625 
Q 43.953125 29.203125 39.59375 26.953125 
Q 35.25 24.703125 29.984375 24.703125 
Q 19.046875 24.703125 12.671875 31.3125 
Q 6.296875 37.9375 6.296875 49.421875 
Q 6.296875 60.640625 12.9375 67.421875 
Q 19.578125 74.21875 30.609375 74.21875 
Q 43.265625 74.21875 49.921875 64.515625 
Q 56.59375 54.828125 56.59375 36.375 
Q 56.59375 19.140625 48.40625 8.859375 
Q 40.234375 -1.421875 26.421875 -1.421875 
Q 22.703125 -1.421875 18.890625 -0.6875 
Q 15.09375 0.046875 10.984375 1.515625 
z
M 30.609375 32.421875 
Q 37.25 32.421875 41.125 36.953125 
Q 45.015625 41.5 45.015625 49.421875 
Q 45.015625 57.28125 41.125 61.84375 
Q 37.25 66.40625 30.609375 66.40625 
Q 23.96875 66.40625 20.09375 61.84375 
Q 16.21875 57.28125 16.21875 49.421875 
Q 16.21875 41.5 20.09375 36.953125 
Q 23.96875 32.421875 30.609375 32.421875 
z
" id="DejaVuSans-57"/>
      </defs>
      <g transform="translate(189.008886 185.798437)scale(0.1 -0.1)">
       <use xlink:href="#DejaVuSans-57"/>
       <use x="63.623047" xlink:href="#DejaVuSans-54"/>
      </g>
     </g>
    </g>
    <g id="xtick_5">
     <g id="line2d_5">
      <g>
       <use style="stroke:#000000;stroke-width:0.8;" x="242.603514" xlink:href="#m93bbc4046c" y="171.2"/>
      </g>
     </g>
     <g id="text_5">
      <!-- 128 -->
      <defs>
       <path d="M 12.40625 8.296875 
L 28.515625 8.296875 
L 28.515625 63.921875 
L 10.984375 60.40625 
L 10.984375 69.390625 
L 28.421875 72.90625 
L 38.28125 72.90625 
L 38.28125 8.296875 
L 54.390625 8.296875 
L 54.390625 0 
L 12.40625 0 
z
" id="DejaVuSans-49"/>
       <path d="M 31.78125 34.625 
Q 24.75 34.625 20.71875 30.859375 
Q 16.703125 27.09375 16.703125 20.515625 
Q 16.703125 13.921875 20.71875 10.15625 
Q 24.75 6.390625 31.78125 6.390625 
Q 38.8125 6.390625 42.859375 10.171875 
Q 46.921875 13.96875 46.921875 20.515625 
Q 46.921875 27.09375 42.890625 30.859375 
Q 38.875 34.625 31.78125 34.625 
z
M 21.921875 38.8125 
Q 15.578125 40.375 12.03125 44.71875 
Q 8.5 49.078125 8.5 55.328125 
Q 8.5 64.0625 14.71875 69.140625 
Q 20.953125 74.21875 31.78125 74.21875 
Q 42.671875 74.21875 48.875 69.140625 
Q 55.078125 64.0625 55.078125 55.328125 
Q 55.078125 49.078125 51.53125 44.71875 
Q 48 40.375 41.703125 38.8125 
Q 48.828125 37.15625 52.796875 32.3125 
Q 56.78125 27.484375 56.78125 20.515625 
Q 56.78125 9.90625 50.3125 4.234375 
Q 43.84375 -1.421875 31.78125 -1.421875 
Q 19.734375 -1.421875 13.25 4.234375 
Q 6.78125 9.90625 6.78125 20.515625 
Q 6.78125 27.484375 10.78125 32.3125 
Q 14.796875 37.15625 21.921875 38.8125 
z
M 18.3125 54.390625 
Q 18.3125 48.734375 21.84375 45.5625 
Q 25.390625 42.390625 31.78125 42.390625 
Q 38.140625 42.390625 41.71875 45.5625 
Q 45.3125 48.734375 45.3125 54.390625 
Q 45.3125 60.0625 41.71875 63.234375 
Q 38.140625 66.40625 31.78125 66.40625 
Q 25.390625 66.40625 21.84375 63.234375 
Q 18.3125 60.0625 18.3125 54.390625 
z
" id="DejaVuSans-56"/>
      </defs>
      <g transform="translate(233.059764 185.798437)scale(0.1 -0.1)">
       <use xlink:href="#DejaVuSans-49"/>
       <use x="63.623047" xlink:href="#DejaVuSans-50"/>
       <use x="127.246094" xlink:href="#DejaVuSans-56"/>
      </g>
     </g>
    </g>
    <g id="xtick_6">
     <g id="line2d_6">
      <g>
       <use style="stroke:#000000;stroke-width:0.8;" x="289.835643" xlink:href="#m93bbc4046c" y="171.2"/>
      </g>
     </g>
     <g id="text_6">
      <!-- 160 -->
      <g transform="translate(280.291893 185.798437)scale(0.1 -0.1)">
       <use xlink:href="#DejaVuSans-49"/>
       <use x="63.623047" xlink:href="#DejaVuSans-54"/>
       <use x="127.246094" xlink:href="#DejaVuSans-48"/>
      </g>
     </g>
    </g>
    <g id="xtick_7">
     <g id="line2d_7">
      <g>
       <use style="stroke:#000000;stroke-width:0.8;" x="337.067771" xlink:href="#m93bbc4046c" y="171.2"/>
      </g>
     </g>
     <g id="text_7">
      <!-- 192 -->
      <g transform="translate(327.524021 185.798437)scale(0.1 -0.1)">
       <use xlink:href="#DejaVuSans-49"/>
       <use x="63.623047" xlink:href="#DejaVuSans-57"/>
       <use x="127.246094" xlink:href="#DejaVuSans-50"/>
      </g>
     </g>
    </g>
    <g id="xtick_8">
     <g id="line2d_8">
      <g>
       <use style="stroke:#000000;stroke-width:0.8;" x="384.2999" xlink:href="#m93bbc4046c" y="171.2"/>
      </g>
     </g>
     <g id="text_8">
      <!-- 224 -->
      <g transform="translate(374.75615 185.798437)scale(0.1 -0.1)">
       <use xlink:href="#DejaVuSans-50"/>
       <use x="63.623047" xlink:href="#DejaVuSans-50"/>
       <use x="127.246094" xlink:href="#DejaVuSans-52"/>
      </g>
     </g>
    </g>
    <g id="text_9">
     <!-- The number of beats in the transition -->
     <defs>
      <path d="M -0.296875 72.90625 
L 61.375 72.90625 
L 61.375 64.59375 
L 35.5 64.59375 
L 35.5 0 
L 25.59375 0 
L 25.59375 64.59375 
L -0.296875 64.59375 
z
" id="DejaVuSans-84"/>
      <path d="M 54.890625 33.015625 
L 54.890625 0 
L 45.90625 0 
L 45.90625 32.71875 
Q 45.90625 40.484375 42.875 44.328125 
Q 39.84375 48.1875 33.796875 48.1875 
Q 26.515625 48.1875 22.3125 43.546875 
Q 18.109375 38.921875 18.109375 30.90625 
L 18.109375 0 
L 9.078125 0 
L 9.078125 75.984375 
L 18.109375 75.984375 
L 18.109375 46.1875 
Q 21.34375 51.125 25.703125 53.5625 
Q 30.078125 56 35.796875 56 
Q 45.21875 56 50.046875 50.171875 
Q 54.890625 44.34375 54.890625 33.015625 
z
" id="DejaVuSans-104"/>
      <path d="M 56.203125 29.59375 
L 56.203125 25.203125 
L 14.890625 25.203125 
Q 15.484375 15.921875 20.484375 11.0625 
Q 25.484375 6.203125 34.421875 6.203125 
Q 39.59375 6.203125 44.453125 7.46875 
Q 49.3125 8.734375 54.109375 11.28125 
L 54.109375 2.78125 
Q 49.265625 0.734375 44.1875 -0.34375 
Q 39.109375 -1.421875 33.890625 -1.421875 
Q 20.796875 -1.421875 13.15625 6.1875 
Q 5.515625 13.8125 5.515625 26.8125 
Q 5.515625 40.234375 12.765625 48.109375 
Q 20.015625 56 32.328125 56 
Q 43.359375 56 49.78125 48.890625 
Q 56.203125 41.796875 56.203125 29.59375 
z
M 47.21875 32.234375 
Q 47.125 39.59375 43.09375 43.984375 
Q 39.0625 48.390625 32.421875 48.390625 
Q 24.90625 48.390625 20.390625 44.140625 
Q 15.875 39.890625 15.1875 32.171875 
z
" id="DejaVuSans-101"/>
      <path id="DejaVuSans-32"/>
      <path d="M 54.890625 33.015625 
L 54.890625 0 
L 45.90625 0 
L 45.90625 32.71875 
Q 45.90625 40.484375 42.875 44.328125 
Q 39.84375 48.1875 33.796875 48.1875 
Q 26.515625 48.1875 22.3125 43.546875 
Q 18.109375 38.921875 18.109375 30.90625 
L 18.109375 0 
L 9.078125 0 
L 9.078125 54.6875 
L 18.109375 54.6875 
L 18.109375 46.1875 
Q 21.34375 51.125 25.703125 53.5625 
Q 30.078125 56 35.796875 56 
Q 45.21875 56 50.046875 50.171875 
Q 54.890625 44.34375 54.890625 33.015625 
z
" id="DejaVuSans-110"/>
      <path d="M 8.5 21.578125 
L 8.5 54.6875 
L 17.484375 54.6875 
L 17.484375 21.921875 
Q 17.484375 14.15625 20.5 10.265625 
Q 23.53125 6.390625 29.59375 6.390625 
Q 36.859375 6.390625 41.078125 11.03125 
Q 45.3125 15.671875 45.3125 23.6875 
L 45.3125 54.6875 
L 54.296875 54.6875 
L 54.296875 0 
L 45.3125 0 
L 45.3125 8.40625 
Q 42.046875 3.421875 37.71875 1 
Q 33.40625 -1.421875 27.6875 -1.421875 
Q 18.265625 -1.421875 13.375 4.4375 
Q 8.5 10.296875 8.5 21.578125 
z
M 31.109375 56 
z
" id="DejaVuSans-117"/>
      <path d="M 52 44.1875 
Q 55.375 50.25 60.0625 53.125 
Q 64.75 56 71.09375 56 
Q 79.640625 56 84.28125 50.015625 
Q 88.921875 44.046875 88.921875 33.015625 
L 88.921875 0 
L 79.890625 0 
L 79.890625 32.71875 
Q 79.890625 40.578125 77.09375 44.375 
Q 74.3125 48.1875 68.609375 48.1875 
Q 61.625 48.1875 57.5625 43.546875 
Q 53.515625 38.921875 53.515625 30.90625 
L 53.515625 0 
L 44.484375 0 
L 44.484375 32.71875 
Q 44.484375 40.625 41.703125 44.40625 
Q 38.921875 48.1875 33.109375 48.1875 
Q 26.21875 48.1875 22.15625 43.53125 
Q 18.109375 38.875 18.109375 30.90625 
L 18.109375 0 
L 9.078125 0 
L 9.078125 54.6875 
L 18.109375 54.6875 
L 18.109375 46.1875 
Q 21.1875 51.21875 25.484375 53.609375 
Q 29.78125 56 35.6875 56 
Q 41.65625 56 45.828125 52.96875 
Q 50 49.953125 52 44.1875 
z
" id="DejaVuSans-109"/>
      <path d="M 48.6875 27.296875 
Q 48.6875 37.203125 44.609375 42.84375 
Q 40.53125 48.484375 33.40625 48.484375 
Q 26.265625 48.484375 22.1875 42.84375 
Q 18.109375 37.203125 18.109375 27.296875 
Q 18.109375 17.390625 22.1875 11.75 
Q 26.265625 6.109375 33.40625 6.109375 
Q 40.53125 6.109375 44.609375 11.75 
Q 48.6875 17.390625 48.6875 27.296875 
z
M 18.109375 46.390625 
Q 20.953125 51.265625 25.265625 53.625 
Q 29.59375 56 35.59375 56 
Q 45.5625 56 51.78125 48.09375 
Q 58.015625 40.1875 58.015625 27.296875 
Q 58.015625 14.40625 51.78125 6.484375 
Q 45.5625 -1.421875 35.59375 -1.421875 
Q 29.59375 -1.421875 25.265625 0.953125 
Q 20.953125 3.328125 18.109375 8.203125 
L 18.109375 0 
L 9.078125 0 
L 9.078125 75.984375 
L 18.109375 75.984375 
z
" id="DejaVuSans-98"/>
      <path d="M 41.109375 46.296875 
Q 39.59375 47.171875 37.8125 47.578125 
Q 36.03125 48 33.890625 48 
Q 26.265625 48 22.1875 43.046875 
Q 18.109375 38.09375 18.109375 28.8125 
L 18.109375 0 
L 9.078125 0 
L 9.078125 54.6875 
L 18.109375 54.6875 
L 18.109375 46.1875 
Q 20.953125 51.171875 25.484375 53.578125 
Q 30.03125 56 36.53125 56 
Q 37.453125 56 38.578125 55.875 
Q 39.703125 55.765625 41.0625 55.515625 
z
" id="DejaVuSans-114"/>
      <path d="M 30.609375 48.390625 
Q 23.390625 48.390625 19.1875 42.75 
Q 14.984375 37.109375 14.984375 27.296875 
Q 14.984375 17.484375 19.15625 11.84375 
Q 23.34375 6.203125 30.609375 6.203125 
Q 37.796875 6.203125 41.984375 11.859375 
Q 46.1875 17.53125 46.1875 27.296875 
Q 46.1875 37.015625 41.984375 42.703125 
Q 37.796875 48.390625 30.609375 48.390625 
z
M 30.609375 56 
Q 42.328125 56 49.015625 48.375 
Q 55.71875 40.765625 55.71875 27.296875 
Q 55.71875 13.875 49.015625 6.21875 
Q 42.328125 -1.421875 30.609375 -1.421875 
Q 18.84375 -1.421875 12.171875 6.21875 
Q 5.515625 13.875 5.515625 27.296875 
Q 5.515625 40.765625 12.171875 48.375 
Q 18.84375 56 30.609375 56 
z
" id="DejaVuSans-111"/>
      <path d="M 37.109375 75.984375 
L 37.109375 68.5 
L 28.515625 68.5 
Q 23.6875 68.5 21.796875 66.546875 
Q 19.921875 64.59375 19.921875 59.515625 
L 19.921875 54.6875 
L 34.71875 54.6875 
L 34.71875 47.703125 
L 19.921875 47.703125 
L 19.921875 0 
L 10.890625 0 
L 10.890625 47.703125 
L 2.296875 47.703125 
L 2.296875 54.6875 
L 10.890625 54.6875 
L 10.890625 58.5 
Q 10.890625 67.625 15.140625 71.796875 
Q 19.390625 75.984375 28.609375 75.984375 
z
" id="DejaVuSans-102"/>
      <path d="M 34.28125 27.484375 
Q 23.390625 27.484375 19.1875 25 
Q 14.984375 22.515625 14.984375 16.5 
Q 14.984375 11.71875 18.140625 8.90625 
Q 21.296875 6.109375 26.703125 6.109375 
Q 34.1875 6.109375 38.703125 11.40625 
Q 43.21875 16.703125 43.21875 25.484375 
L 43.21875 27.484375 
z
M 52.203125 31.203125 
L 52.203125 0 
L 43.21875 0 
L 43.21875 8.296875 
Q 40.140625 3.328125 35.546875 0.953125 
Q 30.953125 -1.421875 24.3125 -1.421875 
Q 15.921875 -1.421875 10.953125 3.296875 
Q 6 8.015625 6 15.921875 
Q 6 25.140625 12.171875 29.828125 
Q 18.359375 34.515625 30.609375 34.515625 
L 43.21875 34.515625 
L 43.21875 35.40625 
Q 43.21875 41.609375 39.140625 45 
Q 35.0625 48.390625 27.6875 48.390625 
Q 23 48.390625 18.546875 47.265625 
Q 14.109375 46.140625 10.015625 43.890625 
L 10.015625 52.203125 
Q 14.9375 54.109375 19.578125 55.046875 
Q 24.21875 56 28.609375 56 
Q 40.484375 56 46.34375 49.84375 
Q 52.203125 43.703125 52.203125 31.203125 
z
" id="DejaVuSans-97"/>
      <path d="M 18.3125 70.21875 
L 18.3125 54.6875 
L 36.8125 54.6875 
L 36.8125 47.703125 
L 18.3125 47.703125 
L 18.3125 18.015625 
Q 18.3125 11.328125 20.140625 9.421875 
Q 21.96875 7.515625 27.59375 7.515625 
L 36.8125 7.515625 
L 36.8125 0 
L 27.59375 0 
Q 17.1875 0 13.234375 3.875 
Q 9.28125 7.765625 9.28125 18.015625 
L 9.28125 47.703125 
L 2.6875 47.703125 
L 2.6875 54.6875 
L 9.28125 54.6875 
L 9.28125 70.21875 
z
" id="DejaVuSans-116"/>
      <path d="M 44.28125 53.078125 
L 44.28125 44.578125 
Q 40.484375 46.53125 36.375 47.5 
Q 32.28125 48.484375 27.875 48.484375 
Q 21.1875 48.484375 17.84375 46.4375 
Q 14.5 44.390625 14.5 40.28125 
Q 14.5 37.15625 16.890625 35.375 
Q 19.28125 33.59375 26.515625 31.984375 
L 29.59375 31.296875 
Q 39.15625 29.25 43.1875 25.515625 
Q 47.21875 21.78125 47.21875 15.09375 
Q 47.21875 7.46875 41.1875 3.015625 
Q 35.15625 -1.421875 24.609375 -1.421875 
Q 20.21875 -1.421875 15.453125 -0.5625 
Q 10.6875 0.296875 5.421875 2 
L 5.421875 11.28125 
Q 10.40625 8.6875 15.234375 7.390625 
Q 20.0625 6.109375 24.8125 6.109375 
Q 31.15625 6.109375 34.5625 8.28125 
Q 37.984375 10.453125 37.984375 14.40625 
Q 37.984375 18.0625 35.515625 20.015625 
Q 33.0625 21.96875 24.703125 23.78125 
L 21.578125 24.515625 
Q 13.234375 26.265625 9.515625 29.90625 
Q 5.8125 33.546875 5.8125 39.890625 
Q 5.8125 47.609375 11.28125 51.796875 
Q 16.75 56 26.8125 56 
Q 31.78125 56 36.171875 55.265625 
Q 40.578125 54.546875 44.28125 53.078125 
z
" id="DejaVuSans-115"/>
      <path d="M 9.421875 54.6875 
L 18.40625 54.6875 
L 18.40625 0 
L 9.421875 0 
z
M 9.421875 75.984375 
L 18.40625 75.984375 
L 18.40625 64.59375 
L 9.421875 64.59375 
z
" id="DejaVuSans-105"/>
     </defs>
     <g transform="translate(125.081875 200.99625)scale(0.12 -0.12)">
      <use xlink:href="#DejaVuSans-84"/>
      <use x="61.083984" xlink:href="#DejaVuSans-104"/>
      <use x="124.462891" xlink:href="#DejaVuSans-101"/>
      <use x="185.986328" xlink:href="#DejaVuSans-32"/>
      <use x="217.773438" xlink:href="#DejaVuSans-110"/>
      <use x="281.152344" xlink:href="#DejaVuSans-117"/>
      <use x="344.53125" xlink:href="#DejaVuSans-109"/>
      <use x="441.943359" xlink:href="#DejaVuSans-98"/>
      <use x="505.419922" xlink:href="#DejaVuSans-101"/>
      <use x="566.943359" xlink:href="#DejaVuSans-114"/>
      <use x="608.056641" xlink:href="#DejaVuSans-32"/>
      <use x="639.84375" xlink:href="#DejaVuSans-111"/>
      <use x="701.025391" xlink:href="#DejaVuSans-102"/>
      <use x="736.230469" xlink:href="#DejaVuSans-32"/>
      <use x="768.017578" xlink:href="#DejaVuSans-98"/>
      <use x="831.494141" xlink:href="#DejaVuSans-101"/>
      <use x="893.017578" xlink:href="#DejaVuSans-97"/>
      <use x="954.296875" xlink:href="#DejaVuSans-116"/>
      <use x="993.505859" xlink:href="#DejaVuSans-115"/>
      <use x="1045.605469" xlink:href="#DejaVuSans-32"/>
      <use x="1077.392578" xlink:href="#DejaVuSans-105"/>
      <use x="1105.175781" xlink:href="#DejaVuSans-110"/>
      <use x="1168.554688" xlink:href="#DejaVuSans-32"/>
      <use x="1200.341797" xlink:href="#DejaVuSans-116"/>
      <use x="1239.550781" xlink:href="#DejaVuSans-104"/>
      <use x="1302.929688" xlink:href="#DejaVuSans-101"/>
      <use x="1364.453125" xlink:href="#DejaVuSans-32"/>
      <use x="1396.240234" xlink:href="#DejaVuSans-116"/>
      <use x="1435.449219" xlink:href="#DejaVuSans-114"/>
      <use x="1476.5625" xlink:href="#DejaVuSans-97"/>
      <use x="1537.841797" xlink:href="#DejaVuSans-110"/>
      <use x="1601.220703" xlink:href="#DejaVuSans-115"/>
      <use x="1653.320312" xlink:href="#DejaVuSans-105"/>
      <use x="1681.103516" xlink:href="#DejaVuSans-116"/>
      <use x="1720.3125" xlink:href="#DejaVuSans-105"/>
      <use x="1748.095703" xlink:href="#DejaVuSans-111"/>
      <use x="1809.277344" xlink:href="#DejaVuSans-110"/>
     </g>
    </g>
   </g>
   <g id="matplotlib.axis_2">
    <g id="ytick_1">
     <g id="line2d_9">
      <defs>
       <path d="M 0 0 
L -3.5 0 
" id="m13a9935cef" style="stroke:#000000;stroke-width:0.8;"/>
      </defs>
      <g>
       <use style="stroke:#000000;stroke-width:0.8;" x="53.675" xlink:href="#m13a9935cef" y="171.2"/>
      </g>
     </g>
     <g id="text_10">
      <!-- 0 -->
      <g transform="translate(40.3125 174.999219)scale(0.1 -0.1)">
       <use xlink:href="#DejaVuSans-48"/>
      </g>
     </g>
    </g>
    <g id="ytick_2">
     <g id="line2d_10">
      <g>
       <use style="stroke:#000000;stroke-width:0.8;" x="53.675" xlink:href="#m13a9935cef" y="132.427943"/>
      </g>
     </g>
     <g id="text_11">
      <!-- 200 -->
      <g transform="translate(27.5875 136.227162)scale(0.1 -0.1)">
       <use xlink:href="#DejaVuSans-50"/>
       <use x="63.623047" xlink:href="#DejaVuSans-48"/>
       <use x="127.246094" xlink:href="#DejaVuSans-48"/>
      </g>
     </g>
    </g>
    <g id="ytick_3">
     <g id="line2d_11">
      <g>
       <use style="stroke:#000000;stroke-width:0.8;" x="53.675" xlink:href="#m13a9935cef" y="93.655886"/>
      </g>
     </g>
     <g id="text_12">
      <!-- 400 -->
      <g transform="translate(27.5875 97.455105)scale(0.1 -0.1)">
       <use xlink:href="#DejaVuSans-52"/>
       <use x="63.623047" xlink:href="#DejaVuSans-48"/>
       <use x="127.246094" xlink:href="#DejaVuSans-48"/>
      </g>
     </g>
    </g>
    <g id="ytick_4">
     <g id="line2d_12">
      <g>
       <use style="stroke:#000000;stroke-width:0.8;" x="53.675" xlink:href="#m13a9935cef" y="54.883829"/>
      </g>
     </g>
     <g id="text_13">
      <!-- 600 -->
      <g transform="translate(27.5875 58.683048)scale(0.1 -0.1)">
       <use xlink:href="#DejaVuSans-54"/>
       <use x="63.623047" xlink:href="#DejaVuSans-48"/>
       <use x="127.246094" xlink:href="#DejaVuSans-48"/>
      </g>
     </g>
    </g>
    <g id="ytick_5">
     <g id="line2d_13">
      <g>
       <use style="stroke:#000000;stroke-width:0.8;" x="53.675" xlink:href="#m13a9935cef" y="16.111772"/>
      </g>
     </g>
     <g id="text_14">
      <!-- 800 -->
      <g transform="translate(27.5875 19.910991)scale(0.1 -0.1)">
       <use xlink:href="#DejaVuSans-56"/>
       <use x="63.623047" xlink:href="#DejaVuSans-48"/>
       <use x="127.246094" xlink:href="#DejaVuSans-48"/>
      </g>
     </g>
    </g>
    <g id="text_15">
     <!-- Frequency -->
     <defs>
      <path d="M 9.8125 72.90625 
L 51.703125 72.90625 
L 51.703125 64.59375 
L 19.671875 64.59375 
L 19.671875 43.109375 
L 48.578125 43.109375 
L 48.578125 34.8125 
L 19.671875 34.8125 
L 19.671875 0 
L 9.8125 0 
z
" id="DejaVuSans-70"/>
      <path d="M 14.796875 27.296875 
Q 14.796875 17.390625 18.875 11.75 
Q 22.953125 6.109375 30.078125 6.109375 
Q 37.203125 6.109375 41.296875 11.75 
Q 45.40625 17.390625 45.40625 27.296875 
Q 45.40625 37.203125 41.296875 42.84375 
Q 37.203125 48.484375 30.078125 48.484375 
Q 22.953125 48.484375 18.875 42.84375 
Q 14.796875 37.203125 14.796875 27.296875 
z
M 45.40625 8.203125 
Q 42.578125 3.328125 38.25 0.953125 
Q 33.9375 -1.421875 27.875 -1.421875 
Q 17.96875 -1.421875 11.734375 6.484375 
Q 5.515625 14.40625 5.515625 27.296875 
Q 5.515625 40.1875 11.734375 48.09375 
Q 17.96875 56 27.875 56 
Q 33.9375 56 38.25 53.625 
Q 42.578125 51.265625 45.40625 46.390625 
L 45.40625 54.6875 
L 54.390625 54.6875 
L 54.390625 -20.796875 
L 45.40625 -20.796875 
z
" id="DejaVuSans-113"/>
      <path d="M 48.78125 52.59375 
L 48.78125 44.1875 
Q 44.96875 46.296875 41.140625 47.34375 
Q 37.3125 48.390625 33.40625 48.390625 
Q 24.65625 48.390625 19.8125 42.84375 
Q 14.984375 37.3125 14.984375 27.296875 
Q 14.984375 17.28125 19.8125 11.734375 
Q 24.65625 6.203125 33.40625 6.203125 
Q 37.3125 6.203125 41.140625 7.25 
Q 44.96875 8.296875 48.78125 10.40625 
L 48.78125 2.09375 
Q 45.015625 0.34375 40.984375 -0.53125 
Q 36.96875 -1.421875 32.421875 -1.421875 
Q 20.0625 -1.421875 12.78125 6.34375 
Q 5.515625 14.109375 5.515625 27.296875 
Q 5.515625 40.671875 12.859375 48.328125 
Q 20.21875 56 33.015625 56 
Q 37.15625 56 41.109375 55.140625 
Q 45.0625 54.296875 48.78125 52.59375 
z
" id="DejaVuSans-99"/>
      <path d="M 32.171875 -5.078125 
Q 28.375 -14.84375 24.75 -17.8125 
Q 21.140625 -20.796875 15.09375 -20.796875 
L 7.90625 -20.796875 
L 7.90625 -13.28125 
L 13.1875 -13.28125 
Q 16.890625 -13.28125 18.9375 -11.515625 
Q 21 -9.765625 23.484375 -3.21875 
L 25.09375 0.875 
L 2.984375 54.6875 
L 12.5 54.6875 
L 29.59375 11.921875 
L 46.6875 54.6875 
L 56.203125 54.6875 
z
" id="DejaVuSans-121"/>
     </defs>
     <g transform="translate(21.091875 121.995625)rotate(-90)scale(0.12 -0.12)">
      <use xlink:href="#DejaVuSans-70"/>
      <use x="50.269531" xlink:href="#DejaVuSans-114"/>
      <use x="89.132812" xlink:href="#DejaVuSans-101"/>
      <use x="150.65625" xlink:href="#DejaVuSans-113"/>
      <use x="214.132812" xlink:href="#DejaVuSans-117"/>
      <use x="277.511719" xlink:href="#DejaVuSans-101"/>
      <use x="339.035156" xlink:href="#DejaVuSans-110"/>
      <use x="402.414062" xlink:href="#DejaVuSans-99"/>
      <use x="457.394531" xlink:href="#DejaVuSans-121"/>
     </g>
    </g>
   </g>
   <g id="line2d_14">
    <path clip-path="url(#pebdc97b002)" d="M 53.675 171.2 
L 53.675 10.8 
" style="fill:none;stroke:#000000;stroke-dasharray:3.7,1.6;stroke-dashoffset:0;"/>
   </g>
   <g id="line2d_15">
    <path clip-path="url(#pebdc97b002)" d="M 100.907129 171.2 
L 100.907129 10.8 
" style="fill:none;stroke:#000000;stroke-dasharray:3.7,1.6;stroke-dashoffset:0;"/>
   </g>
   <g id="line2d_16">
    <path clip-path="url(#pebdc97b002)" d="M 148.139257 171.2 
L 148.139257 10.8 
" style="fill:none;stroke:#000000;stroke-dasharray:3.7,1.6;stroke-dashoffset:0;"/>
   </g>
   <g id="line2d_17">
    <path clip-path="url(#pebdc97b002)" d="M 195.371386 171.2 
L 195.371386 10.8 
" style="fill:none;stroke:#000000;stroke-dasharray:3.7,1.6;stroke-dashoffset:0;"/>
   </g>
   <g id="line2d_18">
    <path clip-path="url(#pebdc97b002)" d="M 242.603514 171.2 
L 242.603514 10.8 
" style="fill:none;stroke:#000000;stroke-dasharray:3.7,1.6;stroke-dashoffset:0;"/>
   </g>
   <g id="line2d_19">
    <path clip-path="url(#pebdc97b002)" d="M 289.835643 171.2 
L 289.835643 10.8 
" style="fill:none;stroke:#000000;stroke-dasharray:3.7,1.6;stroke-dashoffset:0;"/>
   </g>
   <g id="line2d_20">
    <path clip-path="url(#pebdc97b002)" d="M 337.067771 171.2 
L 337.067771 10.8 
" style="fill:none;stroke:#000000;stroke-dasharray:3.7,1.6;stroke-dashoffset:0;"/>
   </g>
   <g id="line2d_21">
    <path clip-path="url(#pebdc97b002)" d="M 384.2999 171.2 
L 384.2999 10.8 
" style="fill:none;stroke:#000000;stroke-dasharray:3.7,1.6;stroke-dashoffset:0;"/>
   </g>
   <g id="patch_83">
    <path d="M 53.675 171.2 
L 53.675 10.8 
" style="fill:none;stroke:#000000;stroke-linecap:square;stroke-linejoin:miter;stroke-width:0.8;"/>
   </g>
   <g id="patch_84">
    <path d="M 421.2 171.2 
L 421.2 10.8 
" style="fill:none;stroke:#000000;stroke-linecap:square;stroke-linejoin:miter;stroke-width:0.8;"/>
   </g>
   <g id="patch_85">
    <path d="M 53.675 171.2 
L 421.2 171.2 
" style="fill:none;stroke:#000000;stroke-linecap:square;stroke-linejoin:miter;stroke-width:0.8;"/>
   </g>
   <g id="patch_86">
    <path d="M 53.675 10.8 
L 421.2 10.8 
" style="fill:none;stroke:#000000;stroke-linecap:square;stroke-linejoin:miter;stroke-width:0.8;"/>
   </g>
  </g>
 </g>
 <defs>
  <clipPath id="pebdc97b002">
   <rect height="160.4" width="367.525" x="53.675" y="10.8"/>
  </clipPath>
 </defs>
</svg>
