<?xml version="1.0" encoding="utf-8" standalone="no"?>
<!DOCTYPE svg PUBLIC "-//W3C//DTD SVG 1.1//EN"
  "http://www.w3.org/Graphics/SVG/1.1/DTD/svg11.dtd">
<!-- Created with matplotlib (https://matplotlib.org/) -->
<svg height="240pt" version="1.1" viewBox="0 0 360 240" width="360pt" xmlns="http://www.w3.org/2000/svg" xmlns:xlink="http://www.w3.org/1999/xlink">
 <defs>
  <style type="text/css">
*{stroke-linecap:butt;stroke-linejoin:round;}
  </style>
 </defs>
 <g id="figure_1">
  <g id="patch_1">
   <path d="M 0 240 
L 360 240 
L 360 0 
L 0 0 
z
" style="fill:#ffffff;"/>
  </g>
  <g id="axes_1">
   <g id="patch_2">
    <path d="M 60.05 195.2 
L 338.2 195.2 
L 338.2 10.8 
L 60.05 10.8 
z
" style="fill:#ffffff;"/>
   </g>
   <g id="patch_3">
    <path clip-path="url(#pc4f6d080ac)" d="M -32.118955 195.2 
L -29.835832 195.2 
L -29.835832 194.819166 
L -32.118955 194.819166 
z
" style="fill:#2708a0;"/>
   </g>
   <g id="patch_4">
    <path clip-path="url(#pc4f6d080ac)" d="M -29.835832 195.2 
L -27.552709 195.2 
L -27.552709 194.927975 
L -29.835832 194.927975 
z
" style="fill:#2708a0;"/>
   </g>
   <g id="patch_5">
    <path clip-path="url(#pc4f6d080ac)" d="M -27.552709 195.2 
L -25.269586 195.2 
L -25.269586 194.873571 
L -27.552709 194.873571 
z
" style="fill:#2708a0;"/>
   </g>
   <g id="patch_6">
    <path clip-path="url(#pc4f6d080ac)" d="M -25.269586 195.2 
L -22.986463 195.2 
L -22.986463 194.819166 
L -25.269586 194.819166 
z
" style="fill:#2708a0;"/>
   </g>
   <g id="patch_7">
    <path clip-path="url(#pc4f6d080ac)" d="M -22.986463 195.2 
L -20.703339 195.2 
L -20.703339 195.036785 
L -22.986463 195.036785 
z
" style="fill:#2708a0;"/>
   </g>
   <g id="patch_8">
    <path clip-path="url(#pc4f6d080ac)" d="M -20.703339 195.2 
L -18.420216 195.2 
L -18.420216 194.927975 
L -20.703339 194.927975 
z
" style="fill:#2708a0;"/>
   </g>
   <g id="patch_9">
    <path clip-path="url(#pc4f6d080ac)" d="M -18.420216 195.2 
L -16.137093 195.2 
L -16.137093 194.98238 
L -18.420216 194.98238 
z
" style="fill:#2708a0;"/>
   </g>
   <g id="patch_10">
    <path clip-path="url(#pc4f6d080ac)" d="M -16.137093 195.2 
L -13.85397 195.2 
L -13.85397 195.036785 
L -16.137093 195.036785 
z
" style="fill:#2708a0;"/>
   </g>
   <g id="patch_11">
    <path clip-path="url(#pc4f6d080ac)" d="M -13.85397 195.2 
L -11.570847 195.2 
L -11.570847 194.873571 
L -13.85397 194.873571 
z
" style="fill:#2708a0;"/>
   </g>
   <g id="patch_12">
    <path clip-path="url(#pc4f6d080ac)" d="M -11.570847 195.2 
L -9.287724 195.2 
L -9.287724 195.09119 
L -11.570847 195.09119 
z
" style="fill:#2708a0;"/>
   </g>
   <g id="patch_13">
    <path clip-path="url(#pc4f6d080ac)" d="M -9.287724 195.2 
L -7.004601 195.2 
L -7.004601 194.98238 
L -9.287724 194.98238 
z
" style="fill:#2708a0;"/>
   </g>
   <g id="patch_14">
    <path clip-path="url(#pc4f6d080ac)" d="M -7.004601 195.2 
L -4.721478 195.2 
L -4.721478 194.873571 
L -7.004601 194.873571 
z
" style="fill:#2708a0;"/>
   </g>
   <g id="patch_15">
    <path clip-path="url(#pc4f6d080ac)" d="M -4.721478 195.2 
L -2.438355 195.2 
L -2.438355 194.927975 
L -4.721478 194.927975 
z
" style="fill:#2708a0;"/>
   </g>
   <g id="patch_16">
    <path clip-path="url(#pc4f6d080ac)" d="M -2.438355 195.2 
L -0.155232 195.2 
L -0.155232 194.873571 
L -2.438355 194.873571 
z
" style="fill:#2708a0;"/>
   </g>
   <g id="patch_17">
    <path clip-path="url(#pc4f6d080ac)" d="M -0.155232 195.2 
L 2.127891 195.2 
L 2.127891 195.09119 
L -0.155232 195.09119 
z
" style="fill:#2708a0;"/>
   </g>
   <g id="patch_18">
    <path clip-path="url(#pc4f6d080ac)" d="M 2.127891 195.2 
L 4.411014 195.2 
L 4.411014 195.036785 
L 2.127891 195.036785 
z
" style="fill:#2708a0;"/>
   </g>
   <g id="patch_19">
    <path clip-path="url(#pc4f6d080ac)" d="M 4.411014 195.2 
L 6.694137 195.2 
L 6.694137 195.036785 
L 4.411014 195.036785 
z
" style="fill:#2708a0;"/>
   </g>
   <g id="patch_20">
    <path clip-path="url(#pc4f6d080ac)" d="M 6.694137 195.2 
L 8.97726 195.2 
L 8.97726 195.09119 
L 6.694137 195.09119 
z
" style="fill:#2708a0;"/>
   </g>
   <g id="patch_21">
    <path clip-path="url(#pc4f6d080ac)" d="M 8.97726 195.2 
L 11.260384 195.2 
L 11.260384 194.873571 
L 8.97726 194.873571 
z
" style="fill:#2708a0;"/>
   </g>
   <g id="patch_22">
    <path clip-path="url(#pc4f6d080ac)" d="M 11.260384 195.2 
L 13.543507 195.2 
L 13.543507 194.927975 
L 11.260384 194.927975 
z
" style="fill:#2708a0;"/>
   </g>
   <g id="patch_23">
    <path clip-path="url(#pc4f6d080ac)" d="M 13.543507 195.2 
L 15.82663 195.2 
L 15.82663 194.764761 
L 13.543507 194.764761 
z
" style="fill:#2708a0;"/>
   </g>
   <g id="patch_24">
    <path clip-path="url(#pc4f6d080ac)" d="M 15.82663 195.2 
L 18.109753 195.2 
L 18.109753 194.873571 
L 15.82663 194.873571 
z
" style="fill:#2708a0;"/>
   </g>
   <g id="patch_25">
    <path clip-path="url(#pc4f6d080ac)" d="M 18.109753 195.2 
L 20.392876 195.2 
L 20.392876 195.036785 
L 18.109753 195.036785 
z
" style="fill:#2708a0;"/>
   </g>
   <g id="patch_26">
    <path clip-path="url(#pc4f6d080ac)" d="M 20.392876 195.2 
L 22.675999 195.2 
L 22.675999 194.927975 
L 20.392876 194.927975 
z
" style="fill:#2708a0;"/>
   </g>
   <g id="patch_27">
    <path clip-path="url(#pc4f6d080ac)" d="M 22.675999 195.2 
L 24.959122 195.2 
L 24.959122 195.09119 
L 22.675999 195.09119 
z
" style="fill:#2708a0;"/>
   </g>
   <g id="patch_28">
    <path clip-path="url(#pc4f6d080ac)" d="M 24.959122 195.2 
L 27.242245 195.2 
L 27.242245 195.036785 
L 24.959122 195.036785 
z
" style="fill:#2708a0;"/>
   </g>
   <g id="patch_29">
    <path clip-path="url(#pc4f6d080ac)" d="M 27.242245 195.2 
L 29.525368 195.2 
L 29.525368 194.98238 
L 27.242245 194.98238 
z
" style="fill:#2708a0;"/>
   </g>
   <g id="patch_30">
    <path clip-path="url(#pc4f6d080ac)" d="M 29.525368 195.2 
L 31.808491 195.2 
L 31.808491 194.98238 
L 29.525368 194.98238 
z
" style="fill:#2708a0;"/>
   </g>
   <g id="patch_31">
    <path clip-path="url(#pc4f6d080ac)" d="M 31.808491 195.2 
L 34.091614 195.2 
L 34.091614 195.145595 
L 31.808491 195.145595 
z
" style="fill:#2708a0;"/>
   </g>
   <g id="patch_32">
    <path clip-path="url(#pc4f6d080ac)" d="M 34.091614 195.2 
L 36.374737 195.2 
L 36.374737 194.819166 
L 34.091614 194.819166 
z
" style="fill:#2708a0;"/>
   </g>
   <g id="patch_33">
    <path clip-path="url(#pc4f6d080ac)" d="M 36.374737 195.2 
L 38.65786 195.2 
L 38.65786 194.873571 
L 36.374737 194.873571 
z
" style="fill:#2708a0;"/>
   </g>
   <g id="patch_34">
    <path clip-path="url(#pc4f6d080ac)" d="M 38.65786 195.2 
L 40.940983 195.2 
L 40.940983 194.873571 
L 38.65786 194.873571 
z
" style="fill:#2708a0;"/>
   </g>
   <g id="patch_35">
    <path clip-path="url(#pc4f6d080ac)" d="M 40.940983 195.2 
L 43.224106 195.2 
L 43.224106 194.655951 
L 40.940983 194.655951 
z
" style="fill:#2708a0;"/>
   </g>
   <g id="patch_36">
    <path clip-path="url(#pc4f6d080ac)" d="M 43.224106 195.2 
L 45.50723 195.2 
L 45.50723 194.655951 
L 43.224106 194.655951 
z
" style="fill:#2708a0;"/>
   </g>
   <g id="patch_37">
    <path clip-path="url(#pc4f6d080ac)" d="M 45.50723 195.2 
L 47.790353 195.2 
L 47.790353 194.927975 
L 45.50723 194.927975 
z
" style="fill:#2708a0;"/>
   </g>
   <g id="patch_38">
    <path clip-path="url(#pc4f6d080ac)" d="M 47.790353 195.2 
L 50.073476 195.2 
L 50.073476 194.98238 
L 47.790353 194.98238 
z
" style="fill:#2708a0;"/>
   </g>
   <g id="patch_39">
    <path clip-path="url(#pc4f6d080ac)" d="M 50.073476 195.2 
L 52.356599 195.2 
L 52.356599 194.98238 
L 50.073476 194.98238 
z
" style="fill:#2708a0;"/>
   </g>
   <g id="patch_40">
    <path clip-path="url(#pc4f6d080ac)" d="M 52.356599 195.2 
L 54.639722 195.2 
L 54.639722 195.036785 
L 52.356599 195.036785 
z
" style="fill:#2708a0;"/>
   </g>
   <g id="patch_41">
    <path clip-path="url(#pc4f6d080ac)" d="M 54.639722 195.2 
L 56.922845 195.2 
L 56.922845 195.036785 
L 54.639722 195.036785 
z
" style="fill:#2708a0;"/>
   </g>
   <g id="patch_42">
    <path clip-path="url(#pc4f6d080ac)" d="M 56.922845 195.2 
L 59.205968 195.2 
L 59.205968 194.927975 
L 56.922845 194.927975 
z
" style="fill:#2708a0;"/>
   </g>
   <g id="patch_43">
    <path clip-path="url(#pc4f6d080ac)" d="M 59.205968 195.2 
L 61.489091 195.2 
L 61.489091 194.601546 
L 59.205968 194.601546 
z
" style="fill:#2708a0;"/>
   </g>
   <g id="patch_44">
    <path clip-path="url(#pc4f6d080ac)" d="M 61.489091 195.2 
L 63.772214 195.2 
L 63.772214 194.492736 
L 61.489091 194.492736 
z
" style="fill:#2708a0;"/>
   </g>
   <g id="patch_45">
    <path clip-path="url(#pc4f6d080ac)" d="M 63.772214 195.2 
L 66.055337 195.2 
L 66.055337 194.655951 
L 63.772214 194.655951 
z
" style="fill:#2708a0;"/>
   </g>
   <g id="patch_46">
    <path clip-path="url(#pc4f6d080ac)" d="M 66.055337 195.2 
L 68.33846 195.2 
L 68.33846 194.492736 
L 66.055337 194.492736 
z
" style="fill:#2708a0;"/>
   </g>
   <g id="patch_47">
    <path clip-path="url(#pc4f6d080ac)" d="M 68.33846 195.2 
L 70.621583 195.2 
L 70.621583 194.601546 
L 68.33846 194.601546 
z
" style="fill:#2708a0;"/>
   </g>
   <g id="patch_48">
    <path clip-path="url(#pc4f6d080ac)" d="M 70.621583 195.2 
L 72.904706 195.2 
L 72.904706 194.438331 
L 70.621583 194.438331 
z
" style="fill:#2708a0;"/>
   </g>
   <g id="patch_49">
    <path clip-path="url(#pc4f6d080ac)" d="M 72.904706 195.2 
L 75.187829 195.2 
L 75.187829 194.873571 
L 72.904706 194.873571 
z
" style="fill:#2708a0;"/>
   </g>
   <g id="patch_50">
    <path clip-path="url(#pc4f6d080ac)" d="M 75.187829 195.2 
L 77.470953 195.2 
L 77.470953 194.492736 
L 75.187829 194.492736 
z
" style="fill:#2708a0;"/>
   </g>
   <g id="patch_51">
    <path clip-path="url(#pc4f6d080ac)" d="M 77.470953 195.2 
L 79.754076 195.2 
L 79.754076 194.329521 
L 77.470953 194.329521 
z
" style="fill:#2708a0;"/>
   </g>
   <g id="patch_52">
    <path clip-path="url(#pc4f6d080ac)" d="M 79.754076 195.2 
L 82.037199 195.2 
L 82.037199 194.655951 
L 79.754076 194.655951 
z
" style="fill:#2708a0;"/>
   </g>
   <g id="patch_53">
    <path clip-path="url(#pc4f6d080ac)" d="M 82.037199 195.2 
L 84.320322 195.2 
L 84.320322 194.710356 
L 82.037199 194.710356 
z
" style="fill:#2708a0;"/>
   </g>
   <g id="patch_54">
    <path clip-path="url(#pc4f6d080ac)" d="M 84.320322 195.2 
L 86.603445 195.2 
L 86.603445 194.655951 
L 84.320322 194.655951 
z
" style="fill:#2708a0;"/>
   </g>
   <g id="patch_55">
    <path clip-path="url(#pc4f6d080ac)" d="M 86.603445 195.2 
L 88.886568 195.2 
L 88.886568 194.329521 
L 86.603445 194.329521 
z
" style="fill:#2708a0;"/>
   </g>
   <g id="patch_56">
    <path clip-path="url(#pc4f6d080ac)" d="M 88.886568 195.2 
L 91.169691 195.2 
L 91.169691 194.492736 
L 88.886568 194.492736 
z
" style="fill:#2708a0;"/>
   </g>
   <g id="patch_57">
    <path clip-path="url(#pc4f6d080ac)" d="M 91.169691 195.2 
L 93.452814 195.2 
L 93.452814 194.492736 
L 91.169691 194.492736 
z
" style="fill:#2708a0;"/>
   </g>
   <g id="patch_58">
    <path clip-path="url(#pc4f6d080ac)" d="M 93.452814 195.2 
L 95.735937 195.2 
L 95.735937 194.492736 
L 93.452814 194.492736 
z
" style="fill:#2708a0;"/>
   </g>
   <g id="patch_59">
    <path clip-path="url(#pc4f6d080ac)" d="M 95.735937 195.2 
L 98.01906 195.2 
L 98.01906 194.329521 
L 95.735937 194.329521 
z
" style="fill:#2708a0;"/>
   </g>
   <g id="patch_60">
    <path clip-path="url(#pc4f6d080ac)" d="M 98.01906 195.2 
L 100.302183 195.2 
L 100.302183 194.057497 
L 98.01906 194.057497 
z
" style="fill:#2708a0;"/>
   </g>
   <g id="patch_61">
    <path clip-path="url(#pc4f6d080ac)" d="M 100.302183 195.2 
L 102.585306 195.2 
L 102.585306 194.438331 
L 100.302183 194.438331 
z
" style="fill:#2708a0;"/>
   </g>
   <g id="patch_62">
    <path clip-path="url(#pc4f6d080ac)" d="M 102.585306 195.2 
L 104.868429 195.2 
L 104.868429 194.111902 
L 102.585306 194.111902 
z
" style="fill:#2708a0;"/>
   </g>
   <g id="patch_63">
    <path clip-path="url(#pc4f6d080ac)" d="M 104.868429 195.2 
L 107.151552 195.2 
L 107.151552 193.948687 
L 104.868429 193.948687 
z
" style="fill:#2708a0;"/>
   </g>
   <g id="patch_64">
    <path clip-path="url(#pc4f6d080ac)" d="M 107.151552 195.2 
L 109.434676 195.2 
L 109.434676 194.057497 
L 107.151552 194.057497 
z
" style="fill:#2708a0;"/>
   </g>
   <g id="patch_65">
    <path clip-path="url(#pc4f6d080ac)" d="M 109.434676 195.2 
L 111.717799 195.2 
L 111.717799 194.111902 
L 109.434676 194.111902 
z
" style="fill:#2708a0;"/>
   </g>
   <g id="patch_66">
    <path clip-path="url(#pc4f6d080ac)" d="M 111.717799 195.2 
L 114.000922 195.2 
L 114.000922 193.785472 
L 111.717799 193.785472 
z
" style="fill:#2708a0;"/>
   </g>
   <g id="patch_67">
    <path clip-path="url(#pc4f6d080ac)" d="M 114.000922 195.2 
L 116.284045 195.2 
L 116.284045 193.785472 
L 114.000922 193.785472 
z
" style="fill:#2708a0;"/>
   </g>
   <g id="patch_68">
    <path clip-path="url(#pc4f6d080ac)" d="M 116.284045 195.2 
L 118.567168 195.2 
L 118.567168 194.057497 
L 116.284045 194.057497 
z
" style="fill:#2708a0;"/>
   </g>
   <g id="patch_69">
    <path clip-path="url(#pc4f6d080ac)" d="M 118.567168 195.2 
L 120.850291 195.2 
L 120.850291 193.622258 
L 118.567168 193.622258 
z
" style="fill:#2708a0;"/>
   </g>
   <g id="patch_70">
    <path clip-path="url(#pc4f6d080ac)" d="M 120.850291 195.2 
L 123.133414 195.2 
L 123.133414 193.731067 
L 120.850291 193.731067 
z
" style="fill:#2708a0;"/>
   </g>
   <g id="patch_71">
    <path clip-path="url(#pc4f6d080ac)" d="M 123.133414 195.2 
L 125.416537 195.2 
L 125.416537 193.622258 
L 123.133414 193.622258 
z
" style="fill:#2708a0;"/>
   </g>
   <g id="patch_72">
    <path clip-path="url(#pc4f6d080ac)" d="M 125.416537 195.2 
L 127.69966 195.2 
L 127.69966 192.969399 
L 125.416537 192.969399 
z
" style="fill:#2708a0;"/>
   </g>
   <g id="patch_73">
    <path clip-path="url(#pc4f6d080ac)" d="M 127.69966 195.2 
L 129.982783 195.2 
L 129.982783 192.588564 
L 127.69966 192.588564 
z
" style="fill:#2708a0;"/>
   </g>
   <g id="patch_74">
    <path clip-path="url(#pc4f6d080ac)" d="M 129.982783 195.2 
L 132.265906 195.2 
L 132.265906 193.241423 
L 129.982783 193.241423 
z
" style="fill:#2708a0;"/>
   </g>
   <g id="patch_75">
    <path clip-path="url(#pc4f6d080ac)" d="M 132.265906 195.2 
L 134.549029 195.2 
L 134.549029 192.370945 
L 132.265906 192.370945 
z
" style="fill:#2708a0;"/>
   </g>
   <g id="patch_76">
    <path clip-path="url(#pc4f6d080ac)" d="M 134.549029 195.2 
L 136.832152 195.2 
L 136.832152 192.751779 
L 134.549029 192.751779 
z
" style="fill:#2708a0;"/>
   </g>
   <g id="patch_77">
    <path clip-path="url(#pc4f6d080ac)" d="M 136.832152 195.2 
L 139.115275 195.2 
L 139.115275 192.642969 
L 136.832152 192.642969 
z
" style="fill:#2708a0;"/>
   </g>
   <g id="patch_78">
    <path clip-path="url(#pc4f6d080ac)" d="M 139.115275 195.2 
L 141.398398 195.2 
L 141.398398 192.09892 
L 139.115275 192.09892 
z
" style="fill:#2708a0;"/>
   </g>
   <g id="patch_79">
    <path clip-path="url(#pc4f6d080ac)" d="M 141.398398 195.2 
L 143.681522 195.2 
L 143.681522 192.09892 
L 141.398398 192.09892 
z
" style="fill:#2708a0;"/>
   </g>
   <g id="patch_80">
    <path clip-path="url(#pc4f6d080ac)" d="M 143.681522 195.2 
L 145.964645 195.2 
L 145.964645 192.044515 
L 143.681522 192.044515 
z
" style="fill:#2708a0;"/>
   </g>
   <g id="patch_81">
    <path clip-path="url(#pc4f6d080ac)" d="M 145.964645 195.2 
L 148.247768 195.2 
L 148.247768 191.718086 
L 145.964645 191.718086 
z
" style="fill:#2708a0;"/>
   </g>
   <g id="patch_82">
    <path clip-path="url(#pc4f6d080ac)" d="M 148.247768 195.2 
L 150.530891 195.2 
L 150.530891 191.772491 
L 148.247768 191.772491 
z
" style="fill:#2708a0;"/>
   </g>
   <g id="patch_83">
    <path clip-path="url(#pc4f6d080ac)" d="M 150.530891 195.2 
L 152.814014 195.2 
L 152.814014 190.684393 
L 150.530891 190.684393 
z
" style="fill:#2708a0;"/>
   </g>
   <g id="patch_84">
    <path clip-path="url(#pc4f6d080ac)" d="M 152.814014 195.2 
L 155.097137 195.2 
L 155.097137 190.466773 
L 152.814014 190.466773 
z
" style="fill:#2708a0;"/>
   </g>
   <g id="patch_85">
    <path clip-path="url(#pc4f6d080ac)" d="M 155.097137 195.2 
L 157.38026 195.2 
L 157.38026 189.32427 
L 155.097137 189.32427 
z
" style="fill:#2708a0;"/>
   </g>
   <g id="patch_86">
    <path clip-path="url(#pc4f6d080ac)" d="M 157.38026 195.2 
L 159.663383 195.2 
L 159.663383 189.269865 
L 157.38026 189.269865 
z
" style="fill:#2708a0;"/>
   </g>
   <g id="patch_87">
    <path clip-path="url(#pc4f6d080ac)" d="M 159.663383 195.2 
L 161.946506 195.2 
L 161.946506 188.236172 
L 159.663383 188.236172 
z
" style="fill:#2708a0;"/>
   </g>
   <g id="patch_88">
    <path clip-path="url(#pc4f6d080ac)" d="M 161.946506 195.2 
L 164.229629 195.2 
L 164.229629 188.562601 
L 161.946506 188.562601 
z
" style="fill:#2708a0;"/>
   </g>
   <g id="patch_89">
    <path clip-path="url(#pc4f6d080ac)" d="M 164.229629 195.2 
L 166.512752 195.2 
L 166.512752 186.658429 
L 164.229629 186.658429 
z
" style="fill:#2708a0;"/>
   </g>
   <g id="patch_90">
    <path clip-path="url(#pc4f6d080ac)" d="M 166.512752 195.2 
L 168.795875 195.2 
L 168.795875 187.039264 
L 166.512752 187.039264 
z
" style="fill:#2708a0;"/>
   </g>
   <g id="patch_91">
    <path clip-path="url(#pc4f6d080ac)" d="M 168.795875 195.2 
L 171.078998 195.2 
L 171.078998 185.515926 
L 168.795875 185.515926 
z
" style="fill:#2708a0;"/>
   </g>
   <g id="patch_92">
    <path clip-path="url(#pc4f6d080ac)" d="M 171.078998 195.2 
L 173.362121 195.2 
L 173.362121 183.12211 
L 171.078998 183.12211 
z
" style="fill:#2708a0;"/>
   </g>
   <g id="patch_93">
    <path clip-path="url(#pc4f6d080ac)" d="M 173.362121 195.2 
L 175.645245 195.2 
L 175.645245 181.598773 
L 173.362121 181.598773 
z
" style="fill:#2708a0;"/>
   </g>
   <g id="patch_94">
    <path clip-path="url(#pc4f6d080ac)" d="M 175.645245 195.2 
L 177.928368 195.2 
L 177.928368 182.523656 
L 175.645245 182.523656 
z
" style="fill:#2708a0;"/>
   </g>
   <g id="patch_95">
    <path clip-path="url(#pc4f6d080ac)" d="M 177.928368 195.2 
L 180.211491 195.2 
L 180.211491 179.585791 
L 177.928368 179.585791 
z
" style="fill:#2708a0;"/>
   </g>
   <g id="patch_96">
    <path clip-path="url(#pc4f6d080ac)" d="M 180.211491 195.2 
L 182.494614 195.2 
L 182.494614 178.932932 
L 180.211491 178.932932 
z
" style="fill:#2708a0;"/>
   </g>
   <g id="patch_97">
    <path clip-path="url(#pc4f6d080ac)" d="M 182.494614 195.2 
L 184.777737 195.2 
L 184.777737 174.25411 
L 182.494614 174.25411 
z
" style="fill:#2708a0;"/>
   </g>
   <g id="patch_98">
    <path clip-path="url(#pc4f6d080ac)" d="M 184.777737 195.2 
L 187.06086 195.2 
L 187.06086 167.94314 
L 184.777737 167.94314 
z
" style="fill:#2708a0;"/>
   </g>
   <g id="patch_99">
    <path clip-path="url(#pc4f6d080ac)" d="M 187.06086 195.2 
L 189.343983 195.2 
L 189.343983 168.759214 
L 187.06086 168.759214 
z
" style="fill:#2708a0;"/>
   </g>
   <g id="patch_100">
    <path clip-path="url(#pc4f6d080ac)" d="M 189.343983 195.2 
L 191.627106 195.2 
L 191.627106 142.808072 
L 189.343983 142.808072 
z
" style="fill:#2708a0;"/>
   </g>
   <g id="patch_101">
    <path clip-path="url(#pc4f6d080ac)" d="M 191.627106 195.2 
L 193.910229 195.2 
L 193.910229 148.901422 
L 191.627106 148.901422 
z
" style="fill:#2708a0;"/>
   </g>
   <g id="patch_102">
    <path clip-path="url(#pc4f6d080ac)" d="M 193.910229 195.2 
L 196.193352 195.2 
L 196.193352 140.631876 
L 193.910229 140.631876 
z
" style="fill:#2708a0;"/>
   </g>
   <g id="patch_103">
    <path clip-path="url(#pc4f6d080ac)" d="M 196.193352 195.2 
L 198.476475 195.2 
L 198.476475 81.112905 
L 196.193352 81.112905 
z
" style="fill:#2708a0;"/>
   </g>
   <g id="patch_104">
    <path clip-path="url(#pc4f6d080ac)" d="M 198.476475 195.2 
L 200.759598 195.2 
L 200.759598 59.242131 
L 198.476475 59.242131 
z
" style="fill:#2708a0;"/>
   </g>
   <g id="patch_105">
    <path clip-path="url(#pc4f6d080ac)" d="M 200.759598 195.2 
L 203.042721 195.2 
L 203.042721 19.580952 
L 200.759598 19.580952 
z
" style="fill:#2708a0;"/>
   </g>
   <g id="patch_106">
    <path clip-path="url(#pc4f6d080ac)" d="M 203.042721 195.2 
L 205.325844 195.2 
L 205.325844 98.631286 
L 203.042721 98.631286 
z
" style="fill:#2708a0;"/>
   </g>
   <g id="patch_107">
    <path clip-path="url(#pc4f6d080ac)" d="M 205.325844 195.2 
L 207.608967 195.2 
L 207.608967 149.227852 
L 205.325844 149.227852 
z
" style="fill:#2708a0;"/>
   </g>
   <g id="patch_108">
    <path clip-path="url(#pc4f6d080ac)" d="M 207.608967 195.2 
L 209.892091 195.2 
L 209.892091 152.546551 
L 207.608967 152.546551 
z
" style="fill:#2708a0;"/>
   </g>
   <g id="patch_109">
    <path clip-path="url(#pc4f6d080ac)" d="M 209.892091 195.2 
L 212.175214 195.2 
L 212.175214 154.505128 
L 209.892091 154.505128 
z
" style="fill:#2708a0;"/>
   </g>
   <g id="patch_110">
    <path clip-path="url(#pc4f6d080ac)" d="M 212.175214 195.2 
L 214.458337 195.2 
L 214.458337 168.868024 
L 212.175214 168.868024 
z
" style="fill:#2708a0;"/>
   </g>
   <g id="patch_111">
    <path clip-path="url(#pc4f6d080ac)" d="M 214.458337 195.2 
L 216.74146 195.2 
L 216.74146 157.606208 
L 214.458337 157.606208 
z
" style="fill:#2708a0;"/>
   </g>
   <g id="patch_112">
    <path clip-path="url(#pc4f6d080ac)" d="M 216.74146 195.2 
L 219.024583 195.2 
L 219.024583 177.083165 
L 216.74146 177.083165 
z
" style="fill:#2708a0;"/>
   </g>
   <g id="patch_113">
    <path clip-path="url(#pc4f6d080ac)" d="M 219.024583 195.2 
L 221.307706 195.2 
L 221.307706 175.723042 
L 219.024583 175.723042 
z
" style="fill:#2708a0;"/>
   </g>
   <g id="patch_114">
    <path clip-path="url(#pc4f6d080ac)" d="M 221.307706 195.2 
L 223.590829 195.2 
L 223.590829 180.34746 
L 221.307706 180.34746 
z
" style="fill:#2708a0;"/>
   </g>
   <g id="patch_115">
    <path clip-path="url(#pc4f6d080ac)" d="M 223.590829 195.2 
L 225.873952 195.2 
L 225.873952 185.298306 
L 223.590829 185.298306 
z
" style="fill:#2708a0;"/>
   </g>
   <g id="patch_116">
    <path clip-path="url(#pc4f6d080ac)" d="M 225.873952 195.2 
L 228.157075 195.2 
L 228.157075 185.298306 
L 225.873952 185.298306 
z
" style="fill:#2708a0;"/>
   </g>
   <g id="patch_117">
    <path clip-path="url(#pc4f6d080ac)" d="M 228.157075 195.2 
L 230.440198 195.2 
L 230.440198 187.202478 
L 228.157075 187.202478 
z
" style="fill:#2708a0;"/>
   </g>
   <g id="patch_118">
    <path clip-path="url(#pc4f6d080ac)" d="M 230.440198 195.2 
L 232.723321 195.2 
L 232.723321 185.624736 
L 230.440198 185.624736 
z
" style="fill:#2708a0;"/>
   </g>
   <g id="patch_119">
    <path clip-path="url(#pc4f6d080ac)" d="M 232.723321 195.2 
L 235.006444 195.2 
L 235.006444 186.658429 
L 232.723321 186.658429 
z
" style="fill:#2708a0;"/>
   </g>
   <g id="patch_120">
    <path clip-path="url(#pc4f6d080ac)" d="M 235.006444 195.2 
L 237.289567 195.2 
L 237.289567 189.922724 
L 235.006444 189.922724 
z
" style="fill:#2708a0;"/>
   </g>
   <g id="patch_121">
    <path clip-path="url(#pc4f6d080ac)" d="M 237.289567 195.2 
L 239.57269 195.2 
L 239.57269 189.759509 
L 237.289567 189.759509 
z
" style="fill:#2708a0;"/>
   </g>
   <g id="patch_122">
    <path clip-path="url(#pc4f6d080ac)" d="M 239.57269 195.2 
L 241.855814 195.2 
L 241.855814 191.446061 
L 239.57269 191.446061 
z
" style="fill:#2708a0;"/>
   </g>
   <g id="patch_123">
    <path clip-path="url(#pc4f6d080ac)" d="M 241.855814 195.2 
L 244.138937 195.2 
L 244.138937 191.446061 
L 241.855814 191.446061 
z
" style="fill:#2708a0;"/>
   </g>
   <g id="patch_124">
    <path clip-path="url(#pc4f6d080ac)" d="M 244.138937 195.2 
L 246.42206 195.2 
L 246.42206 191.337251 
L 244.138937 191.337251 
z
" style="fill:#2708a0;"/>
   </g>
   <g id="patch_125">
    <path clip-path="url(#pc4f6d080ac)" d="M 246.42206 195.2 
L 248.705183 195.2 
L 248.705183 191.99011 
L 246.42206 191.99011 
z
" style="fill:#2708a0;"/>
   </g>
   <g id="patch_126">
    <path clip-path="url(#pc4f6d080ac)" d="M 248.705183 195.2 
L 250.988306 195.2 
L 250.988306 192.370945 
L 248.705183 192.370945 
z
" style="fill:#2708a0;"/>
   </g>
   <g id="patch_127">
    <path clip-path="url(#pc4f6d080ac)" d="M 250.988306 195.2 
L 253.271429 195.2 
L 253.271429 192.751779 
L 250.988306 192.751779 
z
" style="fill:#2708a0;"/>
   </g>
   <g id="patch_128">
    <path clip-path="url(#pc4f6d080ac)" d="M 253.271429 195.2 
L 255.554552 195.2 
L 255.554552 193.241423 
L 253.271429 193.241423 
z
" style="fill:#2708a0;"/>
   </g>
   <g id="patch_129">
    <path clip-path="url(#pc4f6d080ac)" d="M 255.554552 195.2 
L 257.837675 195.2 
L 257.837675 193.241423 
L 255.554552 193.241423 
z
" style="fill:#2708a0;"/>
   </g>
   <g id="patch_130">
    <path clip-path="url(#pc4f6d080ac)" d="M 257.837675 195.2 
L 260.120798 195.2 
L 260.120798 192.914994 
L 257.837675 192.914994 
z
" style="fill:#2708a0;"/>
   </g>
   <g id="patch_131">
    <path clip-path="url(#pc4f6d080ac)" d="M 260.120798 195.2 
L 262.403921 195.2 
L 262.403921 192.642969 
L 260.120798 192.642969 
z
" style="fill:#2708a0;"/>
   </g>
   <g id="patch_132">
    <path clip-path="url(#pc4f6d080ac)" d="M 262.403921 195.2 
L 264.687044 195.2 
L 264.687044 193.023804 
L 262.403921 193.023804 
z
" style="fill:#2708a0;"/>
   </g>
   <g id="patch_133">
    <path clip-path="url(#pc4f6d080ac)" d="M 264.687044 195.2 
L 266.970167 195.2 
L 266.970167 193.731067 
L 264.687044 193.731067 
z
" style="fill:#2708a0;"/>
   </g>
   <g id="patch_134">
    <path clip-path="url(#pc4f6d080ac)" d="M 266.970167 195.2 
L 269.25329 195.2 
L 269.25329 193.731067 
L 266.970167 193.731067 
z
" style="fill:#2708a0;"/>
   </g>
   <g id="patch_135">
    <path clip-path="url(#pc4f6d080ac)" d="M 269.25329 195.2 
L 271.536413 195.2 
L 271.536413 193.622258 
L 269.25329 193.622258 
z
" style="fill:#2708a0;"/>
   </g>
   <g id="patch_136">
    <path clip-path="url(#pc4f6d080ac)" d="M 271.536413 195.2 
L 273.819536 195.2 
L 273.819536 193.785472 
L 271.536413 193.785472 
z
" style="fill:#2708a0;"/>
   </g>
   <g id="patch_137">
    <path clip-path="url(#pc4f6d080ac)" d="M 273.819536 195.2 
L 276.10266 195.2 
L 276.10266 193.785472 
L 273.819536 193.785472 
z
" style="fill:#2708a0;"/>
   </g>
   <g id="patch_138">
    <path clip-path="url(#pc4f6d080ac)" d="M 276.10266 195.2 
L 278.385783 195.2 
L 278.385783 193.839877 
L 276.10266 193.839877 
z
" style="fill:#2708a0;"/>
   </g>
   <g id="patch_139">
    <path clip-path="url(#pc4f6d080ac)" d="M 278.385783 195.2 
L 280.668906 195.2 
L 280.668906 194.003092 
L 278.385783 194.003092 
z
" style="fill:#2708a0;"/>
   </g>
   <g id="patch_140">
    <path clip-path="url(#pc4f6d080ac)" d="M 280.668906 195.2 
L 282.952029 195.2 
L 282.952029 194.329521 
L 280.668906 194.329521 
z
" style="fill:#2708a0;"/>
   </g>
   <g id="patch_141">
    <path clip-path="url(#pc4f6d080ac)" d="M 282.952029 195.2 
L 285.235152 195.2 
L 285.235152 194.275117 
L 282.952029 194.275117 
z
" style="fill:#2708a0;"/>
   </g>
   <g id="patch_142">
    <path clip-path="url(#pc4f6d080ac)" d="M 285.235152 195.2 
L 287.518275 195.2 
L 287.518275 194.438331 
L 285.235152 194.438331 
z
" style="fill:#2708a0;"/>
   </g>
   <g id="patch_143">
    <path clip-path="url(#pc4f6d080ac)" d="M 287.518275 195.2 
L 289.801398 195.2 
L 289.801398 194.057497 
L 287.518275 194.057497 
z
" style="fill:#2708a0;"/>
   </g>
   <g id="patch_144">
    <path clip-path="url(#pc4f6d080ac)" d="M 289.801398 195.2 
L 292.084521 195.2 
L 292.084521 193.785472 
L 289.801398 193.785472 
z
" style="fill:#2708a0;"/>
   </g>
   <g id="patch_145">
    <path clip-path="url(#pc4f6d080ac)" d="M 292.084521 195.2 
L 294.367644 195.2 
L 294.367644 194.003092 
L 292.084521 194.003092 
z
" style="fill:#2708a0;"/>
   </g>
   <g id="patch_146">
    <path clip-path="url(#pc4f6d080ac)" d="M 294.367644 195.2 
L 296.650767 195.2 
L 296.650767 194.438331 
L 294.367644 194.438331 
z
" style="fill:#2708a0;"/>
   </g>
   <g id="patch_147">
    <path clip-path="url(#pc4f6d080ac)" d="M 296.650767 195.2 
L 298.93389 195.2 
L 298.93389 194.275117 
L 296.650767 194.275117 
z
" style="fill:#2708a0;"/>
   </g>
   <g id="patch_148">
    <path clip-path="url(#pc4f6d080ac)" d="M 298.93389 195.2 
L 301.217013 195.2 
L 301.217013 194.819166 
L 298.93389 194.819166 
z
" style="fill:#2708a0;"/>
   </g>
   <g id="patch_149">
    <path clip-path="url(#pc4f6d080ac)" d="M 301.217013 195.2 
L 303.500136 195.2 
L 303.500136 194.601546 
L 301.217013 194.601546 
z
" style="fill:#2708a0;"/>
   </g>
   <g id="patch_150">
    <path clip-path="url(#pc4f6d080ac)" d="M 303.500136 195.2 
L 305.783259 195.2 
L 305.783259 194.383926 
L 303.500136 194.383926 
z
" style="fill:#2708a0;"/>
   </g>
   <g id="patch_151">
    <path clip-path="url(#pc4f6d080ac)" d="M 305.783259 195.2 
L 308.066383 195.2 
L 308.066383 194.383926 
L 305.783259 194.383926 
z
" style="fill:#2708a0;"/>
   </g>
   <g id="patch_152">
    <path clip-path="url(#pc4f6d080ac)" d="M 308.066383 195.2 
L 310.349506 195.2 
L 310.349506 194.383926 
L 308.066383 194.383926 
z
" style="fill:#2708a0;"/>
   </g>
   <g id="patch_153">
    <path clip-path="url(#pc4f6d080ac)" d="M 310.349506 195.2 
L 312.632629 195.2 
L 312.632629 194.547141 
L 310.349506 194.547141 
z
" style="fill:#2708a0;"/>
   </g>
   <g id="patch_154">
    <path clip-path="url(#pc4f6d080ac)" d="M 312.632629 195.2 
L 314.915752 195.2 
L 314.915752 194.927975 
L 312.632629 194.927975 
z
" style="fill:#2708a0;"/>
   </g>
   <g id="patch_155">
    <path clip-path="url(#pc4f6d080ac)" d="M 314.915752 195.2 
L 317.198875 195.2 
L 317.198875 194.819166 
L 314.915752 194.819166 
z
" style="fill:#2708a0;"/>
   </g>
   <g id="patch_156">
    <path clip-path="url(#pc4f6d080ac)" d="M 317.198875 195.2 
L 319.481998 195.2 
L 319.481998 194.927975 
L 317.198875 194.927975 
z
" style="fill:#2708a0;"/>
   </g>
   <g id="patch_157">
    <path clip-path="url(#pc4f6d080ac)" d="M 319.481998 195.2 
L 321.765121 195.2 
L 321.765121 194.655951 
L 319.481998 194.655951 
z
" style="fill:#2708a0;"/>
   </g>
   <g id="patch_158">
    <path clip-path="url(#pc4f6d080ac)" d="M 321.765121 195.2 
L 324.048244 195.2 
L 324.048244 194.655951 
L 321.765121 194.655951 
z
" style="fill:#2708a0;"/>
   </g>
   <g id="patch_159">
    <path clip-path="url(#pc4f6d080ac)" d="M 324.048244 195.2 
L 326.331367 195.2 
L 326.331367 194.873571 
L 324.048244 194.873571 
z
" style="fill:#2708a0;"/>
   </g>
   <g id="patch_160">
    <path clip-path="url(#pc4f6d080ac)" d="M 326.331367 195.2 
L 328.61449 195.2 
L 328.61449 194.601546 
L 326.331367 194.601546 
z
" style="fill:#2708a0;"/>
   </g>
   <g id="patch_161">
    <path clip-path="url(#pc4f6d080ac)" d="M 328.61449 195.2 
L 330.897613 195.2 
L 330.897613 194.601546 
L 328.61449 194.601546 
z
" style="fill:#2708a0;"/>
   </g>
   <g id="patch_162">
    <path clip-path="url(#pc4f6d080ac)" d="M 330.897613 195.2 
L 333.180736 195.2 
L 333.180736 194.927975 
L 330.897613 194.927975 
z
" style="fill:#2708a0;"/>
   </g>
   <g id="patch_163">
    <path clip-path="url(#pc4f6d080ac)" d="M 333.180736 195.2 
L 335.463859 195.2 
L 335.463859 194.655951 
L 333.180736 194.655951 
z
" style="fill:#2708a0;"/>
   </g>
   <g id="patch_164">
    <path clip-path="url(#pc4f6d080ac)" d="M 335.463859 195.2 
L 337.746982 195.2 
L 337.746982 195.145595 
L 335.463859 195.145595 
z
" style="fill:#2708a0;"/>
   </g>
   <g id="patch_165">
    <path clip-path="url(#pc4f6d080ac)" d="M 337.746982 195.2 
L 340.030105 195.2 
L 340.030105 194.927975 
L 337.746982 194.927975 
z
" style="fill:#2708a0;"/>
   </g>
   <g id="patch_166">
    <path clip-path="url(#pc4f6d080ac)" d="M 340.030105 195.2 
L 342.313229 195.2 
L 342.313229 194.98238 
L 340.030105 194.98238 
z
" style="fill:#2708a0;"/>
   </g>
   <g id="patch_167">
    <path clip-path="url(#pc4f6d080ac)" d="M 342.313229 195.2 
L 344.596352 195.2 
L 344.596352 194.98238 
L 342.313229 194.98238 
z
" style="fill:#2708a0;"/>
   </g>
   <g id="patch_168">
    <path clip-path="url(#pc4f6d080ac)" d="M 344.596352 195.2 
L 346.879475 195.2 
L 346.879475 194.873571 
L 344.596352 194.873571 
z
" style="fill:#2708a0;"/>
   </g>
   <g id="patch_169">
    <path clip-path="url(#pc4f6d080ac)" d="M 346.879475 195.2 
L 349.162598 195.2 
L 349.162598 194.764761 
L 346.879475 194.764761 
z
" style="fill:#2708a0;"/>
   </g>
   <g id="patch_170">
    <path clip-path="url(#pc4f6d080ac)" d="M 349.162598 195.2 
L 351.445721 195.2 
L 351.445721 194.873571 
L 349.162598 194.873571 
z
" style="fill:#2708a0;"/>
   </g>
   <g id="patch_171">
    <path clip-path="url(#pc4f6d080ac)" d="M 351.445721 195.2 
L 353.728844 195.2 
L 353.728844 194.873571 
L 351.445721 194.873571 
z
" style="fill:#2708a0;"/>
   </g>
   <g id="patch_172">
    <path clip-path="url(#pc4f6d080ac)" d="M 353.728844 195.2 
L 356.011967 195.2 
L 356.011967 195.09119 
L 353.728844 195.09119 
z
" style="fill:#2708a0;"/>
   </g>
   <g id="patch_173">
    <path clip-path="url(#pc4f6d080ac)" d="M 356.011967 195.2 
L 358.29509 195.2 
L 358.29509 195.145595 
L 356.011967 195.145595 
z
" style="fill:#2708a0;"/>
   </g>
   <g id="patch_174">
    <path clip-path="url(#pc4f6d080ac)" d="M 358.29509 195.2 
L 360.578213 195.2 
L 360.578213 195.09119 
L 358.29509 195.09119 
z
" style="fill:#2708a0;"/>
   </g>
   <g id="patch_175">
    <path clip-path="url(#pc4f6d080ac)" d="M 360.578213 195.2 
L 362.861336 195.2 
L 362.861336 194.98238 
L 360.578213 194.98238 
z
" style="fill:#2708a0;"/>
   </g>
   <g id="patch_176">
    <path clip-path="url(#pc4f6d080ac)" d="M 362.861336 195.2 
L 365.144459 195.2 
L 365.144459 194.655951 
L 362.861336 194.655951 
z
" style="fill:#2708a0;"/>
   </g>
   <g id="patch_177">
    <path clip-path="url(#pc4f6d080ac)" d="M 365.144459 195.2 
L 367.427582 195.2 
L 367.427582 195.036785 
L 365.144459 195.036785 
z
" style="fill:#2708a0;"/>
   </g>
   <g id="patch_178">
    <path clip-path="url(#pc4f6d080ac)" d="M 367.427582 195.2 
L 369.710705 195.2 
L 369.710705 194.98238 
L 367.427582 194.98238 
z
" style="fill:#2708a0;"/>
   </g>
   <g id="patch_179">
    <path clip-path="url(#pc4f6d080ac)" d="M 369.710705 195.2 
L 371.993828 195.2 
L 371.993828 195.036785 
L 369.710705 195.036785 
z
" style="fill:#2708a0;"/>
   </g>
   <g id="patch_180">
    <path clip-path="url(#pc4f6d080ac)" d="M 371.993828 195.2 
L 374.276952 195.2 
L 374.276952 195.09119 
L 371.993828 195.09119 
z
" style="fill:#2708a0;"/>
   </g>
   <g id="patch_181">
    <path clip-path="url(#pc4f6d080ac)" d="M 374.276952 195.2 
L 376.560075 195.2 
L 376.560075 195.145595 
L 374.276952 195.145595 
z
" style="fill:#2708a0;"/>
   </g>
   <g id="patch_182">
    <path clip-path="url(#pc4f6d080ac)" d="M 376.560075 195.2 
L 378.843198 195.2 
L 378.843198 195.09119 
L 376.560075 195.09119 
z
" style="fill:#2708a0;"/>
   </g>
   <g id="patch_183">
    <path clip-path="url(#pc4f6d080ac)" d="M 378.843198 195.2 
L 381.126321 195.2 
L 381.126321 194.873571 
L 378.843198 194.873571 
z
" style="fill:#2708a0;"/>
   </g>
   <g id="patch_184">
    <path clip-path="url(#pc4f6d080ac)" d="M 381.126321 195.2 
L 383.409444 195.2 
L 383.409444 194.98238 
L 381.126321 194.98238 
z
" style="fill:#2708a0;"/>
   </g>
   <g id="patch_185">
    <path clip-path="url(#pc4f6d080ac)" d="M 383.409444 195.2 
L 385.692567 195.2 
L 385.692567 195.09119 
L 383.409444 195.09119 
z
" style="fill:#2708a0;"/>
   </g>
   <g id="patch_186">
    <path clip-path="url(#pc4f6d080ac)" d="M 385.692567 195.2 
L 387.97569 195.2 
L 387.97569 195.145595 
L 385.692567 195.145595 
z
" style="fill:#2708a0;"/>
   </g>
   <g id="patch_187">
    <path clip-path="url(#pc4f6d080ac)" d="M 387.97569 195.2 
L 390.258813 195.2 
L 390.258813 194.873571 
L 387.97569 194.873571 
z
" style="fill:#2708a0;"/>
   </g>
   <g id="patch_188">
    <path clip-path="url(#pc4f6d080ac)" d="M 390.258813 195.2 
L 392.541936 195.2 
L 392.541936 195.145595 
L 390.258813 195.145595 
z
" style="fill:#2708a0;"/>
   </g>
   <g id="patch_189">
    <path clip-path="url(#pc4f6d080ac)" d="M 392.541936 195.2 
L 394.825059 195.2 
L 394.825059 194.927975 
L 392.541936 194.927975 
z
" style="fill:#2708a0;"/>
   </g>
   <g id="patch_190">
    <path clip-path="url(#pc4f6d080ac)" d="M 394.825059 195.2 
L 397.108182 195.2 
L 397.108182 195.09119 
L 394.825059 195.09119 
z
" style="fill:#2708a0;"/>
   </g>
   <g id="patch_191">
    <path clip-path="url(#pc4f6d080ac)" d="M 397.108182 195.2 
L 399.391305 195.2 
L 399.391305 195.09119 
L 397.108182 195.09119 
z
" style="fill:#2708a0;"/>
   </g>
   <g id="patch_192">
    <path clip-path="url(#pc4f6d080ac)" d="M 399.391305 195.2 
L 401.674428 195.2 
L 401.674428 195.036785 
L 399.391305 195.036785 
z
" style="fill:#2708a0;"/>
   </g>
   <g id="patch_193">
    <path clip-path="url(#pc4f6d080ac)" d="M 401.674428 195.2 
L 403.957551 195.2 
L 403.957551 194.927975 
L 401.674428 194.927975 
z
" style="fill:#2708a0;"/>
   </g>
   <g id="patch_194">
    <path clip-path="url(#pc4f6d080ac)" d="M 403.957551 195.2 
L 406.240674 195.2 
L 406.240674 194.98238 
L 403.957551 194.98238 
z
" style="fill:#2708a0;"/>
   </g>
   <g id="patch_195">
    <path clip-path="url(#pc4f6d080ac)" d="M 406.240674 195.2 
L 408.523798 195.2 
L 408.523798 195.145595 
L 406.240674 195.145595 
z
" style="fill:#2708a0;"/>
   </g>
   <g id="patch_196">
    <path clip-path="url(#pc4f6d080ac)" d="M 408.523798 195.2 
L 410.806921 195.2 
L 410.806921 195.09119 
L 408.523798 195.09119 
z
" style="fill:#2708a0;"/>
   </g>
   <g id="patch_197">
    <path clip-path="url(#pc4f6d080ac)" d="M 410.806921 195.2 
L 413.090044 195.2 
L 413.090044 194.98238 
L 410.806921 194.98238 
z
" style="fill:#2708a0;"/>
   </g>
   <g id="patch_198">
    <path clip-path="url(#pc4f6d080ac)" d="M 413.090044 195.2 
L 415.373167 195.2 
L 415.373167 194.98238 
L 413.090044 194.98238 
z
" style="fill:#2708a0;"/>
   </g>
   <g id="patch_199">
    <path clip-path="url(#pc4f6d080ac)" d="M 415.373167 195.2 
L 417.65629 195.2 
L 417.65629 195.036785 
L 415.373167 195.036785 
z
" style="fill:#2708a0;"/>
   </g>
   <g id="patch_200">
    <path clip-path="url(#pc4f6d080ac)" d="M 417.65629 195.2 
L 419.939413 195.2 
L 419.939413 195.09119 
L 417.65629 195.09119 
z
" style="fill:#2708a0;"/>
   </g>
   <g id="patch_201">
    <path clip-path="url(#pc4f6d080ac)" d="M 419.939413 195.2 
L 422.222536 195.2 
L 422.222536 194.873571 
L 419.939413 194.873571 
z
" style="fill:#2708a0;"/>
   </g>
   <g id="patch_202">
    <path clip-path="url(#pc4f6d080ac)" d="M 422.222536 195.2 
L 424.505659 195.2 
L 424.505659 195.09119 
L 422.222536 195.09119 
z
" style="fill:#2708a0;"/>
   </g>
   <g id="patch_203">
    <path clip-path="url(#pc4f6d080ac)" d="M 424.505659 195.2 
L 426.788782 195.2 
L 426.788782 194.927975 
L 424.505659 194.927975 
z
" style="fill:#2708a0;"/>
   </g>
   <g id="patch_204">
    <path clip-path="url(#pc4f6d080ac)" d="M 426.788782 195.2 
L 429.071905 195.2 
L 429.071905 195.09119 
L 426.788782 195.09119 
z
" style="fill:#2708a0;"/>
   </g>
   <g id="patch_205">
    <path clip-path="url(#pc4f6d080ac)" d="M 429.071905 195.2 
L 431.355028 195.2 
L 431.355028 194.927975 
L 429.071905 194.927975 
z
" style="fill:#2708a0;"/>
   </g>
   <g id="patch_206">
    <path clip-path="url(#pc4f6d080ac)" d="M 431.355028 195.2 
L 433.638151 195.2 
L 433.638151 195.2 
L 431.355028 195.2 
z
" style="fill:#2708a0;"/>
   </g>
   <g id="patch_207">
    <path clip-path="url(#pc4f6d080ac)" d="M 433.638151 195.2 
L 435.921274 195.2 
L 435.921274 195.145595 
L 433.638151 195.145595 
z
" style="fill:#2708a0;"/>
   </g>
   <g id="patch_208">
    <path clip-path="url(#pc4f6d080ac)" d="M 435.921274 195.2 
L 438.204397 195.2 
L 438.204397 195.2 
L 435.921274 195.2 
z
" style="fill:#2708a0;"/>
   </g>
   <g id="patch_209">
    <path clip-path="url(#pc4f6d080ac)" d="M 438.204397 195.2 
L 440.487521 195.2 
L 440.487521 195.2 
L 438.204397 195.2 
z
" style="fill:#2708a0;"/>
   </g>
   <g id="patch_210">
    <path clip-path="url(#pc4f6d080ac)" d="M 440.487521 195.2 
L 442.770644 195.2 
L 442.770644 195.2 
L 440.487521 195.2 
z
" style="fill:#2708a0;"/>
   </g>
   <g id="patch_211">
    <path clip-path="url(#pc4f6d080ac)" d="M 442.770644 195.2 
L 445.053767 195.2 
L 445.053767 195.2 
L 442.770644 195.2 
z
" style="fill:#2708a0;"/>
   </g>
   <g id="patch_212">
    <path clip-path="url(#pc4f6d080ac)" d="M 445.053767 195.2 
L 447.33689 195.2 
L 447.33689 195.2 
L 445.053767 195.2 
z
" style="fill:#2708a0;"/>
   </g>
   <g id="patch_213">
    <path clip-path="url(#pc4f6d080ac)" d="M 447.33689 195.2 
L 449.620013 195.2 
L 449.620013 195.2 
L 447.33689 195.2 
z
" style="fill:#2708a0;"/>
   </g>
   <g id="patch_214">
    <path clip-path="url(#pc4f6d080ac)" d="M 449.620013 195.2 
L 451.903136 195.2 
L 451.903136 195.2 
L 449.620013 195.2 
z
" style="fill:#2708a0;"/>
   </g>
   <g id="patch_215">
    <path clip-path="url(#pc4f6d080ac)" d="M 451.903136 195.2 
L 454.186259 195.2 
L 454.186259 195.2 
L 451.903136 195.2 
z
" style="fill:#2708a0;"/>
   </g>
   <g id="patch_216">
    <path clip-path="url(#pc4f6d080ac)" d="M 454.186259 195.2 
L 456.469382 195.2 
L 456.469382 195.2 
L 454.186259 195.2 
z
" style="fill:#2708a0;"/>
   </g>
   <g id="patch_217">
    <path clip-path="url(#pc4f6d080ac)" d="M 456.469382 195.2 
L 458.752505 195.2 
L 458.752505 195.2 
L 456.469382 195.2 
z
" style="fill:#2708a0;"/>
   </g>
   <g id="patch_218">
    <path clip-path="url(#pc4f6d080ac)" d="M 458.752505 195.2 
L 461.035628 195.2 
L 461.035628 195.2 
L 458.752505 195.2 
z
" style="fill:#2708a0;"/>
   </g>
   <g id="patch_219">
    <path clip-path="url(#pc4f6d080ac)" d="M 461.035628 195.2 
L 463.318751 195.2 
L 463.318751 195.2 
L 461.035628 195.2 
z
" style="fill:#2708a0;"/>
   </g>
   <g id="patch_220">
    <path clip-path="url(#pc4f6d080ac)" d="M 463.318751 195.2 
L 465.601874 195.2 
L 465.601874 195.2 
L 463.318751 195.2 
z
" style="fill:#2708a0;"/>
   </g>
   <g id="patch_221">
    <path clip-path="url(#pc4f6d080ac)" d="M 465.601874 195.2 
L 467.884997 195.2 
L 467.884997 195.2 
L 465.601874 195.2 
z
" style="fill:#2708a0;"/>
   </g>
   <g id="patch_222">
    <path clip-path="url(#pc4f6d080ac)" d="M 467.884997 195.2 
L 470.16812 195.2 
L 470.16812 195.2 
L 467.884997 195.2 
z
" style="fill:#2708a0;"/>
   </g>
   <g id="patch_223">
    <path clip-path="url(#pc4f6d080ac)" d="M 470.16812 195.2 
L 472.451244 195.2 
L 472.451244 195.2 
L 470.16812 195.2 
z
" style="fill:#2708a0;"/>
   </g>
   <g id="patch_224">
    <path clip-path="url(#pc4f6d080ac)" d="M 472.451244 195.2 
L 474.734367 195.2 
L 474.734367 195.2 
L 472.451244 195.2 
z
" style="fill:#2708a0;"/>
   </g>
   <g id="patch_225">
    <path clip-path="url(#pc4f6d080ac)" d="M 474.734367 195.2 
L 477.01749 195.2 
L 477.01749 195.2 
L 474.734367 195.2 
z
" style="fill:#2708a0;"/>
   </g>
   <g id="patch_226">
    <path clip-path="url(#pc4f6d080ac)" d="M 477.01749 195.2 
L 479.300613 195.2 
L 479.300613 195.2 
L 477.01749 195.2 
z
" style="fill:#2708a0;"/>
   </g>
   <g id="patch_227">
    <path clip-path="url(#pc4f6d080ac)" d="M 479.300613 195.2 
L 481.583736 195.2 
L 481.583736 195.2 
L 479.300613 195.2 
z
" style="fill:#2708a0;"/>
   </g>
   <g id="patch_228">
    <path clip-path="url(#pc4f6d080ac)" d="M 481.583736 195.2 
L 483.866859 195.2 
L 483.866859 195.2 
L 481.583736 195.2 
z
" style="fill:#2708a0;"/>
   </g>
   <g id="patch_229">
    <path clip-path="url(#pc4f6d080ac)" d="M 483.866859 195.2 
L 486.149982 195.2 
L 486.149982 195.2 
L 483.866859 195.2 
z
" style="fill:#2708a0;"/>
   </g>
   <g id="patch_230">
    <path clip-path="url(#pc4f6d080ac)" d="M 486.149982 195.2 
L 488.433105 195.2 
L 488.433105 195.2 
L 486.149982 195.2 
z
" style="fill:#2708a0;"/>
   </g>
   <g id="patch_231">
    <path clip-path="url(#pc4f6d080ac)" d="M 488.433105 195.2 
L 490.716228 195.2 
L 490.716228 195.2 
L 488.433105 195.2 
z
" style="fill:#2708a0;"/>
   </g>
   <g id="patch_232">
    <path clip-path="url(#pc4f6d080ac)" d="M 490.716228 195.2 
L 492.999351 195.2 
L 492.999351 195.2 
L 490.716228 195.2 
z
" style="fill:#2708a0;"/>
   </g>
   <g id="patch_233">
    <path clip-path="url(#pc4f6d080ac)" d="M 492.999351 195.2 
L 495.282474 195.2 
L 495.282474 195.2 
L 492.999351 195.2 
z
" style="fill:#2708a0;"/>
   </g>
   <g id="patch_234">
    <path clip-path="url(#pc4f6d080ac)" d="M 495.282474 195.2 
L 497.565597 195.2 
L 497.565597 195.2 
L 495.282474 195.2 
z
" style="fill:#2708a0;"/>
   </g>
   <g id="patch_235">
    <path clip-path="url(#pc4f6d080ac)" d="M 497.565597 195.2 
L 499.84872 195.2 
L 499.84872 195.2 
L 497.565597 195.2 
z
" style="fill:#2708a0;"/>
   </g>
   <g id="patch_236">
    <path clip-path="url(#pc4f6d080ac)" d="M 499.84872 195.2 
L 502.131843 195.2 
L 502.131843 195.2 
L 499.84872 195.2 
z
" style="fill:#2708a0;"/>
   </g>
   <g id="patch_237">
    <path clip-path="url(#pc4f6d080ac)" d="M 502.131843 195.2 
L 504.414966 195.2 
L 504.414966 195.2 
L 502.131843 195.2 
z
" style="fill:#2708a0;"/>
   </g>
   <g id="patch_238">
    <path clip-path="url(#pc4f6d080ac)" d="M 504.414966 195.2 
L 506.69809 195.2 
L 506.69809 195.2 
L 504.414966 195.2 
z
" style="fill:#2708a0;"/>
   </g>
   <g id="patch_239">
    <path clip-path="url(#pc4f6d080ac)" d="M 506.69809 195.2 
L 508.981213 195.2 
L 508.981213 195.2 
L 506.69809 195.2 
z
" style="fill:#2708a0;"/>
   </g>
   <g id="patch_240">
    <path clip-path="url(#pc4f6d080ac)" d="M 508.981213 195.2 
L 511.264336 195.2 
L 511.264336 195.2 
L 508.981213 195.2 
z
" style="fill:#2708a0;"/>
   </g>
   <g id="patch_241">
    <path clip-path="url(#pc4f6d080ac)" d="M 511.264336 195.2 
L 513.547459 195.2 
L 513.547459 195.2 
L 511.264336 195.2 
z
" style="fill:#2708a0;"/>
   </g>
   <g id="patch_242">
    <path clip-path="url(#pc4f6d080ac)" d="M 513.547459 195.2 
L 515.830582 195.2 
L 515.830582 195.2 
L 513.547459 195.2 
z
" style="fill:#2708a0;"/>
   </g>
   <g id="patch_243">
    <path clip-path="url(#pc4f6d080ac)" d="M 515.830582 195.2 
L 518.113705 195.2 
L 518.113705 195.2 
L 515.830582 195.2 
z
" style="fill:#2708a0;"/>
   </g>
   <g id="patch_244">
    <path clip-path="url(#pc4f6d080ac)" d="M 518.113705 195.2 
L 520.396828 195.2 
L 520.396828 195.2 
L 518.113705 195.2 
z
" style="fill:#2708a0;"/>
   </g>
   <g id="patch_245">
    <path clip-path="url(#pc4f6d080ac)" d="M 520.396828 195.2 
L 522.679951 195.2 
L 522.679951 195.2 
L 520.396828 195.2 
z
" style="fill:#2708a0;"/>
   </g>
   <g id="patch_246">
    <path clip-path="url(#pc4f6d080ac)" d="M 522.679951 195.2 
L 524.963074 195.2 
L 524.963074 195.2 
L 522.679951 195.2 
z
" style="fill:#2708a0;"/>
   </g>
   <g id="patch_247">
    <path clip-path="url(#pc4f6d080ac)" d="M 524.963074 195.2 
L 527.246197 195.2 
L 527.246197 195.2 
L 524.963074 195.2 
z
" style="fill:#2708a0;"/>
   </g>
   <g id="patch_248">
    <path clip-path="url(#pc4f6d080ac)" d="M 527.246197 195.2 
L 529.52932 195.2 
L 529.52932 195.2 
L 527.246197 195.2 
z
" style="fill:#2708a0;"/>
   </g>
   <g id="patch_249">
    <path clip-path="url(#pc4f6d080ac)" d="M 529.52932 195.2 
L 531.812443 195.2 
L 531.812443 195.2 
L 529.52932 195.2 
z
" style="fill:#2708a0;"/>
   </g>
   <g id="patch_250">
    <path clip-path="url(#pc4f6d080ac)" d="M 531.812443 195.2 
L 534.095566 195.2 
L 534.095566 195.2 
L 531.812443 195.2 
z
" style="fill:#2708a0;"/>
   </g>
   <g id="patch_251">
    <path clip-path="url(#pc4f6d080ac)" d="M 534.095566 195.2 
L 536.378689 195.2 
L 536.378689 195.2 
L 534.095566 195.2 
z
" style="fill:#2708a0;"/>
   </g>
   <g id="patch_252">
    <path clip-path="url(#pc4f6d080ac)" d="M 536.378689 195.2 
L 538.661813 195.2 
L 538.661813 195.2 
L 536.378689 195.2 
z
" style="fill:#2708a0;"/>
   </g>
   <g id="patch_253">
    <path clip-path="url(#pc4f6d080ac)" d="M 538.661813 195.2 
L 540.944936 195.2 
L 540.944936 195.2 
L 538.661813 195.2 
z
" style="fill:#2708a0;"/>
   </g>
   <g id="patch_254">
    <path clip-path="url(#pc4f6d080ac)" d="M 540.944936 195.2 
L 543.228059 195.2 
L 543.228059 195.2 
L 540.944936 195.2 
z
" style="fill:#2708a0;"/>
   </g>
   <g id="patch_255">
    <path clip-path="url(#pc4f6d080ac)" d="M 543.228059 195.2 
L 545.511182 195.2 
L 545.511182 195.2 
L 543.228059 195.2 
z
" style="fill:#2708a0;"/>
   </g>
   <g id="patch_256">
    <path clip-path="url(#pc4f6d080ac)" d="M 545.511182 195.2 
L 547.794305 195.2 
L 547.794305 195.2 
L 545.511182 195.2 
z
" style="fill:#2708a0;"/>
   </g>
   <g id="patch_257">
    <path clip-path="url(#pc4f6d080ac)" d="M 547.794305 195.2 
L 550.077428 195.2 
L 550.077428 195.2 
L 547.794305 195.2 
z
" style="fill:#2708a0;"/>
   </g>
   <g id="patch_258">
    <path clip-path="url(#pc4f6d080ac)" d="M 550.077428 195.2 
L 552.360551 195.2 
L 552.360551 195.145595 
L 550.077428 195.145595 
z
" style="fill:#2708a0;"/>
   </g>
   <g id="matplotlib.axis_1">
    <g id="xtick_1">
     <g id="line2d_1">
      <defs>
       <path d="M 0 0 
L 0 3.5 
" id="m792eb909f0" style="stroke:#000000;stroke-width:0.8;"/>
      </defs>
      <g>
       <use style="stroke:#000000;stroke-width:0.8;" x="60.05" xlink:href="#m792eb909f0" y="195.2"/>
      </g>
     </g>
     <g id="text_1">
      <!-- -20% -->
      <defs>
       <path d="M 4.890625 31.390625 
L 31.203125 31.390625 
L 31.203125 23.390625 
L 4.890625 23.390625 
z
" id="DejaVuSans-45"/>
       <path d="M 19.1875 8.296875 
L 53.609375 8.296875 
L 53.609375 0 
L 7.328125 0 
L 7.328125 8.296875 
Q 12.9375 14.109375 22.625 23.890625 
Q 32.328125 33.6875 34.8125 36.53125 
Q 39.546875 41.84375 41.421875 45.53125 
Q 43.3125 49.21875 43.3125 52.78125 
Q 43.3125 58.59375 39.234375 62.25 
Q 35.15625 65.921875 28.609375 65.921875 
Q 23.96875 65.921875 18.8125 64.3125 
Q 13.671875 62.703125 7.8125 59.421875 
L 7.8125 69.390625 
Q 13.765625 71.78125 18.9375 73 
Q 24.125 74.21875 28.421875 74.21875 
Q 39.75 74.21875 46.484375 68.546875 
Q 53.21875 62.890625 53.21875 53.421875 
Q 53.21875 48.921875 51.53125 44.890625 
Q 49.859375 40.875 45.40625 35.40625 
Q 44.1875 33.984375 37.640625 27.21875 
Q 31.109375 20.453125 19.1875 8.296875 
z
" id="DejaVuSans-50"/>
       <path d="M 31.78125 66.40625 
Q 24.171875 66.40625 20.328125 58.90625 
Q 16.5 51.421875 16.5 36.375 
Q 16.5 21.390625 20.328125 13.890625 
Q 24.171875 6.390625 31.78125 6.390625 
Q 39.453125 6.390625 43.28125 13.890625 
Q 47.125 21.390625 47.125 36.375 
Q 47.125 51.421875 43.28125 58.90625 
Q 39.453125 66.40625 31.78125 66.40625 
z
M 31.78125 74.21875 
Q 44.046875 74.21875 50.515625 64.515625 
Q 56.984375 54.828125 56.984375 36.375 
Q 56.984375 17.96875 50.515625 8.265625 
Q 44.046875 -1.421875 31.78125 -1.421875 
Q 19.53125 -1.421875 13.0625 8.265625 
Q 6.59375 17.96875 6.59375 36.375 
Q 6.59375 54.828125 13.0625 64.515625 
Q 19.53125 74.21875 31.78125 74.21875 
z
" id="DejaVuSans-48"/>
       <path d="M 72.703125 32.078125 
Q 68.453125 32.078125 66.03125 28.46875 
Q 63.625 24.859375 63.625 18.40625 
Q 63.625 12.0625 66.03125 8.421875 
Q 68.453125 4.78125 72.703125 4.78125 
Q 76.859375 4.78125 79.265625 8.421875 
Q 81.6875 12.0625 81.6875 18.40625 
Q 81.6875 24.8125 79.265625 28.4375 
Q 76.859375 32.078125 72.703125 32.078125 
z
M 72.703125 38.28125 
Q 80.421875 38.28125 84.953125 32.90625 
Q 89.5 27.546875 89.5 18.40625 
Q 89.5 9.28125 84.9375 3.921875 
Q 80.375 -1.421875 72.703125 -1.421875 
Q 64.890625 -1.421875 60.34375 3.921875 
Q 55.8125 9.28125 55.8125 18.40625 
Q 55.8125 27.59375 60.375 32.9375 
Q 64.9375 38.28125 72.703125 38.28125 
z
M 22.3125 68.015625 
Q 18.109375 68.015625 15.6875 64.375 
Q 13.28125 60.75 13.28125 54.390625 
Q 13.28125 47.953125 15.671875 44.328125 
Q 18.0625 40.71875 22.3125 40.71875 
Q 26.5625 40.71875 28.96875 44.328125 
Q 31.390625 47.953125 31.390625 54.390625 
Q 31.390625 60.6875 28.953125 64.34375 
Q 26.515625 68.015625 22.3125 68.015625 
z
M 66.40625 74.21875 
L 74.21875 74.21875 
L 28.609375 -1.421875 
L 20.796875 -1.421875 
z
M 22.3125 74.21875 
Q 30.03125 74.21875 34.609375 68.875 
Q 39.203125 63.53125 39.203125 54.390625 
Q 39.203125 45.171875 34.640625 39.84375 
Q 30.078125 34.515625 22.3125 34.515625 
Q 14.546875 34.515625 10.03125 39.859375 
Q 5.515625 45.21875 5.515625 54.390625 
Q 5.515625 63.484375 10.046875 68.84375 
Q 14.59375 74.21875 22.3125 74.21875 
z
" id="DejaVuSans-37"/>
      </defs>
      <g transform="translate(47.132812 209.798438)scale(0.1 -0.1)">
       <use xlink:href="#DejaVuSans-45"/>
       <use x="36.083984" xlink:href="#DejaVuSans-50"/>
       <use x="99.707031" xlink:href="#DejaVuSans-48"/>
       <use x="163.330078" xlink:href="#DejaVuSans-37"/>
      </g>
     </g>
    </g>
    <g id="xtick_2">
     <g id="line2d_2">
      <g>
       <use style="stroke:#000000;stroke-width:0.8;" x="94.81875" xlink:href="#m792eb909f0" y="195.2"/>
      </g>
     </g>
     <g id="text_2">
      <!-- -15% -->
      <defs>
       <path d="M 12.40625 8.296875 
L 28.515625 8.296875 
L 28.515625 63.921875 
L 10.984375 60.40625 
L 10.984375 69.390625 
L 28.421875 72.90625 
L 38.28125 72.90625 
L 38.28125 8.296875 
L 54.390625 8.296875 
L 54.390625 0 
L 12.40625 0 
z
" id="DejaVuSans-49"/>
       <path d="M 10.796875 72.90625 
L 49.515625 72.90625 
L 49.515625 64.59375 
L 19.828125 64.59375 
L 19.828125 46.734375 
Q 21.96875 47.46875 24.109375 47.828125 
Q 26.265625 48.1875 28.421875 48.1875 
Q 40.625 48.1875 47.75 41.5 
Q 54.890625 34.8125 54.890625 23.390625 
Q 54.890625 11.625 47.5625 5.09375 
Q 40.234375 -1.421875 26.90625 -1.421875 
Q 22.3125 -1.421875 17.546875 -0.640625 
Q 12.796875 0.140625 7.71875 1.703125 
L 7.71875 11.625 
Q 12.109375 9.234375 16.796875 8.0625 
Q 21.484375 6.890625 26.703125 6.890625 
Q 35.15625 6.890625 40.078125 11.328125 
Q 45.015625 15.765625 45.015625 23.390625 
Q 45.015625 31 40.078125 35.4375 
Q 35.15625 39.890625 26.703125 39.890625 
Q 22.75 39.890625 18.8125 39.015625 
Q 14.890625 38.140625 10.796875 36.28125 
z
" id="DejaVuSans-53"/>
      </defs>
      <g transform="translate(81.901562 209.798438)scale(0.1 -0.1)">
       <use xlink:href="#DejaVuSans-45"/>
       <use x="36.083984" xlink:href="#DejaVuSans-49"/>
       <use x="99.707031" xlink:href="#DejaVuSans-53"/>
       <use x="163.330078" xlink:href="#DejaVuSans-37"/>
      </g>
     </g>
    </g>
    <g id="xtick_3">
     <g id="line2d_3">
      <g>
       <use style="stroke:#000000;stroke-width:0.8;" x="129.5875" xlink:href="#m792eb909f0" y="195.2"/>
      </g>
     </g>
     <g id="text_3">
      <!-- -10% -->
      <g transform="translate(116.670312 209.798438)scale(0.1 -0.1)">
       <use xlink:href="#DejaVuSans-45"/>
       <use x="36.083984" xlink:href="#DejaVuSans-49"/>
       <use x="99.707031" xlink:href="#DejaVuSans-48"/>
       <use x="163.330078" xlink:href="#DejaVuSans-37"/>
      </g>
     </g>
    </g>
    <g id="xtick_4">
     <g id="line2d_4">
      <g>
       <use style="stroke:#000000;stroke-width:0.8;" x="164.35625" xlink:href="#m792eb909f0" y="195.2"/>
      </g>
     </g>
     <g id="text_4">
      <!-- -5% -->
      <g transform="translate(154.620313 209.798438)scale(0.1 -0.1)">
       <use xlink:href="#DejaVuSans-45"/>
       <use x="36.083984" xlink:href="#DejaVuSans-53"/>
       <use x="99.707031" xlink:href="#DejaVuSans-37"/>
      </g>
     </g>
    </g>
    <g id="xtick_5">
     <g id="line2d_5">
      <g>
       <use style="stroke:#000000;stroke-width:0.8;" x="199.125" xlink:href="#m792eb909f0" y="195.2"/>
      </g>
     </g>
     <g id="text_5">
      <!-- 0% -->
      <g transform="translate(191.192969 209.798438)scale(0.1 -0.1)">
       <use xlink:href="#DejaVuSans-48"/>
       <use x="63.623047" xlink:href="#DejaVuSans-37"/>
      </g>
     </g>
    </g>
    <g id="xtick_6">
     <g id="line2d_6">
      <g>
       <use style="stroke:#000000;stroke-width:0.8;" x="233.89375" xlink:href="#m792eb909f0" y="195.2"/>
      </g>
     </g>
     <g id="text_6">
      <!-- 5% -->
      <g transform="translate(225.961719 209.798438)scale(0.1 -0.1)">
       <use xlink:href="#DejaVuSans-53"/>
       <use x="63.623047" xlink:href="#DejaVuSans-37"/>
      </g>
     </g>
    </g>
    <g id="xtick_7">
     <g id="line2d_7">
      <g>
       <use style="stroke:#000000;stroke-width:0.8;" x="268.6625" xlink:href="#m792eb909f0" y="195.2"/>
      </g>
     </g>
     <g id="text_7">
      <!-- 10% -->
      <g transform="translate(257.549219 209.798438)scale(0.1 -0.1)">
       <use xlink:href="#DejaVuSans-49"/>
       <use x="63.623047" xlink:href="#DejaVuSans-48"/>
       <use x="127.246094" xlink:href="#DejaVuSans-37"/>
      </g>
     </g>
    </g>
    <g id="xtick_8">
     <g id="line2d_8">
      <g>
       <use style="stroke:#000000;stroke-width:0.8;" x="303.43125" xlink:href="#m792eb909f0" y="195.2"/>
      </g>
     </g>
     <g id="text_8">
      <!-- 15% -->
      <g transform="translate(292.317969 209.798438)scale(0.1 -0.1)">
       <use xlink:href="#DejaVuSans-49"/>
       <use x="63.623047" xlink:href="#DejaVuSans-53"/>
       <use x="127.246094" xlink:href="#DejaVuSans-37"/>
      </g>
     </g>
    </g>
    <g id="xtick_9">
     <g id="line2d_9">
      <g>
       <use style="stroke:#000000;stroke-width:0.8;" x="338.2" xlink:href="#m792eb909f0" y="195.2"/>
      </g>
     </g>
     <g id="text_9">
      <!-- 20% -->
      <g transform="translate(327.086719 209.798438)scale(0.1 -0.1)">
       <use xlink:href="#DejaVuSans-50"/>
       <use x="63.623047" xlink:href="#DejaVuSans-48"/>
       <use x="127.246094" xlink:href="#DejaVuSans-37"/>
      </g>
     </g>
    </g>
    <g id="text_10">
     <!-- Adjusted tempo -->
     <defs>
      <path d="M 34.1875 63.1875 
L 20.796875 26.90625 
L 47.609375 26.90625 
z
M 28.609375 72.90625 
L 39.796875 72.90625 
L 67.578125 0 
L 57.328125 0 
L 50.6875 18.703125 
L 17.828125 18.703125 
L 11.1875 0 
L 0.78125 0 
z
" id="DejaVuSans-65"/>
      <path d="M 45.40625 46.390625 
L 45.40625 75.984375 
L 54.390625 75.984375 
L 54.390625 0 
L 45.40625 0 
L 45.40625 8.203125 
Q 42.578125 3.328125 38.25 0.953125 
Q 33.9375 -1.421875 27.875 -1.421875 
Q 17.96875 -1.421875 11.734375 6.484375 
Q 5.515625 14.40625 5.515625 27.296875 
Q 5.515625 40.1875 11.734375 48.09375 
Q 17.96875 56 27.875 56 
Q 33.9375 56 38.25 53.625 
Q 42.578125 51.265625 45.40625 46.390625 
z
M 14.796875 27.296875 
Q 14.796875 17.390625 18.875 11.75 
Q 22.953125 6.109375 30.078125 6.109375 
Q 37.203125 6.109375 41.296875 11.75 
Q 45.40625 17.390625 45.40625 27.296875 
Q 45.40625 37.203125 41.296875 42.84375 
Q 37.203125 48.484375 30.078125 48.484375 
Q 22.953125 48.484375 18.875 42.84375 
Q 14.796875 37.203125 14.796875 27.296875 
z
" id="DejaVuSans-100"/>
      <path d="M 9.421875 54.6875 
L 18.40625 54.6875 
L 18.40625 -0.984375 
Q 18.40625 -11.421875 14.421875 -16.109375 
Q 10.453125 -20.796875 1.609375 -20.796875 
L -1.8125 -20.796875 
L -1.8125 -13.1875 
L 0.59375 -13.1875 
Q 5.71875 -13.1875 7.5625 -10.8125 
Q 9.421875 -8.453125 9.421875 -0.984375 
z
M 9.421875 75.984375 
L 18.40625 75.984375 
L 18.40625 64.59375 
L 9.421875 64.59375 
z
" id="DejaVuSans-106"/>
      <path d="M 8.5 21.578125 
L 8.5 54.6875 
L 17.484375 54.6875 
L 17.484375 21.921875 
Q 17.484375 14.15625 20.5 10.265625 
Q 23.53125 6.390625 29.59375 6.390625 
Q 36.859375 6.390625 41.078125 11.03125 
Q 45.3125 15.671875 45.3125 23.6875 
L 45.3125 54.6875 
L 54.296875 54.6875 
L 54.296875 0 
L 45.3125 0 
L 45.3125 8.40625 
Q 42.046875 3.421875 37.71875 1 
Q 33.40625 -1.421875 27.6875 -1.421875 
Q 18.265625 -1.421875 13.375 4.4375 
Q 8.5 10.296875 8.5 21.578125 
z
M 31.109375 56 
z
" id="DejaVuSans-117"/>
      <path d="M 44.28125 53.078125 
L 44.28125 44.578125 
Q 40.484375 46.53125 36.375 47.5 
Q 32.28125 48.484375 27.875 48.484375 
Q 21.1875 48.484375 17.84375 46.4375 
Q 14.5 44.390625 14.5 40.28125 
Q 14.5 37.15625 16.890625 35.375 
Q 19.28125 33.59375 26.515625 31.984375 
L 29.59375 31.296875 
Q 39.15625 29.25 43.1875 25.515625 
Q 47.21875 21.78125 47.21875 15.09375 
Q 47.21875 7.46875 41.1875 3.015625 
Q 35.15625 -1.421875 24.609375 -1.421875 
Q 20.21875 -1.421875 15.453125 -0.5625 
Q 10.6875 0.296875 5.421875 2 
L 5.421875 11.28125 
Q 10.40625 8.6875 15.234375 7.390625 
Q 20.0625 6.109375 24.8125 6.109375 
Q 31.15625 6.109375 34.5625 8.28125 
Q 37.984375 10.453125 37.984375 14.40625 
Q 37.984375 18.0625 35.515625 20.015625 
Q 33.0625 21.96875 24.703125 23.78125 
L 21.578125 24.515625 
Q 13.234375 26.265625 9.515625 29.90625 
Q 5.8125 33.546875 5.8125 39.890625 
Q 5.8125 47.609375 11.28125 51.796875 
Q 16.75 56 26.8125 56 
Q 31.78125 56 36.171875 55.265625 
Q 40.578125 54.546875 44.28125 53.078125 
z
" id="DejaVuSans-115"/>
      <path d="M 18.3125 70.21875 
L 18.3125 54.6875 
L 36.8125 54.6875 
L 36.8125 47.703125 
L 18.3125 47.703125 
L 18.3125 18.015625 
Q 18.3125 11.328125 20.140625 9.421875 
Q 21.96875 7.515625 27.59375 7.515625 
L 36.8125 7.515625 
L 36.8125 0 
L 27.59375 0 
Q 17.1875 0 13.234375 3.875 
Q 9.28125 7.765625 9.28125 18.015625 
L 9.28125 47.703125 
L 2.6875 47.703125 
L 2.6875 54.6875 
L 9.28125 54.6875 
L 9.28125 70.21875 
z
" id="DejaVuSans-116"/>
      <path d="M 56.203125 29.59375 
L 56.203125 25.203125 
L 14.890625 25.203125 
Q 15.484375 15.921875 20.484375 11.0625 
Q 25.484375 6.203125 34.421875 6.203125 
Q 39.59375 6.203125 44.453125 7.46875 
Q 49.3125 8.734375 54.109375 11.28125 
L 54.109375 2.78125 
Q 49.265625 0.734375 44.1875 -0.34375 
Q 39.109375 -1.421875 33.890625 -1.421875 
Q 20.796875 -1.421875 13.15625 6.1875 
Q 5.515625 13.8125 5.515625 26.8125 
Q 5.515625 40.234375 12.765625 48.109375 
Q 20.015625 56 32.328125 56 
Q 43.359375 56 49.78125 48.890625 
Q 56.203125 41.796875 56.203125 29.59375 
z
M 47.21875 32.234375 
Q 47.125 39.59375 43.09375 43.984375 
Q 39.0625 48.390625 32.421875 48.390625 
Q 24.90625 48.390625 20.390625 44.140625 
Q 15.875 39.890625 15.1875 32.171875 
z
" id="DejaVuSans-101"/>
      <path id="DejaVuSans-32"/>
      <path d="M 52 44.1875 
Q 55.375 50.25 60.0625 53.125 
Q 64.75 56 71.09375 56 
Q 79.640625 56 84.28125 50.015625 
Q 88.921875 44.046875 88.921875 33.015625 
L 88.921875 0 
L 79.890625 0 
L 79.890625 32.71875 
Q 79.890625 40.578125 77.09375 44.375 
Q 74.3125 48.1875 68.609375 48.1875 
Q 61.625 48.1875 57.5625 43.546875 
Q 53.515625 38.921875 53.515625 30.90625 
L 53.515625 0 
L 44.484375 0 
L 44.484375 32.71875 
Q 44.484375 40.625 41.703125 44.40625 
Q 38.921875 48.1875 33.109375 48.1875 
Q 26.21875 48.1875 22.15625 43.53125 
Q 18.109375 38.875 18.109375 30.90625 
L 18.109375 0 
L 9.078125 0 
L 9.078125 54.6875 
L 18.109375 54.6875 
L 18.109375 46.1875 
Q 21.1875 51.21875 25.484375 53.609375 
Q 29.78125 56 35.6875 56 
Q 41.65625 56 45.828125 52.96875 
Q 50 49.953125 52 44.1875 
z
" id="DejaVuSans-109"/>
      <path d="M 18.109375 8.203125 
L 18.109375 -20.796875 
L 9.078125 -20.796875 
L 9.078125 54.6875 
L 18.109375 54.6875 
L 18.109375 46.390625 
Q 20.953125 51.265625 25.265625 53.625 
Q 29.59375 56 35.59375 56 
Q 45.5625 56 51.78125 48.09375 
Q 58.015625 40.1875 58.015625 27.296875 
Q 58.015625 14.40625 51.78125 6.484375 
Q 45.5625 -1.421875 35.59375 -1.421875 
Q 29.59375 -1.421875 25.265625 0.953125 
Q 20.953125 3.328125 18.109375 8.203125 
z
M 48.6875 27.296875 
Q 48.6875 37.203125 44.609375 42.84375 
Q 40.53125 48.484375 33.40625 48.484375 
Q 26.265625 48.484375 22.1875 42.84375 
Q 18.109375 37.203125 18.109375 27.296875 
Q 18.109375 17.390625 22.1875 11.75 
Q 26.265625 6.109375 33.40625 6.109375 
Q 40.53125 6.109375 44.609375 11.75 
Q 48.6875 17.390625 48.6875 27.296875 
z
" id="DejaVuSans-112"/>
      <path d="M 30.609375 48.390625 
Q 23.390625 48.390625 19.1875 42.75 
Q 14.984375 37.109375 14.984375 27.296875 
Q 14.984375 17.484375 19.15625 11.84375 
Q 23.34375 6.203125 30.609375 6.203125 
Q 37.796875 6.203125 41.984375 11.859375 
Q 46.1875 17.53125 46.1875 27.296875 
Q 46.1875 37.015625 41.984375 42.703125 
Q 37.796875 48.390625 30.609375 48.390625 
z
M 30.609375 56 
Q 42.328125 56 49.015625 48.375 
Q 55.71875 40.765625 55.71875 27.296875 
Q 55.71875 13.875 49.015625 6.21875 
Q 42.328125 -1.421875 30.609375 -1.421875 
Q 18.84375 -1.421875 12.171875 6.21875 
Q 5.515625 13.875 5.515625 27.296875 
Q 5.515625 40.765625 12.171875 48.375 
Q 18.84375 56 30.609375 56 
z
" id="DejaVuSans-111"/>
     </defs>
     <g transform="translate(151.592813 224.99625)scale(0.12 -0.12)">
      <use xlink:href="#DejaVuSans-65"/>
      <use x="66.658203" xlink:href="#DejaVuSans-100"/>
      <use x="130.134766" xlink:href="#DejaVuSans-106"/>
      <use x="157.917969" xlink:href="#DejaVuSans-117"/>
      <use x="221.296875" xlink:href="#DejaVuSans-115"/>
      <use x="273.396484" xlink:href="#DejaVuSans-116"/>
      <use x="312.605469" xlink:href="#DejaVuSans-101"/>
      <use x="374.128906" xlink:href="#DejaVuSans-100"/>
      <use x="437.605469" xlink:href="#DejaVuSans-32"/>
      <use x="469.392578" xlink:href="#DejaVuSans-116"/>
      <use x="508.601562" xlink:href="#DejaVuSans-101"/>
      <use x="570.125" xlink:href="#DejaVuSans-109"/>
      <use x="667.537109" xlink:href="#DejaVuSans-112"/>
      <use x="731.013672" xlink:href="#DejaVuSans-111"/>
     </g>
    </g>
   </g>
   <g id="matplotlib.axis_2">
    <g id="ytick_1">
     <g id="line2d_10">
      <defs>
       <path d="M 0 0 
L -3.5 0 
" id="md3780b5fd3" style="stroke:#000000;stroke-width:0.8;"/>
      </defs>
      <g>
       <use style="stroke:#000000;stroke-width:0.8;" x="60.05" xlink:href="#md3780b5fd3" y="195.2"/>
      </g>
     </g>
     <g id="text_11">
      <!-- 0 -->
      <g transform="translate(46.6875 198.999219)scale(0.1 -0.1)">
       <use xlink:href="#DejaVuSans-48"/>
      </g>
     </g>
    </g>
    <g id="ytick_2">
     <g id="line2d_11">
      <g>
       <use style="stroke:#000000;stroke-width:0.8;" x="60.05" xlink:href="#md3780b5fd3" y="167.997545"/>
      </g>
     </g>
     <g id="text_12">
      <!-- 500 -->
      <g transform="translate(33.9625 171.796764)scale(0.1 -0.1)">
       <use xlink:href="#DejaVuSans-53"/>
       <use x="63.623047" xlink:href="#DejaVuSans-48"/>
       <use x="127.246094" xlink:href="#DejaVuSans-48"/>
      </g>
     </g>
    </g>
    <g id="ytick_3">
     <g id="line2d_12">
      <g>
       <use style="stroke:#000000;stroke-width:0.8;" x="60.05" xlink:href="#md3780b5fd3" y="140.795091"/>
      </g>
     </g>
     <g id="text_13">
      <!-- 1000 -->
      <g transform="translate(27.6 144.594309)scale(0.1 -0.1)">
       <use xlink:href="#DejaVuSans-49"/>
       <use x="63.623047" xlink:href="#DejaVuSans-48"/>
       <use x="127.246094" xlink:href="#DejaVuSans-48"/>
       <use x="190.869141" xlink:href="#DejaVuSans-48"/>
      </g>
     </g>
    </g>
    <g id="ytick_4">
     <g id="line2d_13">
      <g>
       <use style="stroke:#000000;stroke-width:0.8;" x="60.05" xlink:href="#md3780b5fd3" y="113.592636"/>
      </g>
     </g>
     <g id="text_14">
      <!-- 1500 -->
      <g transform="translate(27.6 117.391855)scale(0.1 -0.1)">
       <use xlink:href="#DejaVuSans-49"/>
       <use x="63.623047" xlink:href="#DejaVuSans-53"/>
       <use x="127.246094" xlink:href="#DejaVuSans-48"/>
       <use x="190.869141" xlink:href="#DejaVuSans-48"/>
      </g>
     </g>
    </g>
    <g id="ytick_5">
     <g id="line2d_14">
      <g>
       <use style="stroke:#000000;stroke-width:0.8;" x="60.05" xlink:href="#md3780b5fd3" y="86.390181"/>
      </g>
     </g>
     <g id="text_15">
      <!-- 2000 -->
      <g transform="translate(27.6 90.1894)scale(0.1 -0.1)">
       <use xlink:href="#DejaVuSans-50"/>
       <use x="63.623047" xlink:href="#DejaVuSans-48"/>
       <use x="127.246094" xlink:href="#DejaVuSans-48"/>
       <use x="190.869141" xlink:href="#DejaVuSans-48"/>
      </g>
     </g>
    </g>
    <g id="ytick_6">
     <g id="line2d_15">
      <g>
       <use style="stroke:#000000;stroke-width:0.8;" x="60.05" xlink:href="#md3780b5fd3" y="59.187726"/>
      </g>
     </g>
     <g id="text_16">
      <!-- 2500 -->
      <g transform="translate(27.6 62.986945)scale(0.1 -0.1)">
       <use xlink:href="#DejaVuSans-50"/>
       <use x="63.623047" xlink:href="#DejaVuSans-53"/>
       <use x="127.246094" xlink:href="#DejaVuSans-48"/>
       <use x="190.869141" xlink:href="#DejaVuSans-48"/>
      </g>
     </g>
    </g>
    <g id="ytick_7">
     <g id="line2d_16">
      <g>
       <use style="stroke:#000000;stroke-width:0.8;" x="60.05" xlink:href="#md3780b5fd3" y="31.985272"/>
      </g>
     </g>
     <g id="text_17">
      <!-- 3000 -->
      <defs>
       <path d="M 40.578125 39.3125 
Q 47.65625 37.796875 51.625 33 
Q 55.609375 28.21875 55.609375 21.1875 
Q 55.609375 10.40625 48.1875 4.484375 
Q 40.765625 -1.421875 27.09375 -1.421875 
Q 22.515625 -1.421875 17.65625 -0.515625 
Q 12.796875 0.390625 7.625 2.203125 
L 7.625 11.71875 
Q 11.71875 9.328125 16.59375 8.109375 
Q 21.484375 6.890625 26.8125 6.890625 
Q 36.078125 6.890625 40.9375 10.546875 
Q 45.796875 14.203125 45.796875 21.1875 
Q 45.796875 27.640625 41.28125 31.265625 
Q 36.765625 34.90625 28.71875 34.90625 
L 20.21875 34.90625 
L 20.21875 43.015625 
L 29.109375 43.015625 
Q 36.375 43.015625 40.234375 45.921875 
Q 44.09375 48.828125 44.09375 54.296875 
Q 44.09375 59.90625 40.109375 62.90625 
Q 36.140625 65.921875 28.71875 65.921875 
Q 24.65625 65.921875 20.015625 65.03125 
Q 15.375 64.15625 9.8125 62.3125 
L 9.8125 71.09375 
Q 15.4375 72.65625 20.34375 73.4375 
Q 25.25 74.21875 29.59375 74.21875 
Q 40.828125 74.21875 47.359375 69.109375 
Q 53.90625 64.015625 53.90625 55.328125 
Q 53.90625 49.265625 50.4375 45.09375 
Q 46.96875 40.921875 40.578125 39.3125 
z
" id="DejaVuSans-51"/>
      </defs>
      <g transform="translate(27.6 35.78449)scale(0.1 -0.1)">
       <use xlink:href="#DejaVuSans-51"/>
       <use x="63.623047" xlink:href="#DejaVuSans-48"/>
       <use x="127.246094" xlink:href="#DejaVuSans-48"/>
       <use x="190.869141" xlink:href="#DejaVuSans-48"/>
      </g>
     </g>
    </g>
    <g id="text_18">
     <!-- Frequency -->
     <defs>
      <path d="M 9.8125 72.90625 
L 51.703125 72.90625 
L 51.703125 64.59375 
L 19.671875 64.59375 
L 19.671875 43.109375 
L 48.578125 43.109375 
L 48.578125 34.8125 
L 19.671875 34.8125 
L 19.671875 0 
L 9.8125 0 
z
" id="DejaVuSans-70"/>
      <path d="M 41.109375 46.296875 
Q 39.59375 47.171875 37.8125 47.578125 
Q 36.03125 48 33.890625 48 
Q 26.265625 48 22.1875 43.046875 
Q 18.109375 38.09375 18.109375 28.8125 
L 18.109375 0 
L 9.078125 0 
L 9.078125 54.6875 
L 18.109375 54.6875 
L 18.109375 46.1875 
Q 20.953125 51.171875 25.484375 53.578125 
Q 30.03125 56 36.53125 56 
Q 37.453125 56 38.578125 55.875 
Q 39.703125 55.765625 41.0625 55.515625 
z
" id="DejaVuSans-114"/>
      <path d="M 14.796875 27.296875 
Q 14.796875 17.390625 18.875 11.75 
Q 22.953125 6.109375 30.078125 6.109375 
Q 37.203125 6.109375 41.296875 11.75 
Q 45.40625 17.390625 45.40625 27.296875 
Q 45.40625 37.203125 41.296875 42.84375 
Q 37.203125 48.484375 30.078125 48.484375 
Q 22.953125 48.484375 18.875 42.84375 
Q 14.796875 37.203125 14.796875 27.296875 
z
M 45.40625 8.203125 
Q 42.578125 3.328125 38.25 0.953125 
Q 33.9375 -1.421875 27.875 -1.421875 
Q 17.96875 -1.421875 11.734375 6.484375 
Q 5.515625 14.40625 5.515625 27.296875 
Q 5.515625 40.1875 11.734375 48.09375 
Q 17.96875 56 27.875 56 
Q 33.9375 56 38.25 53.625 
Q 42.578125 51.265625 45.40625 46.390625 
L 45.40625 54.6875 
L 54.390625 54.6875 
L 54.390625 -20.796875 
L 45.40625 -20.796875 
z
" id="DejaVuSans-113"/>
      <path d="M 54.890625 33.015625 
L 54.890625 0 
L 45.90625 0 
L 45.90625 32.71875 
Q 45.90625 40.484375 42.875 44.328125 
Q 39.84375 48.1875 33.796875 48.1875 
Q 26.515625 48.1875 22.3125 43.546875 
Q 18.109375 38.921875 18.109375 30.90625 
L 18.109375 0 
L 9.078125 0 
L 9.078125 54.6875 
L 18.109375 54.6875 
L 18.109375 46.1875 
Q 21.34375 51.125 25.703125 53.5625 
Q 30.078125 56 35.796875 56 
Q 45.21875 56 50.046875 50.171875 
Q 54.890625 44.34375 54.890625 33.015625 
z
" id="DejaVuSans-110"/>
      <path d="M 48.78125 52.59375 
L 48.78125 44.1875 
Q 44.96875 46.296875 41.140625 47.34375 
Q 37.3125 48.390625 33.40625 48.390625 
Q 24.65625 48.390625 19.8125 42.84375 
Q 14.984375 37.3125 14.984375 27.296875 
Q 14.984375 17.28125 19.8125 11.734375 
Q 24.65625 6.203125 33.40625 6.203125 
Q 37.3125 6.203125 41.140625 7.25 
Q 44.96875 8.296875 48.78125 10.40625 
L 48.78125 2.09375 
Q 45.015625 0.34375 40.984375 -0.53125 
Q 36.96875 -1.421875 32.421875 -1.421875 
Q 20.0625 -1.421875 12.78125 6.34375 
Q 5.515625 14.109375 5.515625 27.296875 
Q 5.515625 40.671875 12.859375 48.328125 
Q 20.21875 56 33.015625 56 
Q 37.15625 56 41.109375 55.140625 
Q 45.0625 54.296875 48.78125 52.59375 
z
" id="DejaVuSans-99"/>
      <path d="M 32.171875 -5.078125 
Q 28.375 -14.84375 24.75 -17.8125 
Q 21.140625 -20.796875 15.09375 -20.796875 
L 7.90625 -20.796875 
L 7.90625 -13.28125 
L 13.1875 -13.28125 
Q 16.890625 -13.28125 18.9375 -11.515625 
Q 21 -9.765625 23.484375 -3.21875 
L 25.09375 0.875 
L 2.984375 54.6875 
L 12.5 54.6875 
L 29.59375 11.921875 
L 46.6875 54.6875 
L 56.203125 54.6875 
z
" id="DejaVuSans-121"/>
     </defs>
     <g transform="translate(21.104375 133.995625)rotate(-90)scale(0.12 -0.12)">
      <use xlink:href="#DejaVuSans-70"/>
      <use x="50.269531" xlink:href="#DejaVuSans-114"/>
      <use x="89.132812" xlink:href="#DejaVuSans-101"/>
      <use x="150.65625" xlink:href="#DejaVuSans-113"/>
      <use x="214.132812" xlink:href="#DejaVuSans-117"/>
      <use x="277.511719" xlink:href="#DejaVuSans-101"/>
      <use x="339.035156" xlink:href="#DejaVuSans-110"/>
      <use x="402.414062" xlink:href="#DejaVuSans-99"/>
      <use x="457.394531" xlink:href="#DejaVuSans-121"/>
     </g>
    </g>
   </g>
   <g id="patch_259">
    <path d="M 60.05 195.2 
L 60.05 10.8 
" style="fill:none;stroke:#000000;stroke-linecap:square;stroke-linejoin:miter;stroke-width:0.8;"/>
   </g>
   <g id="patch_260">
    <path d="M 338.2 195.2 
L 338.2 10.8 
" style="fill:none;stroke:#000000;stroke-linecap:square;stroke-linejoin:miter;stroke-width:0.8;"/>
   </g>
   <g id="patch_261">
    <path d="M 60.05 195.2 
L 338.2 195.2 
" style="fill:none;stroke:#000000;stroke-linecap:square;stroke-linejoin:miter;stroke-width:0.8;"/>
   </g>
   <g id="patch_262">
    <path d="M 60.05 10.8 
L 338.2 10.8 
" style="fill:none;stroke:#000000;stroke-linecap:square;stroke-linejoin:miter;stroke-width:0.8;"/>
   </g>
  </g>
 </g>
 <defs>
  <clipPath id="pc4f6d080ac">
   <rect height="184.4" width="278.15" x="60.05" y="10.8"/>
  </clipPath>
 </defs>
</svg>
