<?xml version="1.0" encoding="utf-8" standalone="no"?>
<!DOCTYPE svg PUBLIC "-//W3C//DTD SVG 1.1//EN"
  "http://www.w3.org/Graphics/SVG/1.1/DTD/svg11.dtd">
<!-- Created with matplotlib (https://matplotlib.org/) -->
<svg height="288pt" version="1.1" viewBox="0 0 576 288" width="576pt" xmlns="http://www.w3.org/2000/svg" xmlns:xlink="http://www.w3.org/1999/xlink">
 <metadata>
  <rdf:RDF xmlns:cc="http://creativecommons.org/ns#" xmlns:dc="http://purl.org/dc/elements/1.1/" xmlns:rdf="http://www.w3.org/1999/02/22-rdf-syntax-ns#">
   <cc:Work>
    <dc:type rdf:resource="http://purl.org/dc/dcmitype/StillImage"/>
    <dc:date>2020-10-03T10:50:34.272160</dc:date>
    <dc:format>image/svg+xml</dc:format>
    <dc:creator>
     <cc:Agent>
      <dc:title>Matplotlib v3.3.1, https://matplotlib.org/</dc:title>
     </cc:Agent>
    </dc:creator>
   </cc:Work>
  </rdf:RDF>
 </metadata>
 <defs>
  <style type="text/css">*{stroke-linecap:butt;stroke-linejoin:round;}</style>
 </defs>
 <g id="figure_1">
  <g id="patch_1">
   <path d="M 0 288 
L 576 288 
L 576 0 
L 0 0 
z
" style="fill:none;"/>
  </g>
  <g id="axes_1">
   <g id="patch_2">
    <path d="M 145.925 246.2 
L 565.2 246.2 
L 565.2 10.8 
L 145.925 10.8 
z
" style="fill:#ffffff;"/>
   </g>
   <g id="patch_3">
    <path clip-path="url(#p0928f76893)" d="M 145.925 11.705385 
L 545.234524 11.705385 
L 545.234524 18.948462 
L 145.925 18.948462 
z
" style="fill:#321b8d;"/>
   </g>
   <g id="patch_4">
    <path clip-path="url(#p0928f76893)" d="M 145.925 20.759231 
L 400.018734 20.759231 
L 400.018734 28.002308 
L 145.925 28.002308 
z
" style="fill:#321b8d;"/>
   </g>
   <g id="patch_5">
    <path clip-path="url(#p0928f76893)" d="M 145.925 29.813077 
L 367.477381 29.813077 
L 367.477381 37.056154 
L 145.925 37.056154 
z
" style="fill:#321b8d;"/>
   </g>
   <g id="patch_6">
    <path clip-path="url(#p0928f76893)" d="M 145.925 38.866923 
L 198.804699 38.866923 
L 198.804699 46.11 
L 145.925 46.11 
z
" style="fill:#321b8d;"/>
   </g>
   <g id="patch_7">
    <path clip-path="url(#p0928f76893)" d="M 145.925 47.920769 
L 198.533521 47.920769 
L 198.533521 55.163846 
L 145.925 55.163846 
z
" style="fill:#321b8d;"/>
   </g>
   <g id="patch_8">
    <path clip-path="url(#p0928f76893)" d="M 145.925 56.974615 
L 191.076128 56.974615 
L 191.076128 64.217692 
L 145.925 64.217692 
z
" style="fill:#321b8d;"/>
   </g>
   <g id="patch_9">
    <path clip-path="url(#p0928f76893)" d="M 145.925 66.028462 
L 183.076378 66.028462 
L 183.076378 73.271538 
L 145.925 73.271538 
z
" style="fill:#321b8d;"/>
   </g>
   <g id="patch_10">
    <path clip-path="url(#p0928f76893)" d="M 145.925 75.082308 
L 172.636028 75.082308 
L 172.636028 82.325385 
L 145.925 82.325385 
z
" style="fill:#321b8d;"/>
   </g>
   <g id="patch_11">
    <path clip-path="url(#p0928f76893)" d="M 145.925 84.136154 
L 172.500439 84.136154 
L 172.500439 91.379231 
L 145.925 91.379231 
z
" style="fill:#321b8d;"/>
   </g>
   <g id="patch_12">
    <path clip-path="url(#p0928f76893)" d="M 145.925 93.19 
L 171.551316 93.19 
L 171.551316 100.433077 
L 145.925 100.433077 
z
" style="fill:#321b8d;"/>
   </g>
   <g id="patch_13">
    <path clip-path="url(#p0928f76893)" d="M 145.925 102.243846 
L 164.500689 102.243846 
L 164.500689 109.486923 
L 145.925 109.486923 
z
" style="fill:#321b8d;"/>
   </g>
   <g id="patch_14">
    <path clip-path="url(#p0928f76893)" d="M 145.925 111.297692 
L 162.602444 111.297692 
L 162.602444 118.540769 
L 145.925 118.540769 
z
" style="fill:#321b8d;"/>
   </g>
   <g id="patch_15">
    <path clip-path="url(#p0928f76893)" d="M 145.925 120.351538 
L 155.687406 120.351538 
L 155.687406 127.594615 
L 145.925 127.594615 
z
" style="fill:#321b8d;"/>
   </g>
   <g id="patch_16">
    <path clip-path="url(#p0928f76893)" d="M 145.925 129.405385 
L 152.433271 129.405385 
L 152.433271 136.648462 
L 145.925 136.648462 
z
" style="fill:#321b8d;"/>
   </g>
   <g id="patch_17">
    <path clip-path="url(#p0928f76893)" d="M 145.925 138.459231 
L 151.348559 138.459231 
L 151.348559 145.702308 
L 145.925 145.702308 
z
" style="fill:#321b8d;"/>
   </g>
   <g id="patch_18">
    <path clip-path="url(#p0928f76893)" d="M 145.925 147.513077 
L 149.314724 147.513077 
L 149.314724 154.756154 
L 145.925 154.756154 
z
" style="fill:#321b8d;"/>
   </g>
   <g id="patch_19">
    <path clip-path="url(#p0928f76893)" d="M 145.925 156.566923 
L 148.094424 156.566923 
L 148.094424 163.81 
L 145.925 163.81 
z
" style="fill:#321b8d;"/>
   </g>
   <g id="patch_20">
    <path clip-path="url(#p0928f76893)" d="M 145.925 165.620769 
L 147.958835 165.620769 
L 147.958835 172.863846 
L 145.925 172.863846 
z
" style="fill:#321b8d;"/>
   </g>
   <g id="patch_21">
    <path clip-path="url(#p0928f76893)" d="M 145.925 174.674615 
L 146.467356 174.674615 
L 146.467356 181.917692 
L 145.925 181.917692 
z
" style="fill:#321b8d;"/>
   </g>
   <g id="patch_22">
    <path clip-path="url(#p0928f76893)" d="M 145.925 183.728462 
L 146.331767 183.728462 
L 146.331767 190.971538 
L 145.925 190.971538 
z
" style="fill:#321b8d;"/>
   </g>
   <g id="patch_23">
    <path clip-path="url(#p0928f76893)" d="M 145.925 192.782308 
L 146.331767 192.782308 
L 146.331767 200.025385 
L 145.925 200.025385 
z
" style="fill:#321b8d;"/>
   </g>
   <g id="patch_24">
    <path clip-path="url(#p0928f76893)" d="M 145.925 201.836154 
L 146.196178 201.836154 
L 146.196178 209.079231 
L 145.925 209.079231 
z
" style="fill:#321b8d;"/>
   </g>
   <g id="patch_25">
    <path clip-path="url(#p0928f76893)" d="M 145.925 210.89 
L 146.196178 210.89 
L 146.196178 218.133077 
L 145.925 218.133077 
z
" style="fill:#321b8d;"/>
   </g>
   <g id="patch_26">
    <path clip-path="url(#p0928f76893)" d="M 145.925 219.943846 
L 146.196178 219.943846 
L 146.196178 227.186923 
L 145.925 227.186923 
z
" style="fill:#321b8d;"/>
   </g>
   <g id="patch_27">
    <path clip-path="url(#p0928f76893)" d="M 145.925 228.997692 
L 146.196178 228.997692 
L 146.196178 236.240769 
L 145.925 236.240769 
z
" style="fill:#321b8d;"/>
   </g>
   <g id="patch_28">
    <path clip-path="url(#p0928f76893)" d="M 145.925 238.051538 
L 146.060589 238.051538 
L 146.060589 245.294615 
L 145.925 245.294615 
z
" style="fill:#321b8d;"/>
   </g>
   <g id="matplotlib.axis_1">
    <g id="xtick_1">
     <g id="line2d_1">
      <defs>
       <path d="M 0 0 
L 0 3.5 
" id="m89d076abb2" style="stroke:#000000;stroke-width:0.8;"/>
      </defs>
      <g>
       <use style="stroke:#000000;stroke-width:0.8;" x="145.925" xlink:href="#m89d076abb2" y="246.2"/>
      </g>
     </g>
     <g id="text_1">
      <!-- 0 -->
      <g transform="translate(142.74375 260.798437)scale(0.1 -0.1)">
       <defs>
        <path d="M 31.78125 66.40625 
Q 24.171875 66.40625 20.328125 58.90625 
Q 16.5 51.421875 16.5 36.375 
Q 16.5 21.390625 20.328125 13.890625 
Q 24.171875 6.390625 31.78125 6.390625 
Q 39.453125 6.390625 43.28125 13.890625 
Q 47.125 21.390625 47.125 36.375 
Q 47.125 51.421875 43.28125 58.90625 
Q 39.453125 66.40625 31.78125 66.40625 
z
M 31.78125 74.21875 
Q 44.046875 74.21875 50.515625 64.515625 
Q 56.984375 54.828125 56.984375 36.375 
Q 56.984375 17.96875 50.515625 8.265625 
Q 44.046875 -1.421875 31.78125 -1.421875 
Q 19.53125 -1.421875 13.0625 8.265625 
Q 6.59375 17.96875 6.59375 36.375 
Q 6.59375 54.828125 13.0625 64.515625 
Q 19.53125 74.21875 31.78125 74.21875 
z
" id="DejaVuSans-48"/>
       </defs>
       <use xlink:href="#DejaVuSans-48"/>
      </g>
     </g>
    </g>
    <g id="xtick_2">
     <g id="line2d_2">
      <g>
       <use style="stroke:#000000;stroke-width:0.8;" x="213.719486" xlink:href="#m89d076abb2" y="246.2"/>
      </g>
     </g>
     <g id="text_2">
      <!-- 500 -->
      <g transform="translate(204.175736 260.798437)scale(0.1 -0.1)">
       <defs>
        <path d="M 10.796875 72.90625 
L 49.515625 72.90625 
L 49.515625 64.59375 
L 19.828125 64.59375 
L 19.828125 46.734375 
Q 21.96875 47.46875 24.109375 47.828125 
Q 26.265625 48.1875 28.421875 48.1875 
Q 40.625 48.1875 47.75 41.5 
Q 54.890625 34.8125 54.890625 23.390625 
Q 54.890625 11.625 47.5625 5.09375 
Q 40.234375 -1.421875 26.90625 -1.421875 
Q 22.3125 -1.421875 17.546875 -0.640625 
Q 12.796875 0.140625 7.71875 1.703125 
L 7.71875 11.625 
Q 12.109375 9.234375 16.796875 8.0625 
Q 21.484375 6.890625 26.703125 6.890625 
Q 35.15625 6.890625 40.078125 11.328125 
Q 45.015625 15.765625 45.015625 23.390625 
Q 45.015625 31 40.078125 35.4375 
Q 35.15625 39.890625 26.703125 39.890625 
Q 22.75 39.890625 18.8125 39.015625 
Q 14.890625 38.140625 10.796875 36.28125 
z
" id="DejaVuSans-53"/>
       </defs>
       <use xlink:href="#DejaVuSans-53"/>
       <use x="63.623047" xlink:href="#DejaVuSans-48"/>
       <use x="127.246094" xlink:href="#DejaVuSans-48"/>
      </g>
     </g>
    </g>
    <g id="xtick_3">
     <g id="line2d_3">
      <g>
       <use style="stroke:#000000;stroke-width:0.8;" x="281.513972" xlink:href="#m89d076abb2" y="246.2"/>
      </g>
     </g>
     <g id="text_3">
      <!-- 1000 -->
      <g transform="translate(268.788972 260.798437)scale(0.1 -0.1)">
       <defs>
        <path d="M 12.40625 8.296875 
L 28.515625 8.296875 
L 28.515625 63.921875 
L 10.984375 60.40625 
L 10.984375 69.390625 
L 28.421875 72.90625 
L 38.28125 72.90625 
L 38.28125 8.296875 
L 54.390625 8.296875 
L 54.390625 0 
L 12.40625 0 
z
" id="DejaVuSans-49"/>
       </defs>
       <use xlink:href="#DejaVuSans-49"/>
       <use x="63.623047" xlink:href="#DejaVuSans-48"/>
       <use x="127.246094" xlink:href="#DejaVuSans-48"/>
       <use x="190.869141" xlink:href="#DejaVuSans-48"/>
      </g>
     </g>
    </g>
    <g id="xtick_4">
     <g id="line2d_4">
      <g>
       <use style="stroke:#000000;stroke-width:0.8;" x="349.308459" xlink:href="#m89d076abb2" y="246.2"/>
      </g>
     </g>
     <g id="text_4">
      <!-- 1500 -->
      <g transform="translate(336.583459 260.798437)scale(0.1 -0.1)">
       <use xlink:href="#DejaVuSans-49"/>
       <use x="63.623047" xlink:href="#DejaVuSans-53"/>
       <use x="127.246094" xlink:href="#DejaVuSans-48"/>
       <use x="190.869141" xlink:href="#DejaVuSans-48"/>
      </g>
     </g>
    </g>
    <g id="xtick_5">
     <g id="line2d_5">
      <g>
       <use style="stroke:#000000;stroke-width:0.8;" x="417.102945" xlink:href="#m89d076abb2" y="246.2"/>
      </g>
     </g>
     <g id="text_5">
      <!-- 2000 -->
      <g transform="translate(404.377945 260.798437)scale(0.1 -0.1)">
       <defs>
        <path d="M 19.1875 8.296875 
L 53.609375 8.296875 
L 53.609375 0 
L 7.328125 0 
L 7.328125 8.296875 
Q 12.9375 14.109375 22.625 23.890625 
Q 32.328125 33.6875 34.8125 36.53125 
Q 39.546875 41.84375 41.421875 45.53125 
Q 43.3125 49.21875 43.3125 52.78125 
Q 43.3125 58.59375 39.234375 62.25 
Q 35.15625 65.921875 28.609375 65.921875 
Q 23.96875 65.921875 18.8125 64.3125 
Q 13.671875 62.703125 7.8125 59.421875 
L 7.8125 69.390625 
Q 13.765625 71.78125 18.9375 73 
Q 24.125 74.21875 28.421875 74.21875 
Q 39.75 74.21875 46.484375 68.546875 
Q 53.21875 62.890625 53.21875 53.421875 
Q 53.21875 48.921875 51.53125 44.890625 
Q 49.859375 40.875 45.40625 35.40625 
Q 44.1875 33.984375 37.640625 27.21875 
Q 31.109375 20.453125 19.1875 8.296875 
z
" id="DejaVuSans-50"/>
       </defs>
       <use xlink:href="#DejaVuSans-50"/>
       <use x="63.623047" xlink:href="#DejaVuSans-48"/>
       <use x="127.246094" xlink:href="#DejaVuSans-48"/>
       <use x="190.869141" xlink:href="#DejaVuSans-48"/>
      </g>
     </g>
    </g>
    <g id="xtick_6">
     <g id="line2d_6">
      <g>
       <use style="stroke:#000000;stroke-width:0.8;" x="484.897431" xlink:href="#m89d076abb2" y="246.2"/>
      </g>
     </g>
     <g id="text_6">
      <!-- 2500 -->
      <g transform="translate(472.172431 260.798437)scale(0.1 -0.1)">
       <use xlink:href="#DejaVuSans-50"/>
       <use x="63.623047" xlink:href="#DejaVuSans-53"/>
       <use x="127.246094" xlink:href="#DejaVuSans-48"/>
       <use x="190.869141" xlink:href="#DejaVuSans-48"/>
      </g>
     </g>
    </g>
    <g id="xtick_7">
     <g id="line2d_7">
      <g>
       <use style="stroke:#000000;stroke-width:0.8;" x="552.691917" xlink:href="#m89d076abb2" y="246.2"/>
      </g>
     </g>
     <g id="text_7">
      <!-- 3000 -->
      <g transform="translate(539.966917 260.798437)scale(0.1 -0.1)">
       <defs>
        <path d="M 40.578125 39.3125 
Q 47.65625 37.796875 51.625 33 
Q 55.609375 28.21875 55.609375 21.1875 
Q 55.609375 10.40625 48.1875 4.484375 
Q 40.765625 -1.421875 27.09375 -1.421875 
Q 22.515625 -1.421875 17.65625 -0.515625 
Q 12.796875 0.390625 7.625 2.203125 
L 7.625 11.71875 
Q 11.71875 9.328125 16.59375 8.109375 
Q 21.484375 6.890625 26.8125 6.890625 
Q 36.078125 6.890625 40.9375 10.546875 
Q 45.796875 14.203125 45.796875 21.1875 
Q 45.796875 27.640625 41.28125 31.265625 
Q 36.765625 34.90625 28.71875 34.90625 
L 20.21875 34.90625 
L 20.21875 43.015625 
L 29.109375 43.015625 
Q 36.375 43.015625 40.234375 45.921875 
Q 44.09375 48.828125 44.09375 54.296875 
Q 44.09375 59.90625 40.109375 62.90625 
Q 36.140625 65.921875 28.71875 65.921875 
Q 24.65625 65.921875 20.015625 65.03125 
Q 15.375 64.15625 9.8125 62.3125 
L 9.8125 71.09375 
Q 15.4375 72.65625 20.34375 73.4375 
Q 25.25 74.21875 29.59375 74.21875 
Q 40.828125 74.21875 47.359375 69.109375 
Q 53.90625 64.015625 53.90625 55.328125 
Q 53.90625 49.265625 50.4375 45.09375 
Q 46.96875 40.921875 40.578125 39.3125 
z
" id="DejaVuSans-51"/>
       </defs>
       <use xlink:href="#DejaVuSans-51"/>
       <use x="63.623047" xlink:href="#DejaVuSans-48"/>
       <use x="127.246094" xlink:href="#DejaVuSans-48"/>
       <use x="190.869141" xlink:href="#DejaVuSans-48"/>
      </g>
     </g>
    </g>
    <g id="text_8">
     <!-- Count -->
     <g transform="translate(340.714063 274.476562)scale(0.1 -0.1)">
      <defs>
       <path d="M 64.40625 67.28125 
L 64.40625 56.890625 
Q 59.421875 61.53125 53.78125 63.8125 
Q 48.140625 66.109375 41.796875 66.109375 
Q 29.296875 66.109375 22.65625 58.46875 
Q 16.015625 50.828125 16.015625 36.375 
Q 16.015625 21.96875 22.65625 14.328125 
Q 29.296875 6.6875 41.796875 6.6875 
Q 48.140625 6.6875 53.78125 8.984375 
Q 59.421875 11.28125 64.40625 15.921875 
L 64.40625 5.609375 
Q 59.234375 2.09375 53.4375 0.328125 
Q 47.65625 -1.421875 41.21875 -1.421875 
Q 24.65625 -1.421875 15.125 8.703125 
Q 5.609375 18.84375 5.609375 36.375 
Q 5.609375 53.953125 15.125 64.078125 
Q 24.65625 74.21875 41.21875 74.21875 
Q 47.75 74.21875 53.53125 72.484375 
Q 59.328125 70.75 64.40625 67.28125 
z
" id="DejaVuSans-67"/>
       <path d="M 30.609375 48.390625 
Q 23.390625 48.390625 19.1875 42.75 
Q 14.984375 37.109375 14.984375 27.296875 
Q 14.984375 17.484375 19.15625 11.84375 
Q 23.34375 6.203125 30.609375 6.203125 
Q 37.796875 6.203125 41.984375 11.859375 
Q 46.1875 17.53125 46.1875 27.296875 
Q 46.1875 37.015625 41.984375 42.703125 
Q 37.796875 48.390625 30.609375 48.390625 
z
M 30.609375 56 
Q 42.328125 56 49.015625 48.375 
Q 55.71875 40.765625 55.71875 27.296875 
Q 55.71875 13.875 49.015625 6.21875 
Q 42.328125 -1.421875 30.609375 -1.421875 
Q 18.84375 -1.421875 12.171875 6.21875 
Q 5.515625 13.875 5.515625 27.296875 
Q 5.515625 40.765625 12.171875 48.375 
Q 18.84375 56 30.609375 56 
z
" id="DejaVuSans-111"/>
       <path d="M 8.5 21.578125 
L 8.5 54.6875 
L 17.484375 54.6875 
L 17.484375 21.921875 
Q 17.484375 14.15625 20.5 10.265625 
Q 23.53125 6.390625 29.59375 6.390625 
Q 36.859375 6.390625 41.078125 11.03125 
Q 45.3125 15.671875 45.3125 23.6875 
L 45.3125 54.6875 
L 54.296875 54.6875 
L 54.296875 0 
L 45.3125 0 
L 45.3125 8.40625 
Q 42.046875 3.421875 37.71875 1 
Q 33.40625 -1.421875 27.6875 -1.421875 
Q 18.265625 -1.421875 13.375 4.4375 
Q 8.5 10.296875 8.5 21.578125 
z
M 31.109375 56 
z
" id="DejaVuSans-117"/>
       <path d="M 54.890625 33.015625 
L 54.890625 0 
L 45.90625 0 
L 45.90625 32.71875 
Q 45.90625 40.484375 42.875 44.328125 
Q 39.84375 48.1875 33.796875 48.1875 
Q 26.515625 48.1875 22.3125 43.546875 
Q 18.109375 38.921875 18.109375 30.90625 
L 18.109375 0 
L 9.078125 0 
L 9.078125 54.6875 
L 18.109375 54.6875 
L 18.109375 46.1875 
Q 21.34375 51.125 25.703125 53.5625 
Q 30.078125 56 35.796875 56 
Q 45.21875 56 50.046875 50.171875 
Q 54.890625 44.34375 54.890625 33.015625 
z
" id="DejaVuSans-110"/>
       <path d="M 18.3125 70.21875 
L 18.3125 54.6875 
L 36.8125 54.6875 
L 36.8125 47.703125 
L 18.3125 47.703125 
L 18.3125 18.015625 
Q 18.3125 11.328125 20.140625 9.421875 
Q 21.96875 7.515625 27.59375 7.515625 
L 36.8125 7.515625 
L 36.8125 0 
L 27.59375 0 
Q 17.1875 0 13.234375 3.875 
Q 9.28125 7.765625 9.28125 18.015625 
L 9.28125 47.703125 
L 2.6875 47.703125 
L 2.6875 54.6875 
L 9.28125 54.6875 
L 9.28125 70.21875 
z
" id="DejaVuSans-116"/>
      </defs>
      <use xlink:href="#DejaVuSans-67"/>
      <use x="69.824219" xlink:href="#DejaVuSans-111"/>
      <use x="131.005859" xlink:href="#DejaVuSans-117"/>
      <use x="194.384766" xlink:href="#DejaVuSans-110"/>
      <use x="257.763672" xlink:href="#DejaVuSans-116"/>
     </g>
    </g>
   </g>
   <g id="matplotlib.axis_2">
    <g id="ytick_1">
     <g id="line2d_8">
      <defs>
       <path d="M 0 0 
L -3.5 0 
" id="mb1c9bc1233" style="stroke:#000000;stroke-width:0.8;"/>
      </defs>
      <g>
       <use style="stroke:#000000;stroke-width:0.8;" x="145.925" xlink:href="#mb1c9bc1233" y="15.326923"/>
      </g>
     </g>
     <g id="text_9">
      <!-- House -->
      <g transform="translate(107.585938 19.126142)scale(0.1 -0.1)">
       <defs>
        <path d="M 9.8125 72.90625 
L 19.671875 72.90625 
L 19.671875 43.015625 
L 55.515625 43.015625 
L 55.515625 72.90625 
L 65.375 72.90625 
L 65.375 0 
L 55.515625 0 
L 55.515625 34.71875 
L 19.671875 34.71875 
L 19.671875 0 
L 9.8125 0 
z
" id="DejaVuSans-72"/>
        <path d="M 44.28125 53.078125 
L 44.28125 44.578125 
Q 40.484375 46.53125 36.375 47.5 
Q 32.28125 48.484375 27.875 48.484375 
Q 21.1875 48.484375 17.84375 46.4375 
Q 14.5 44.390625 14.5 40.28125 
Q 14.5 37.15625 16.890625 35.375 
Q 19.28125 33.59375 26.515625 31.984375 
L 29.59375 31.296875 
Q 39.15625 29.25 43.1875 25.515625 
Q 47.21875 21.78125 47.21875 15.09375 
Q 47.21875 7.46875 41.1875 3.015625 
Q 35.15625 -1.421875 24.609375 -1.421875 
Q 20.21875 -1.421875 15.453125 -0.5625 
Q 10.6875 0.296875 5.421875 2 
L 5.421875 11.28125 
Q 10.40625 8.6875 15.234375 7.390625 
Q 20.0625 6.109375 24.8125 6.109375 
Q 31.15625 6.109375 34.5625 8.28125 
Q 37.984375 10.453125 37.984375 14.40625 
Q 37.984375 18.0625 35.515625 20.015625 
Q 33.0625 21.96875 24.703125 23.78125 
L 21.578125 24.515625 
Q 13.234375 26.265625 9.515625 29.90625 
Q 5.8125 33.546875 5.8125 39.890625 
Q 5.8125 47.609375 11.28125 51.796875 
Q 16.75 56 26.8125 56 
Q 31.78125 56 36.171875 55.265625 
Q 40.578125 54.546875 44.28125 53.078125 
z
" id="DejaVuSans-115"/>
        <path d="M 56.203125 29.59375 
L 56.203125 25.203125 
L 14.890625 25.203125 
Q 15.484375 15.921875 20.484375 11.0625 
Q 25.484375 6.203125 34.421875 6.203125 
Q 39.59375 6.203125 44.453125 7.46875 
Q 49.3125 8.734375 54.109375 11.28125 
L 54.109375 2.78125 
Q 49.265625 0.734375 44.1875 -0.34375 
Q 39.109375 -1.421875 33.890625 -1.421875 
Q 20.796875 -1.421875 13.15625 6.1875 
Q 5.515625 13.8125 5.515625 26.8125 
Q 5.515625 40.234375 12.765625 48.109375 
Q 20.015625 56 32.328125 56 
Q 43.359375 56 49.78125 48.890625 
Q 56.203125 41.796875 56.203125 29.59375 
z
M 47.21875 32.234375 
Q 47.125 39.59375 43.09375 43.984375 
Q 39.0625 48.390625 32.421875 48.390625 
Q 24.90625 48.390625 20.390625 44.140625 
Q 15.875 39.890625 15.1875 32.171875 
z
" id="DejaVuSans-101"/>
       </defs>
       <use xlink:href="#DejaVuSans-72"/>
       <use x="75.195312" xlink:href="#DejaVuSans-111"/>
       <use x="136.376953" xlink:href="#DejaVuSans-117"/>
       <use x="199.755859" xlink:href="#DejaVuSans-115"/>
       <use x="251.855469" xlink:href="#DejaVuSans-101"/>
      </g>
     </g>
    </g>
    <g id="ytick_2">
     <g id="line2d_9">
      <g>
       <use style="stroke:#000000;stroke-width:0.8;" x="145.925" xlink:href="#mb1c9bc1233" y="24.380769"/>
      </g>
     </g>
     <g id="text_10">
      <!-- Electro House -->
      <g transform="translate(69.734375 28.179988)scale(0.1 -0.1)">
       <defs>
        <path d="M 9.8125 72.90625 
L 55.90625 72.90625 
L 55.90625 64.59375 
L 19.671875 64.59375 
L 19.671875 43.015625 
L 54.390625 43.015625 
L 54.390625 34.71875 
L 19.671875 34.71875 
L 19.671875 8.296875 
L 56.78125 8.296875 
L 56.78125 0 
L 9.8125 0 
z
" id="DejaVuSans-69"/>
        <path d="M 9.421875 75.984375 
L 18.40625 75.984375 
L 18.40625 0 
L 9.421875 0 
z
" id="DejaVuSans-108"/>
        <path d="M 48.78125 52.59375 
L 48.78125 44.1875 
Q 44.96875 46.296875 41.140625 47.34375 
Q 37.3125 48.390625 33.40625 48.390625 
Q 24.65625 48.390625 19.8125 42.84375 
Q 14.984375 37.3125 14.984375 27.296875 
Q 14.984375 17.28125 19.8125 11.734375 
Q 24.65625 6.203125 33.40625 6.203125 
Q 37.3125 6.203125 41.140625 7.25 
Q 44.96875 8.296875 48.78125 10.40625 
L 48.78125 2.09375 
Q 45.015625 0.34375 40.984375 -0.53125 
Q 36.96875 -1.421875 32.421875 -1.421875 
Q 20.0625 -1.421875 12.78125 6.34375 
Q 5.515625 14.109375 5.515625 27.296875 
Q 5.515625 40.671875 12.859375 48.328125 
Q 20.21875 56 33.015625 56 
Q 37.15625 56 41.109375 55.140625 
Q 45.0625 54.296875 48.78125 52.59375 
z
" id="DejaVuSans-99"/>
        <path d="M 41.109375 46.296875 
Q 39.59375 47.171875 37.8125 47.578125 
Q 36.03125 48 33.890625 48 
Q 26.265625 48 22.1875 43.046875 
Q 18.109375 38.09375 18.109375 28.8125 
L 18.109375 0 
L 9.078125 0 
L 9.078125 54.6875 
L 18.109375 54.6875 
L 18.109375 46.1875 
Q 20.953125 51.171875 25.484375 53.578125 
Q 30.03125 56 36.53125 56 
Q 37.453125 56 38.578125 55.875 
Q 39.703125 55.765625 41.0625 55.515625 
z
" id="DejaVuSans-114"/>
        <path id="DejaVuSans-32"/>
       </defs>
       <use xlink:href="#DejaVuSans-69"/>
       <use x="63.183594" xlink:href="#DejaVuSans-108"/>
       <use x="90.966797" xlink:href="#DejaVuSans-101"/>
       <use x="152.490234" xlink:href="#DejaVuSans-99"/>
       <use x="207.470703" xlink:href="#DejaVuSans-116"/>
       <use x="246.679688" xlink:href="#DejaVuSans-114"/>
       <use x="285.542969" xlink:href="#DejaVuSans-111"/>
       <use x="346.724609" xlink:href="#DejaVuSans-32"/>
       <use x="378.511719" xlink:href="#DejaVuSans-72"/>
       <use x="453.707031" xlink:href="#DejaVuSans-111"/>
       <use x="514.888672" xlink:href="#DejaVuSans-117"/>
       <use x="578.267578" xlink:href="#DejaVuSans-115"/>
       <use x="630.367188" xlink:href="#DejaVuSans-101"/>
      </g>
     </g>
    </g>
    <g id="ytick_3">
     <g id="line2d_10">
      <g>
       <use style="stroke:#000000;stroke-width:0.8;" x="145.925" xlink:href="#mb1c9bc1233" y="33.434615"/>
      </g>
     </g>
     <g id="text_11">
      <!-- Trance -->
      <g transform="translate(106.064063 37.233834)scale(0.1 -0.1)">
       <defs>
        <path d="M -0.296875 72.90625 
L 61.375 72.90625 
L 61.375 64.59375 
L 35.5 64.59375 
L 35.5 0 
L 25.59375 0 
L 25.59375 64.59375 
L -0.296875 64.59375 
z
" id="DejaVuSans-84"/>
        <path d="M 34.28125 27.484375 
Q 23.390625 27.484375 19.1875 25 
Q 14.984375 22.515625 14.984375 16.5 
Q 14.984375 11.71875 18.140625 8.90625 
Q 21.296875 6.109375 26.703125 6.109375 
Q 34.1875 6.109375 38.703125 11.40625 
Q 43.21875 16.703125 43.21875 25.484375 
L 43.21875 27.484375 
z
M 52.203125 31.203125 
L 52.203125 0 
L 43.21875 0 
L 43.21875 8.296875 
Q 40.140625 3.328125 35.546875 0.953125 
Q 30.953125 -1.421875 24.3125 -1.421875 
Q 15.921875 -1.421875 10.953125 3.296875 
Q 6 8.015625 6 15.921875 
Q 6 25.140625 12.171875 29.828125 
Q 18.359375 34.515625 30.609375 34.515625 
L 43.21875 34.515625 
L 43.21875 35.40625 
Q 43.21875 41.609375 39.140625 45 
Q 35.0625 48.390625 27.6875 48.390625 
Q 23 48.390625 18.546875 47.265625 
Q 14.109375 46.140625 10.015625 43.890625 
L 10.015625 52.203125 
Q 14.9375 54.109375 19.578125 55.046875 
Q 24.21875 56 28.609375 56 
Q 40.484375 56 46.34375 49.84375 
Q 52.203125 43.703125 52.203125 31.203125 
z
" id="DejaVuSans-97"/>
       </defs>
       <use xlink:href="#DejaVuSans-84"/>
       <use x="46.333984" xlink:href="#DejaVuSans-114"/>
       <use x="87.447266" xlink:href="#DejaVuSans-97"/>
       <use x="148.726562" xlink:href="#DejaVuSans-110"/>
       <use x="212.105469" xlink:href="#DejaVuSans-99"/>
       <use x="267.085938" xlink:href="#DejaVuSans-101"/>
      </g>
     </g>
    </g>
    <g id="ytick_4">
     <g id="line2d_11">
      <g>
       <use style="stroke:#000000;stroke-width:0.8;" x="145.925" xlink:href="#mb1c9bc1233" y="42.488462"/>
      </g>
     </g>
     <g id="text_12">
      <!-- Deep House -->
      <g transform="translate(78.053125 46.28768)scale(0.1 -0.1)">
       <defs>
        <path d="M 19.671875 64.796875 
L 19.671875 8.109375 
L 31.59375 8.109375 
Q 46.6875 8.109375 53.6875 14.9375 
Q 60.6875 21.78125 60.6875 36.53125 
Q 60.6875 51.171875 53.6875 57.984375 
Q 46.6875 64.796875 31.59375 64.796875 
z
M 9.8125 72.90625 
L 30.078125 72.90625 
Q 51.265625 72.90625 61.171875 64.09375 
Q 71.09375 55.28125 71.09375 36.53125 
Q 71.09375 17.671875 61.125 8.828125 
Q 51.171875 0 30.078125 0 
L 9.8125 0 
z
" id="DejaVuSans-68"/>
        <path d="M 18.109375 8.203125 
L 18.109375 -20.796875 
L 9.078125 -20.796875 
L 9.078125 54.6875 
L 18.109375 54.6875 
L 18.109375 46.390625 
Q 20.953125 51.265625 25.265625 53.625 
Q 29.59375 56 35.59375 56 
Q 45.5625 56 51.78125 48.09375 
Q 58.015625 40.1875 58.015625 27.296875 
Q 58.015625 14.40625 51.78125 6.484375 
Q 45.5625 -1.421875 35.59375 -1.421875 
Q 29.59375 -1.421875 25.265625 0.953125 
Q 20.953125 3.328125 18.109375 8.203125 
z
M 48.6875 27.296875 
Q 48.6875 37.203125 44.609375 42.84375 
Q 40.53125 48.484375 33.40625 48.484375 
Q 26.265625 48.484375 22.1875 42.84375 
Q 18.109375 37.203125 18.109375 27.296875 
Q 18.109375 17.390625 22.1875 11.75 
Q 26.265625 6.109375 33.40625 6.109375 
Q 40.53125 6.109375 44.609375 11.75 
Q 48.6875 17.390625 48.6875 27.296875 
z
" id="DejaVuSans-112"/>
       </defs>
       <use xlink:href="#DejaVuSans-68"/>
       <use x="77.001953" xlink:href="#DejaVuSans-101"/>
       <use x="138.525391" xlink:href="#DejaVuSans-101"/>
       <use x="200.048828" xlink:href="#DejaVuSans-112"/>
       <use x="263.525391" xlink:href="#DejaVuSans-32"/>
       <use x="295.3125" xlink:href="#DejaVuSans-72"/>
       <use x="370.507812" xlink:href="#DejaVuSans-111"/>
       <use x="431.689453" xlink:href="#DejaVuSans-117"/>
       <use x="495.068359" xlink:href="#DejaVuSans-115"/>
       <use x="547.167969" xlink:href="#DejaVuSans-101"/>
      </g>
     </g>
    </g>
    <g id="ytick_5">
     <g id="line2d_12">
      <g>
       <use style="stroke:#000000;stroke-width:0.8;" x="145.925" xlink:href="#mb1c9bc1233" y="51.542308"/>
      </g>
     </g>
     <g id="text_13">
      <!-- Progressive House -->
      <g transform="translate(46.892188 55.341526)scale(0.1 -0.1)">
       <defs>
        <path d="M 19.671875 64.796875 
L 19.671875 37.40625 
L 32.078125 37.40625 
Q 38.96875 37.40625 42.71875 40.96875 
Q 46.484375 44.53125 46.484375 51.125 
Q 46.484375 57.671875 42.71875 61.234375 
Q 38.96875 64.796875 32.078125 64.796875 
z
M 9.8125 72.90625 
L 32.078125 72.90625 
Q 44.34375 72.90625 50.609375 67.359375 
Q 56.890625 61.8125 56.890625 51.125 
Q 56.890625 40.328125 50.609375 34.8125 
Q 44.34375 29.296875 32.078125 29.296875 
L 19.671875 29.296875 
L 19.671875 0 
L 9.8125 0 
z
" id="DejaVuSans-80"/>
        <path d="M 45.40625 27.984375 
Q 45.40625 37.75 41.375 43.109375 
Q 37.359375 48.484375 30.078125 48.484375 
Q 22.859375 48.484375 18.828125 43.109375 
Q 14.796875 37.75 14.796875 27.984375 
Q 14.796875 18.265625 18.828125 12.890625 
Q 22.859375 7.515625 30.078125 7.515625 
Q 37.359375 7.515625 41.375 12.890625 
Q 45.40625 18.265625 45.40625 27.984375 
z
M 54.390625 6.78125 
Q 54.390625 -7.171875 48.1875 -13.984375 
Q 42 -20.796875 29.203125 -20.796875 
Q 24.46875 -20.796875 20.265625 -20.09375 
Q 16.0625 -19.390625 12.109375 -17.921875 
L 12.109375 -9.1875 
Q 16.0625 -11.328125 19.921875 -12.34375 
Q 23.78125 -13.375 27.78125 -13.375 
Q 36.625 -13.375 41.015625 -8.765625 
Q 45.40625 -4.15625 45.40625 5.171875 
L 45.40625 9.625 
Q 42.625 4.78125 38.28125 2.390625 
Q 33.9375 0 27.875 0 
Q 17.828125 0 11.671875 7.65625 
Q 5.515625 15.328125 5.515625 27.984375 
Q 5.515625 40.671875 11.671875 48.328125 
Q 17.828125 56 27.875 56 
Q 33.9375 56 38.28125 53.609375 
Q 42.625 51.21875 45.40625 46.390625 
L 45.40625 54.6875 
L 54.390625 54.6875 
z
" id="DejaVuSans-103"/>
        <path d="M 9.421875 54.6875 
L 18.40625 54.6875 
L 18.40625 0 
L 9.421875 0 
z
M 9.421875 75.984375 
L 18.40625 75.984375 
L 18.40625 64.59375 
L 9.421875 64.59375 
z
" id="DejaVuSans-105"/>
        <path d="M 2.984375 54.6875 
L 12.5 54.6875 
L 29.59375 8.796875 
L 46.6875 54.6875 
L 56.203125 54.6875 
L 35.6875 0 
L 23.484375 0 
z
" id="DejaVuSans-118"/>
       </defs>
       <use xlink:href="#DejaVuSans-80"/>
       <use x="58.552734" xlink:href="#DejaVuSans-114"/>
       <use x="97.416016" xlink:href="#DejaVuSans-111"/>
       <use x="158.597656" xlink:href="#DejaVuSans-103"/>
       <use x="222.074219" xlink:href="#DejaVuSans-114"/>
       <use x="260.9375" xlink:href="#DejaVuSans-101"/>
       <use x="322.460938" xlink:href="#DejaVuSans-115"/>
       <use x="374.560547" xlink:href="#DejaVuSans-115"/>
       <use x="426.660156" xlink:href="#DejaVuSans-105"/>
       <use x="454.443359" xlink:href="#DejaVuSans-118"/>
       <use x="513.623047" xlink:href="#DejaVuSans-101"/>
       <use x="575.146484" xlink:href="#DejaVuSans-32"/>
       <use x="606.933594" xlink:href="#DejaVuSans-72"/>
       <use x="682.128906" xlink:href="#DejaVuSans-111"/>
       <use x="743.310547" xlink:href="#DejaVuSans-117"/>
       <use x="806.689453" xlink:href="#DejaVuSans-115"/>
       <use x="858.789062" xlink:href="#DejaVuSans-101"/>
      </g>
     </g>
    </g>
    <g id="ytick_6">
     <g id="line2d_13">
      <g>
       <use style="stroke:#000000;stroke-width:0.8;" x="145.925" xlink:href="#mb1c9bc1233" y="60.596154"/>
      </g>
     </g>
     <g id="text_14">
      <!-- Tech House -->
      <g transform="translate(82.010938 64.395373)scale(0.1 -0.1)">
       <defs>
        <path d="M 54.890625 33.015625 
L 54.890625 0 
L 45.90625 0 
L 45.90625 32.71875 
Q 45.90625 40.484375 42.875 44.328125 
Q 39.84375 48.1875 33.796875 48.1875 
Q 26.515625 48.1875 22.3125 43.546875 
Q 18.109375 38.921875 18.109375 30.90625 
L 18.109375 0 
L 9.078125 0 
L 9.078125 75.984375 
L 18.109375 75.984375 
L 18.109375 46.1875 
Q 21.34375 51.125 25.703125 53.5625 
Q 30.078125 56 35.796875 56 
Q 45.21875 56 50.046875 50.171875 
Q 54.890625 44.34375 54.890625 33.015625 
z
" id="DejaVuSans-104"/>
       </defs>
       <use xlink:href="#DejaVuSans-84"/>
       <use x="44.083984" xlink:href="#DejaVuSans-101"/>
       <use x="105.607422" xlink:href="#DejaVuSans-99"/>
       <use x="160.587891" xlink:href="#DejaVuSans-104"/>
       <use x="223.966797" xlink:href="#DejaVuSans-32"/>
       <use x="255.753906" xlink:href="#DejaVuSans-72"/>
       <use x="330.949219" xlink:href="#DejaVuSans-111"/>
       <use x="392.130859" xlink:href="#DejaVuSans-117"/>
       <use x="455.509766" xlink:href="#DejaVuSans-115"/>
       <use x="507.609375" xlink:href="#DejaVuSans-101"/>
      </g>
     </g>
    </g>
    <g id="ytick_7">
     <g id="line2d_14">
      <g>
       <use style="stroke:#000000;stroke-width:0.8;" x="145.925" xlink:href="#mb1c9bc1233" y="69.65"/>
      </g>
     </g>
     <g id="text_15">
      <!-- Dubstep -->
      <g transform="translate(96.907813 73.449219)scale(0.1 -0.1)">
       <defs>
        <path d="M 48.6875 27.296875 
Q 48.6875 37.203125 44.609375 42.84375 
Q 40.53125 48.484375 33.40625 48.484375 
Q 26.265625 48.484375 22.1875 42.84375 
Q 18.109375 37.203125 18.109375 27.296875 
Q 18.109375 17.390625 22.1875 11.75 
Q 26.265625 6.109375 33.40625 6.109375 
Q 40.53125 6.109375 44.609375 11.75 
Q 48.6875 17.390625 48.6875 27.296875 
z
M 18.109375 46.390625 
Q 20.953125 51.265625 25.265625 53.625 
Q 29.59375 56 35.59375 56 
Q 45.5625 56 51.78125 48.09375 
Q 58.015625 40.1875 58.015625 27.296875 
Q 58.015625 14.40625 51.78125 6.484375 
Q 45.5625 -1.421875 35.59375 -1.421875 
Q 29.59375 -1.421875 25.265625 0.953125 
Q 20.953125 3.328125 18.109375 8.203125 
L 18.109375 0 
L 9.078125 0 
L 9.078125 75.984375 
L 18.109375 75.984375 
z
" id="DejaVuSans-98"/>
       </defs>
       <use xlink:href="#DejaVuSans-68"/>
       <use x="77.001953" xlink:href="#DejaVuSans-117"/>
       <use x="140.380859" xlink:href="#DejaVuSans-98"/>
       <use x="203.857422" xlink:href="#DejaVuSans-115"/>
       <use x="255.957031" xlink:href="#DejaVuSans-116"/>
       <use x="295.166016" xlink:href="#DejaVuSans-101"/>
       <use x="356.689453" xlink:href="#DejaVuSans-112"/>
      </g>
     </g>
    </g>
    <g id="ytick_8">
     <g id="line2d_15">
      <g>
       <use style="stroke:#000000;stroke-width:0.8;" x="145.925" xlink:href="#mb1c9bc1233" y="78.703846"/>
      </g>
     </g>
     <g id="text_16">
      <!-- Electronica -->
      <g transform="translate(83.509375 82.503065)scale(0.1 -0.1)">
       <use xlink:href="#DejaVuSans-69"/>
       <use x="63.183594" xlink:href="#DejaVuSans-108"/>
       <use x="90.966797" xlink:href="#DejaVuSans-101"/>
       <use x="152.490234" xlink:href="#DejaVuSans-99"/>
       <use x="207.470703" xlink:href="#DejaVuSans-116"/>
       <use x="246.679688" xlink:href="#DejaVuSans-114"/>
       <use x="285.542969" xlink:href="#DejaVuSans-111"/>
       <use x="346.724609" xlink:href="#DejaVuSans-110"/>
       <use x="410.103516" xlink:href="#DejaVuSans-105"/>
       <use x="437.886719" xlink:href="#DejaVuSans-99"/>
       <use x="492.867188" xlink:href="#DejaVuSans-97"/>
      </g>
     </g>
    </g>
    <g id="ytick_9">
     <g id="line2d_16">
      <g>
       <use style="stroke:#000000;stroke-width:0.8;" x="145.925" xlink:href="#mb1c9bc1233" y="87.757692"/>
      </g>
     </g>
     <g id="text_17">
      <!-- Techno -->
      <g transform="translate(104.071875 91.556911)scale(0.1 -0.1)">
       <use xlink:href="#DejaVuSans-84"/>
       <use x="44.083984" xlink:href="#DejaVuSans-101"/>
       <use x="105.607422" xlink:href="#DejaVuSans-99"/>
       <use x="160.587891" xlink:href="#DejaVuSans-104"/>
       <use x="223.966797" xlink:href="#DejaVuSans-110"/>
       <use x="287.345703" xlink:href="#DejaVuSans-111"/>
      </g>
     </g>
    </g>
    <g id="ytick_10">
     <g id="line2d_17">
      <g>
       <use style="stroke:#000000;stroke-width:0.8;" x="145.925" xlink:href="#mb1c9bc1233" y="96.811538"/>
      </g>
     </g>
     <g id="text_18">
      <!-- Hardstyle -->
      <g transform="translate(91.0125 100.610757)scale(0.1 -0.1)">
       <defs>
        <path d="M 45.40625 46.390625 
L 45.40625 75.984375 
L 54.390625 75.984375 
L 54.390625 0 
L 45.40625 0 
L 45.40625 8.203125 
Q 42.578125 3.328125 38.25 0.953125 
Q 33.9375 -1.421875 27.875 -1.421875 
Q 17.96875 -1.421875 11.734375 6.484375 
Q 5.515625 14.40625 5.515625 27.296875 
Q 5.515625 40.1875 11.734375 48.09375 
Q 17.96875 56 27.875 56 
Q 33.9375 56 38.25 53.625 
Q 42.578125 51.265625 45.40625 46.390625 
z
M 14.796875 27.296875 
Q 14.796875 17.390625 18.875 11.75 
Q 22.953125 6.109375 30.078125 6.109375 
Q 37.203125 6.109375 41.296875 11.75 
Q 45.40625 17.390625 45.40625 27.296875 
Q 45.40625 37.203125 41.296875 42.84375 
Q 37.203125 48.484375 30.078125 48.484375 
Q 22.953125 48.484375 18.875 42.84375 
Q 14.796875 37.203125 14.796875 27.296875 
z
" id="DejaVuSans-100"/>
        <path d="M 32.171875 -5.078125 
Q 28.375 -14.84375 24.75 -17.8125 
Q 21.140625 -20.796875 15.09375 -20.796875 
L 7.90625 -20.796875 
L 7.90625 -13.28125 
L 13.1875 -13.28125 
Q 16.890625 -13.28125 18.9375 -11.515625 
Q 21 -9.765625 23.484375 -3.21875 
L 25.09375 0.875 
L 2.984375 54.6875 
L 12.5 54.6875 
L 29.59375 11.921875 
L 46.6875 54.6875 
L 56.203125 54.6875 
z
" id="DejaVuSans-121"/>
       </defs>
       <use xlink:href="#DejaVuSans-72"/>
       <use x="75.195312" xlink:href="#DejaVuSans-97"/>
       <use x="136.474609" xlink:href="#DejaVuSans-114"/>
       <use x="175.837891" xlink:href="#DejaVuSans-100"/>
       <use x="239.314453" xlink:href="#DejaVuSans-115"/>
       <use x="291.414062" xlink:href="#DejaVuSans-116"/>
       <use x="330.623047" xlink:href="#DejaVuSans-121"/>
       <use x="389.802734" xlink:href="#DejaVuSans-108"/>
       <use x="417.585938" xlink:href="#DejaVuSans-101"/>
      </g>
     </g>
    </g>
    <g id="ytick_11">
     <g id="line2d_18">
      <g>
       <use style="stroke:#000000;stroke-width:0.8;" x="145.925" xlink:href="#mb1c9bc1233" y="105.865385"/>
      </g>
     </g>
     <g id="text_19">
      <!-- Trap -->
      <g transform="translate(117.704688 109.664603)scale(0.1 -0.1)">
       <use xlink:href="#DejaVuSans-84"/>
       <use x="46.333984" xlink:href="#DejaVuSans-114"/>
       <use x="87.447266" xlink:href="#DejaVuSans-97"/>
       <use x="148.726562" xlink:href="#DejaVuSans-112"/>
      </g>
     </g>
    </g>
    <g id="ytick_12">
     <g id="line2d_19">
      <g>
       <use style="stroke:#000000;stroke-width:0.8;" x="145.925" xlink:href="#mb1c9bc1233" y="114.919231"/>
      </g>
     </g>
     <g id="text_20">
      <!-- Pop -->
      <g transform="translate(120.790625 118.71845)scale(0.1 -0.1)">
       <use xlink:href="#DejaVuSans-80"/>
       <use x="56.677734" xlink:href="#DejaVuSans-111"/>
       <use x="117.859375" xlink:href="#DejaVuSans-112"/>
      </g>
     </g>
    </g>
    <g id="ytick_13">
     <g id="line2d_20">
      <g>
       <use style="stroke:#000000;stroke-width:0.8;" x="145.925" xlink:href="#mb1c9bc1233" y="123.973077"/>
      </g>
     </g>
     <g id="text_21">
      <!-- Hip Hop -->
      <g transform="translate(99.1125 127.772296)scale(0.1 -0.1)">
       <use xlink:href="#DejaVuSans-72"/>
       <use x="75.195312" xlink:href="#DejaVuSans-105"/>
       <use x="102.978516" xlink:href="#DejaVuSans-112"/>
       <use x="166.455078" xlink:href="#DejaVuSans-32"/>
       <use x="198.242188" xlink:href="#DejaVuSans-72"/>
       <use x="273.4375" xlink:href="#DejaVuSans-111"/>
       <use x="334.619141" xlink:href="#DejaVuSans-112"/>
      </g>
     </g>
    </g>
    <g id="ytick_14">
     <g id="line2d_21">
      <g>
       <use style="stroke:#000000;stroke-width:0.8;" x="145.925" xlink:href="#mb1c9bc1233" y="133.026923"/>
      </g>
     </g>
     <g id="text_22">
      <!-- Drum &amp; Bass -->
      <g transform="translate(73.473438 136.826142)scale(0.1 -0.1)">
       <defs>
        <path d="M 52 44.1875 
Q 55.375 50.25 60.0625 53.125 
Q 64.75 56 71.09375 56 
Q 79.640625 56 84.28125 50.015625 
Q 88.921875 44.046875 88.921875 33.015625 
L 88.921875 0 
L 79.890625 0 
L 79.890625 32.71875 
Q 79.890625 40.578125 77.09375 44.375 
Q 74.3125 48.1875 68.609375 48.1875 
Q 61.625 48.1875 57.5625 43.546875 
Q 53.515625 38.921875 53.515625 30.90625 
L 53.515625 0 
L 44.484375 0 
L 44.484375 32.71875 
Q 44.484375 40.625 41.703125 44.40625 
Q 38.921875 48.1875 33.109375 48.1875 
Q 26.21875 48.1875 22.15625 43.53125 
Q 18.109375 38.875 18.109375 30.90625 
L 18.109375 0 
L 9.078125 0 
L 9.078125 54.6875 
L 18.109375 54.6875 
L 18.109375 46.1875 
Q 21.1875 51.21875 25.484375 53.609375 
Q 29.78125 56 35.6875 56 
Q 41.65625 56 45.828125 52.96875 
Q 50 49.953125 52 44.1875 
z
" id="DejaVuSans-109"/>
        <path d="M 24.3125 39.203125 
Q 19.875 35.25 17.796875 31.3125 
Q 15.71875 27.390625 15.71875 23.09375 
Q 15.71875 15.96875 20.890625 11.234375 
Q 26.078125 6.5 33.890625 6.5 
Q 38.53125 6.5 42.578125 8.03125 
Q 46.625 9.578125 50.203125 12.703125 
z
M 31.203125 44.671875 
L 56 19.28125 
Q 58.890625 23.640625 60.5 28.59375 
Q 62.109375 33.546875 62.40625 39.109375 
L 71.484375 39.109375 
Q 70.90625 32.671875 68.359375 26.359375 
Q 65.828125 20.0625 61.28125 13.921875 
L 74.90625 0 
L 62.59375 0 
L 55.609375 7.171875 
Q 50.53125 2.828125 44.96875 0.703125 
Q 39.40625 -1.421875 33.015625 -1.421875 
Q 21.234375 -1.421875 13.765625 5.296875 
Q 6.296875 12.015625 6.296875 22.515625 
Q 6.296875 28.765625 9.5625 34.25 
Q 12.84375 39.75 19.390625 44.578125 
Q 17.046875 47.65625 15.8125 50.703125 
Q 14.59375 53.765625 14.59375 56.6875 
Q 14.59375 64.59375 20.015625 69.40625 
Q 25.4375 74.21875 34.421875 74.21875 
Q 38.484375 74.21875 42.5 73.34375 
Q 46.53125 72.46875 50.6875 70.703125 
L 50.6875 61.8125 
Q 46.4375 64.109375 42.578125 65.296875 
Q 38.71875 66.5 35.40625 66.5 
Q 30.28125 66.5 27.078125 63.78125 
Q 23.875 61.078125 23.875 56.78125 
Q 23.875 54.296875 25.3125 51.78125 
Q 26.765625 49.265625 31.203125 44.671875 
z
" id="DejaVuSans-38"/>
        <path d="M 19.671875 34.8125 
L 19.671875 8.109375 
L 35.5 8.109375 
Q 43.453125 8.109375 47.28125 11.40625 
Q 51.125 14.703125 51.125 21.484375 
Q 51.125 28.328125 47.28125 31.5625 
Q 43.453125 34.8125 35.5 34.8125 
z
M 19.671875 64.796875 
L 19.671875 42.828125 
L 34.28125 42.828125 
Q 41.5 42.828125 45.03125 45.53125 
Q 48.578125 48.25 48.578125 53.8125 
Q 48.578125 59.328125 45.03125 62.0625 
Q 41.5 64.796875 34.28125 64.796875 
z
M 9.8125 72.90625 
L 35.015625 72.90625 
Q 46.296875 72.90625 52.390625 68.21875 
Q 58.5 63.53125 58.5 54.890625 
Q 58.5 48.1875 55.375 44.234375 
Q 52.25 40.28125 46.1875 39.3125 
Q 53.46875 37.75 57.5 32.78125 
Q 61.53125 27.828125 61.53125 20.40625 
Q 61.53125 10.640625 54.890625 5.3125 
Q 48.25 0 35.984375 0 
L 9.8125 0 
z
" id="DejaVuSans-66"/>
       </defs>
       <use xlink:href="#DejaVuSans-68"/>
       <use x="77.001953" xlink:href="#DejaVuSans-114"/>
       <use x="118.115234" xlink:href="#DejaVuSans-117"/>
       <use x="181.494141" xlink:href="#DejaVuSans-109"/>
       <use x="278.90625" xlink:href="#DejaVuSans-32"/>
       <use x="310.693359" xlink:href="#DejaVuSans-38"/>
       <use x="388.671875" xlink:href="#DejaVuSans-32"/>
       <use x="420.458984" xlink:href="#DejaVuSans-66"/>
       <use x="489.0625" xlink:href="#DejaVuSans-97"/>
       <use x="550.341797" xlink:href="#DejaVuSans-115"/>
       <use x="602.441406" xlink:href="#DejaVuSans-115"/>
      </g>
     </g>
    </g>
    <g id="ytick_15">
     <g id="line2d_22">
      <g>
       <use style="stroke:#000000;stroke-width:0.8;" x="145.925" xlink:href="#mb1c9bc1233" y="142.080769"/>
      </g>
     </g>
     <g id="text_23">
      <!-- Indie Dance / Nu Disco -->
      <g transform="translate(25.335938 145.879988)scale(0.1 -0.1)">
       <defs>
        <path d="M 9.8125 72.90625 
L 19.671875 72.90625 
L 19.671875 0 
L 9.8125 0 
z
" id="DejaVuSans-73"/>
        <path d="M 25.390625 72.90625 
L 33.6875 72.90625 
L 8.296875 -9.28125 
L 0 -9.28125 
z
" id="DejaVuSans-47"/>
        <path d="M 9.8125 72.90625 
L 23.09375 72.90625 
L 55.421875 11.921875 
L 55.421875 72.90625 
L 64.984375 72.90625 
L 64.984375 0 
L 51.703125 0 
L 19.390625 60.984375 
L 19.390625 0 
L 9.8125 0 
z
" id="DejaVuSans-78"/>
       </defs>
       <use xlink:href="#DejaVuSans-73"/>
       <use x="29.492188" xlink:href="#DejaVuSans-110"/>
       <use x="92.871094" xlink:href="#DejaVuSans-100"/>
       <use x="156.347656" xlink:href="#DejaVuSans-105"/>
       <use x="184.130859" xlink:href="#DejaVuSans-101"/>
       <use x="245.654297" xlink:href="#DejaVuSans-32"/>
       <use x="277.441406" xlink:href="#DejaVuSans-68"/>
       <use x="354.443359" xlink:href="#DejaVuSans-97"/>
       <use x="415.722656" xlink:href="#DejaVuSans-110"/>
       <use x="479.101562" xlink:href="#DejaVuSans-99"/>
       <use x="534.082031" xlink:href="#DejaVuSans-101"/>
       <use x="595.605469" xlink:href="#DejaVuSans-32"/>
       <use x="627.392578" xlink:href="#DejaVuSans-47"/>
       <use x="661.083984" xlink:href="#DejaVuSans-32"/>
       <use x="692.871094" xlink:href="#DejaVuSans-78"/>
       <use x="767.675781" xlink:href="#DejaVuSans-117"/>
       <use x="831.054688" xlink:href="#DejaVuSans-32"/>
       <use x="862.841797" xlink:href="#DejaVuSans-68"/>
       <use x="939.84375" xlink:href="#DejaVuSans-105"/>
       <use x="967.626953" xlink:href="#DejaVuSans-115"/>
       <use x="1019.726562" xlink:href="#DejaVuSans-99"/>
       <use x="1074.707031" xlink:href="#DejaVuSans-111"/>
      </g>
     </g>
    </g>
    <g id="ytick_16">
     <g id="line2d_23">
      <g>
       <use style="stroke:#000000;stroke-width:0.8;" x="145.925" xlink:href="#mb1c9bc1233" y="151.134615"/>
      </g>
     </g>
     <g id="text_24">
      <!-- Goa / Psy-Trance -->
      <g transform="translate(56.840625 154.933834)scale(0.1 -0.1)">
       <defs>
        <path d="M 59.515625 10.40625 
L 59.515625 29.984375 
L 43.40625 29.984375 
L 43.40625 38.09375 
L 69.28125 38.09375 
L 69.28125 6.78125 
Q 63.578125 2.734375 56.6875 0.65625 
Q 49.8125 -1.421875 42 -1.421875 
Q 24.90625 -1.421875 15.25 8.5625 
Q 5.609375 18.5625 5.609375 36.375 
Q 5.609375 54.25 15.25 64.234375 
Q 24.90625 74.21875 42 74.21875 
Q 49.125 74.21875 55.546875 72.453125 
Q 61.96875 70.703125 67.390625 67.28125 
L 67.390625 56.78125 
Q 61.921875 61.421875 55.765625 63.765625 
Q 49.609375 66.109375 42.828125 66.109375 
Q 29.4375 66.109375 22.71875 58.640625 
Q 16.015625 51.171875 16.015625 36.375 
Q 16.015625 21.625 22.71875 14.15625 
Q 29.4375 6.6875 42.828125 6.6875 
Q 48.046875 6.6875 52.140625 7.59375 
Q 56.25 8.5 59.515625 10.40625 
z
" id="DejaVuSans-71"/>
        <path d="M 4.890625 31.390625 
L 31.203125 31.390625 
L 31.203125 23.390625 
L 4.890625 23.390625 
z
" id="DejaVuSans-45"/>
       </defs>
       <use xlink:href="#DejaVuSans-71"/>
       <use x="77.490234" xlink:href="#DejaVuSans-111"/>
       <use x="138.671875" xlink:href="#DejaVuSans-97"/>
       <use x="199.951172" xlink:href="#DejaVuSans-32"/>
       <use x="231.738281" xlink:href="#DejaVuSans-47"/>
       <use x="265.429688" xlink:href="#DejaVuSans-32"/>
       <use x="297.216797" xlink:href="#DejaVuSans-80"/>
       <use x="355.769531" xlink:href="#DejaVuSans-115"/>
       <use x="407.869141" xlink:href="#DejaVuSans-121"/>
       <use x="465.298828" xlink:href="#DejaVuSans-45"/>
       <use x="492.257812" xlink:href="#DejaVuSans-84"/>
       <use x="538.591797" xlink:href="#DejaVuSans-114"/>
       <use x="579.705078" xlink:href="#DejaVuSans-97"/>
       <use x="640.984375" xlink:href="#DejaVuSans-110"/>
       <use x="704.363281" xlink:href="#DejaVuSans-99"/>
       <use x="759.34375" xlink:href="#DejaVuSans-101"/>
      </g>
     </g>
    </g>
    <g id="ytick_17">
     <g id="line2d_24">
      <g>
       <use style="stroke:#000000;stroke-width:0.8;" x="145.925" xlink:href="#mb1c9bc1233" y="160.188462"/>
      </g>
     </g>
     <g id="text_25">
      <!-- Bassline / Garage / Grime -->
      <g transform="translate(10.871875 163.98768)scale(0.1 -0.1)">
       <use xlink:href="#DejaVuSans-66"/>
       <use x="68.603516" xlink:href="#DejaVuSans-97"/>
       <use x="129.882812" xlink:href="#DejaVuSans-115"/>
       <use x="181.982422" xlink:href="#DejaVuSans-115"/>
       <use x="234.082031" xlink:href="#DejaVuSans-108"/>
       <use x="261.865234" xlink:href="#DejaVuSans-105"/>
       <use x="289.648438" xlink:href="#DejaVuSans-110"/>
       <use x="353.027344" xlink:href="#DejaVuSans-101"/>
       <use x="414.550781" xlink:href="#DejaVuSans-32"/>
       <use x="446.337891" xlink:href="#DejaVuSans-47"/>
       <use x="480.029297" xlink:href="#DejaVuSans-32"/>
       <use x="511.816406" xlink:href="#DejaVuSans-71"/>
       <use x="589.306641" xlink:href="#DejaVuSans-97"/>
       <use x="650.585938" xlink:href="#DejaVuSans-114"/>
       <use x="691.699219" xlink:href="#DejaVuSans-97"/>
       <use x="752.978516" xlink:href="#DejaVuSans-103"/>
       <use x="816.455078" xlink:href="#DejaVuSans-101"/>
       <use x="877.978516" xlink:href="#DejaVuSans-32"/>
       <use x="909.765625" xlink:href="#DejaVuSans-47"/>
       <use x="943.457031" xlink:href="#DejaVuSans-32"/>
       <use x="975.244141" xlink:href="#DejaVuSans-71"/>
       <use x="1052.734375" xlink:href="#DejaVuSans-114"/>
       <use x="1093.847656" xlink:href="#DejaVuSans-105"/>
       <use x="1121.630859" xlink:href="#DejaVuSans-109"/>
       <use x="1219.042969" xlink:href="#DejaVuSans-101"/>
      </g>
     </g>
    </g>
    <g id="ytick_18">
     <g id="line2d_25">
      <g>
       <use style="stroke:#000000;stroke-width:0.8;" x="145.925" xlink:href="#mb1c9bc1233" y="169.242308"/>
      </g>
     </g>
     <g id="text_26">
      <!-- Break -->
      <g transform="translate(110.10625 173.041526)scale(0.1 -0.1)">
       <defs>
        <path d="M 9.078125 75.984375 
L 18.109375 75.984375 
L 18.109375 31.109375 
L 44.921875 54.6875 
L 56.390625 54.6875 
L 27.390625 29.109375 
L 57.625 0 
L 45.90625 0 
L 18.109375 26.703125 
L 18.109375 0 
L 9.078125 0 
z
" id="DejaVuSans-107"/>
       </defs>
       <use xlink:href="#DejaVuSans-66"/>
       <use x="68.603516" xlink:href="#DejaVuSans-114"/>
       <use x="107.466797" xlink:href="#DejaVuSans-101"/>
       <use x="168.990234" xlink:href="#DejaVuSans-97"/>
       <use x="230.269531" xlink:href="#DejaVuSans-107"/>
      </g>
     </g>
    </g>
    <g id="ytick_19">
     <g id="line2d_26">
      <g>
       <use style="stroke:#000000;stroke-width:0.8;" x="145.925" xlink:href="#mb1c9bc1233" y="178.296154"/>
      </g>
     </g>
     <g id="text_27">
      <!-- Disco -->
      <g transform="translate(111.620313 182.095373)scale(0.1 -0.1)">
       <use xlink:href="#DejaVuSans-68"/>
       <use x="77.001953" xlink:href="#DejaVuSans-105"/>
       <use x="104.785156" xlink:href="#DejaVuSans-115"/>
       <use x="156.884766" xlink:href="#DejaVuSans-99"/>
       <use x="211.865234" xlink:href="#DejaVuSans-111"/>
      </g>
     </g>
    </g>
    <g id="ytick_20">
     <g id="line2d_27">
      <g>
       <use style="stroke:#000000;stroke-width:0.8;" x="145.925" xlink:href="#mb1c9bc1233" y="187.35"/>
      </g>
     </g>
     <g id="text_28">
      <!-- Reggae / Dancehall -->
      <g transform="translate(41.73125 191.149219)scale(0.1 -0.1)">
       <defs>
        <path d="M 44.390625 34.1875 
Q 47.5625 33.109375 50.5625 29.59375 
Q 53.5625 26.078125 56.59375 19.921875 
L 66.609375 0 
L 56 0 
L 46.6875 18.703125 
Q 43.0625 26.03125 39.671875 28.421875 
Q 36.28125 30.8125 30.421875 30.8125 
L 19.671875 30.8125 
L 19.671875 0 
L 9.8125 0 
L 9.8125 72.90625 
L 32.078125 72.90625 
Q 44.578125 72.90625 50.734375 67.671875 
Q 56.890625 62.453125 56.890625 51.90625 
Q 56.890625 45.015625 53.6875 40.46875 
Q 50.484375 35.9375 44.390625 34.1875 
z
M 19.671875 64.796875 
L 19.671875 38.921875 
L 32.078125 38.921875 
Q 39.203125 38.921875 42.84375 42.21875 
Q 46.484375 45.515625 46.484375 51.90625 
Q 46.484375 58.296875 42.84375 61.546875 
Q 39.203125 64.796875 32.078125 64.796875 
z
" id="DejaVuSans-82"/>
       </defs>
       <use xlink:href="#DejaVuSans-82"/>
       <use x="64.982422" xlink:href="#DejaVuSans-101"/>
       <use x="126.505859" xlink:href="#DejaVuSans-103"/>
       <use x="189.982422" xlink:href="#DejaVuSans-103"/>
       <use x="253.458984" xlink:href="#DejaVuSans-97"/>
       <use x="314.738281" xlink:href="#DejaVuSans-101"/>
       <use x="376.261719" xlink:href="#DejaVuSans-32"/>
       <use x="408.048828" xlink:href="#DejaVuSans-47"/>
       <use x="441.740234" xlink:href="#DejaVuSans-32"/>
       <use x="473.527344" xlink:href="#DejaVuSans-68"/>
       <use x="550.529297" xlink:href="#DejaVuSans-97"/>
       <use x="611.808594" xlink:href="#DejaVuSans-110"/>
       <use x="675.1875" xlink:href="#DejaVuSans-99"/>
       <use x="730.167969" xlink:href="#DejaVuSans-101"/>
       <use x="791.691406" xlink:href="#DejaVuSans-104"/>
       <use x="855.070312" xlink:href="#DejaVuSans-97"/>
       <use x="916.349609" xlink:href="#DejaVuSans-108"/>
       <use x="944.132812" xlink:href="#DejaVuSans-108"/>
      </g>
     </g>
    </g>
    <g id="ytick_21">
     <g id="line2d_28">
      <g>
       <use style="stroke:#000000;stroke-width:0.8;" x="145.925" xlink:href="#mb1c9bc1233" y="196.403846"/>
      </g>
     </g>
     <g id="text_29">
      <!-- R&amp;B / Funk -->
      <g transform="translate(83.925 200.203065)scale(0.1 -0.1)">
       <defs>
        <path d="M 9.8125 72.90625 
L 51.703125 72.90625 
L 51.703125 64.59375 
L 19.671875 64.59375 
L 19.671875 43.109375 
L 48.578125 43.109375 
L 48.578125 34.8125 
L 19.671875 34.8125 
L 19.671875 0 
L 9.8125 0 
z
" id="DejaVuSans-70"/>
       </defs>
       <use xlink:href="#DejaVuSans-82"/>
       <use x="69.482422" xlink:href="#DejaVuSans-38"/>
       <use x="147.460938" xlink:href="#DejaVuSans-66"/>
       <use x="216.064453" xlink:href="#DejaVuSans-32"/>
       <use x="247.851562" xlink:href="#DejaVuSans-47"/>
       <use x="281.542969" xlink:href="#DejaVuSans-32"/>
       <use x="313.330078" xlink:href="#DejaVuSans-70"/>
       <use x="365.349609" xlink:href="#DejaVuSans-117"/>
       <use x="428.728516" xlink:href="#DejaVuSans-110"/>
       <use x="492.107422" xlink:href="#DejaVuSans-107"/>
      </g>
     </g>
    </g>
    <g id="ytick_22">
     <g id="line2d_29">
      <g>
       <use style="stroke:#000000;stroke-width:0.8;" x="145.925" xlink:href="#mb1c9bc1233" y="205.457692"/>
      </g>
     </g>
     <g id="text_30">
      <!-- Various -->
      <g transform="translate(102.176563 209.256911)scale(0.1 -0.1)">
       <defs>
        <path d="M 28.609375 0 
L 0.78125 72.90625 
L 11.078125 72.90625 
L 34.1875 11.53125 
L 57.328125 72.90625 
L 67.578125 72.90625 
L 39.796875 0 
z
" id="DejaVuSans-86"/>
       </defs>
       <use xlink:href="#DejaVuSans-86"/>
       <use x="60.658203" xlink:href="#DejaVuSans-97"/>
       <use x="121.9375" xlink:href="#DejaVuSans-114"/>
       <use x="163.050781" xlink:href="#DejaVuSans-105"/>
       <use x="190.833984" xlink:href="#DejaVuSans-111"/>
       <use x="252.015625" xlink:href="#DejaVuSans-117"/>
       <use x="315.394531" xlink:href="#DejaVuSans-115"/>
      </g>
     </g>
    </g>
    <g id="ytick_23">
     <g id="line2d_30">
      <g>
       <use style="stroke:#000000;stroke-width:0.8;" x="145.925" xlink:href="#mb1c9bc1233" y="214.511538"/>
      </g>
     </g>
     <g id="text_31">
      <!-- Rock -->
      <g transform="translate(115.01875 218.310757)scale(0.1 -0.1)">
       <use xlink:href="#DejaVuSans-82"/>
       <use x="64.982422" xlink:href="#DejaVuSans-111"/>
       <use x="126.164062" xlink:href="#DejaVuSans-99"/>
       <use x="181.144531" xlink:href="#DejaVuSans-107"/>
      </g>
     </g>
    </g>
    <g id="ytick_24">
     <g id="line2d_31">
      <g>
       <use style="stroke:#000000;stroke-width:0.8;" x="145.925" xlink:href="#mb1c9bc1233" y="223.565385"/>
      </g>
     </g>
     <g id="text_32">
      <!-- Moombahton -->
      <g transform="translate(73.128125 227.364603)scale(0.1 -0.1)">
       <defs>
        <path d="M 9.8125 72.90625 
L 24.515625 72.90625 
L 43.109375 23.296875 
L 61.8125 72.90625 
L 76.515625 72.90625 
L 76.515625 0 
L 66.890625 0 
L 66.890625 64.015625 
L 48.09375 14.015625 
L 38.1875 14.015625 
L 19.390625 64.015625 
L 19.390625 0 
L 9.8125 0 
z
" id="DejaVuSans-77"/>
       </defs>
       <use xlink:href="#DejaVuSans-77"/>
       <use x="86.279297" xlink:href="#DejaVuSans-111"/>
       <use x="147.460938" xlink:href="#DejaVuSans-111"/>
       <use x="208.642578" xlink:href="#DejaVuSans-109"/>
       <use x="306.054688" xlink:href="#DejaVuSans-98"/>
       <use x="369.53125" xlink:href="#DejaVuSans-97"/>
       <use x="430.810547" xlink:href="#DejaVuSans-104"/>
       <use x="494.189453" xlink:href="#DejaVuSans-116"/>
       <use x="533.398438" xlink:href="#DejaVuSans-111"/>
       <use x="594.580078" xlink:href="#DejaVuSans-110"/>
      </g>
     </g>
    </g>
    <g id="ytick_25">
     <g id="line2d_32">
      <g>
       <use style="stroke:#000000;stroke-width:0.8;" x="145.925" xlink:href="#mb1c9bc1233" y="232.619231"/>
      </g>
     </g>
     <g id="text_33">
      <!-- Latin Music -->
      <g transform="translate(82.559375 236.41845)scale(0.1 -0.1)">
       <defs>
        <path d="M 9.8125 72.90625 
L 19.671875 72.90625 
L 19.671875 8.296875 
L 55.171875 8.296875 
L 55.171875 0 
L 9.8125 0 
z
" id="DejaVuSans-76"/>
       </defs>
       <use xlink:href="#DejaVuSans-76"/>
       <use x="55.712891" xlink:href="#DejaVuSans-97"/>
       <use x="116.992188" xlink:href="#DejaVuSans-116"/>
       <use x="156.201172" xlink:href="#DejaVuSans-105"/>
       <use x="183.984375" xlink:href="#DejaVuSans-110"/>
       <use x="247.363281" xlink:href="#DejaVuSans-32"/>
       <use x="279.150391" xlink:href="#DejaVuSans-77"/>
       <use x="365.429688" xlink:href="#DejaVuSans-117"/>
       <use x="428.808594" xlink:href="#DejaVuSans-115"/>
       <use x="480.908203" xlink:href="#DejaVuSans-105"/>
       <use x="508.691406" xlink:href="#DejaVuSans-99"/>
      </g>
     </g>
    </g>
    <g id="ytick_26">
     <g id="line2d_33">
      <g>
       <use style="stroke:#000000;stroke-width:0.8;" x="145.925" xlink:href="#mb1c9bc1233" y="241.673077"/>
      </g>
     </g>
     <g id="text_34">
      <!-- Minimal -->
      <g transform="translate(99.75625 245.472296)scale(0.1 -0.1)">
       <use xlink:href="#DejaVuSans-77"/>
       <use x="86.279297" xlink:href="#DejaVuSans-105"/>
       <use x="114.0625" xlink:href="#DejaVuSans-110"/>
       <use x="177.441406" xlink:href="#DejaVuSans-105"/>
       <use x="205.224609" xlink:href="#DejaVuSans-109"/>
       <use x="302.636719" xlink:href="#DejaVuSans-97"/>
       <use x="363.916016" xlink:href="#DejaVuSans-108"/>
      </g>
     </g>
    </g>
   </g>
   <g id="patch_29">
    <path d="M 145.925 246.2 
L 145.925 10.8 
" style="fill:none;stroke:#000000;stroke-linecap:square;stroke-linejoin:miter;stroke-width:0.8;"/>
   </g>
   <g id="patch_30">
    <path d="M 565.2 246.2 
L 565.2 10.8 
" style="fill:none;stroke:#000000;stroke-linecap:square;stroke-linejoin:miter;stroke-width:0.8;"/>
   </g>
   <g id="patch_31">
    <path d="M 145.925 246.2 
L 565.2 246.2 
" style="fill:none;stroke:#000000;stroke-linecap:square;stroke-linejoin:miter;stroke-width:0.8;"/>
   </g>
   <g id="patch_32">
    <path d="M 145.925 10.8 
L 565.2 10.8 
" style="fill:none;stroke:#000000;stroke-linecap:square;stroke-linejoin:miter;stroke-width:0.8;"/>
   </g>
  </g>
 </g>
 <defs>
  <clipPath id="p0928f76893">
   <rect height="235.4" width="419.275" x="145.925" y="10.8"/>
  </clipPath>
 </defs>
</svg>
